<svg width="880" height="874" viewBox="0 0 880 874" fill="none" xmlns="http://www.w3.org/2000/svg">
    <circle cx="441" cy="437" r="400" fill="#0F313D" />
    <ellipse cx="439.736" cy="433.341" rx="349.148" ry="349.148" fill="#1F4B5A" />
    <path
        d="M440.51 364.205L489.755 384.603L510.153 433.848L489.755 483.093L440.51 503.491L391.265 483.093L370.867 433.848L391.265 384.603L440.51 364.205Z"
        stroke="#205A6A" stroke-width="3" />
    <path
        d="M440.508 294.562L538.998 335.358L579.794 433.848L538.998 532.337L440.508 573.133L342.018 532.337L301.223 433.848L342.018 335.358L440.508 294.562Z"
        stroke="#205A6A" stroke-width="3" />
    <path
        d="M440.509 224.92L588.243 286.114L649.437 433.848L588.243 581.583L440.509 642.777L292.774 581.583L231.58 433.848L292.774 286.114L440.509 224.92Z"
        stroke="#205A6A" stroke-width="3" />
    <path
        d="M440.511 155.277L637.49 236.868L719.082 433.848L637.49 630.828L440.511 712.419L243.531 630.828L161.939 433.848L243.531 236.868L440.511 155.277Z"
        stroke="#205A6A" stroke-width="3" />
    <path
        d="M440.511 85.6338L686.735 187.623L788.725 433.848L686.735 680.072L440.511 782.062L194.286 680.072L92.2969 433.848L194.286 187.623L440.511 85.6338Z"
        stroke="#205A6A" stroke-width="3" />
    <mask id="path-8-inside-1_762_8480" fill="white">
        <path
            d="M441 854C446.523 854 451 858.477 451 864C451 869.523 446.523 874 441 874C435.477 874 431 869.523 431 864C431 858.477 435.477 854 441 854ZM442 854H439V434H442V854Z" />
    </mask>
    <path
        d="M441 854C446.523 854 451 858.477 451 864C451 869.523 446.523 874 441 874C435.477 874 431 869.523 431 864C431 858.477 435.477 854 441 854ZM442 854H439V434H442V854Z"
        fill="#D4F7F9" />
    <path
        d="M442 854V855H443V854H442ZM439 854H438V855H439V854ZM439 434V433H438V434H439ZM442 434H443V433H442V434ZM441 854V855C445.971 855 450 859.029 450 864H451H452C452 857.925 447.075 853 441 853V854ZM451 864H450C450 868.971 445.971 873 441 873V874V875C447.075 875 452 870.075 452 864H451ZM441 874V873C436.029 873 432 868.971 432 864H431H430C430 870.075 434.925 875 441 875V874ZM431 864H432C432 859.029 436.029 855 441 855V854V853C434.925 853 430 857.925 430 864H431ZM442 854V853H439V854V855H442V854ZM439 854H440V434H439H438V854H439ZM439 434V435H442V434V433H439V434ZM442 434H441V854H442H443V434H442Z"
        fill="#EEFCFD" mask="url(#path-8-inside-1_762_8480)" />
    <mask id="path-10-inside-2_762_8480" fill="white">
        <path
            d="M738.887 729.766C740.648 728.215 742.959 727.273 745.49 727.273C751.013 727.273 755.49 731.751 755.49 737.273C755.49 742.796 751.013 747.273 745.49 747.273C739.967 747.273 735.49 742.796 735.49 737.273C735.49 735.367 736.023 733.585 736.948 732.069L440 435.122L442.121 433L738.887 729.766Z" />
    </mask>
    <path
        d="M738.887 729.766C740.648 728.215 742.959 727.273 745.49 727.273C751.013 727.273 755.49 731.751 755.49 737.273C755.49 742.796 751.013 747.273 745.49 747.273C739.967 747.273 735.49 742.796 735.49 737.273C735.49 735.367 736.023 733.585 736.948 732.069L440 435.122L442.121 433L738.887 729.766Z"
        fill="#D4F7F9" />
    <path
        d="M738.887 729.766L738.18 730.473L738.843 731.136L739.547 730.516L738.887 729.766ZM736.948 732.069L737.802 732.59L738.212 731.919L737.655 731.362L736.948 732.069ZM440 435.122L439.293 434.415L438.586 435.122L439.293 435.829L440 435.122ZM442.121 433L442.828 432.293L442.121 431.586L441.414 432.293L442.121 433ZM738.887 729.766L739.547 730.516C741.134 729.12 743.212 728.273 745.49 728.273V727.273V726.273C742.706 726.273 740.163 727.31 738.226 729.015L738.887 729.766ZM745.49 727.273V728.273C750.461 728.273 754.49 732.303 754.49 737.273H755.49H756.49C756.49 731.198 751.565 726.273 745.49 726.273V727.273ZM755.49 737.273H754.49C754.49 742.244 750.461 746.273 745.49 746.273V747.273V748.273C751.565 748.273 756.49 743.349 756.49 737.273H755.49ZM745.49 747.273V746.273C740.52 746.273 736.49 742.244 736.49 737.273H735.49H734.49C734.49 743.349 739.415 748.273 745.49 748.273V747.273ZM735.49 737.273H736.49C736.49 735.556 736.969 733.954 737.802 732.59L736.948 732.069L736.095 731.548C735.076 733.217 734.49 735.179 734.49 737.273H735.49ZM736.948 732.069L737.655 731.362L440.707 434.415L440 435.122L439.293 435.829L736.241 732.776L736.948 732.069ZM440 435.122L440.707 435.829L442.828 433.707L442.121 433L441.414 432.293L439.293 434.415L440 435.122ZM442.121 433L441.414 433.707L738.18 730.473L738.887 729.766L739.594 729.059L442.828 432.293L442.121 433Z"
        fill="#EEFCFD" mask="url(#path-10-inside-2_762_8480)" />
    <mask id="path-12-inside-3_762_8480" fill="white">
        <path
            d="M870 425C875.523 425 880 429.477 880 435C880 440.523 875.523 445 870 445C864.815 445 860.552 441.053 860.05 436H441V433H860.2C861.127 428.436 865.162 425 870 425Z" />
    </mask>
    <path
        d="M870 425C875.523 425 880 429.477 880 435C880 440.523 875.523 445 870 445C864.815 445 860.552 441.053 860.05 436H441V433H860.2C861.127 428.436 865.162 425 870 425Z"
        fill="#D4F7F9" />
    <path
        d="M860.05 436L861.045 435.901L860.955 435H860.05V436ZM441 436H440V437H441V436ZM441 433V432H440V433H441ZM860.2 433V434H861.018L861.18 433.199L860.2 433ZM870 425V426C874.971 426 879 430.029 879 435H880H881C881 428.925 876.075 424 870 424V425ZM880 435H879C879 439.971 874.971 444 870 444V445V446C876.075 446 881 441.075 881 435H880ZM870 445V444C865.334 444 861.496 440.448 861.045 435.901L860.05 436L859.055 436.099C859.607 441.658 864.295 446 870 446V445ZM860.05 436V435H441V436V437H860.05V436ZM441 436H442V433H441H440V436H441ZM441 433V434H860.2V433V432H441V433ZM860.2 433L861.18 433.199C862.014 429.091 865.647 426 870 426V425V424C864.677 424 860.239 427.78 859.22 432.801L860.2 433Z"
        fill="#EEFCFD" mask="url(#path-12-inside-3_762_8480)" />
    <mask id="path-14-inside-4_762_8480" fill="white">
        <path
            d="M744.611 120C750.134 120 754.611 124.477 754.611 130C754.611 135.523 750.134 140 744.611 140C742.452 140 740.454 139.313 738.819 138.149L442.121 434.849L440 432.727L736.661 136.064C735.376 134.382 734.611 132.281 734.611 130C734.611 124.477 739.088 120 744.611 120Z" />
    </mask>
    <path
        d="M744.611 120C750.134 120 754.611 124.477 754.611 130C754.611 135.523 750.134 140 744.611 140C742.452 140 740.454 139.313 738.819 138.149L442.121 434.849L440 432.727L736.661 136.064C735.376 134.382 734.611 132.281 734.611 130C734.611 124.477 739.088 120 744.611 120Z"
        fill="#D4F7F9" />
    <path
        d="M738.819 138.149L739.399 137.335L738.71 136.844L738.112 137.442L738.819 138.149ZM442.121 434.849L441.414 435.556L442.121 436.263L442.828 435.556L442.121 434.849ZM440 432.727L439.293 432.019L438.586 432.726L439.293 433.434L440 432.727ZM736.661 136.064L737.368 136.772L737.987 136.153L737.456 135.457L736.661 136.064ZM744.611 120V121C749.582 121 753.611 125.029 753.611 130H754.611H755.611C755.611 123.925 750.686 119 744.611 119V120ZM754.611 130H753.611C753.611 134.971 749.582 139 744.611 139V140V141C750.686 141 755.611 136.075 755.611 130H754.611ZM744.611 140V139C742.667 139 740.871 138.383 739.399 137.335L738.819 138.149L738.239 138.964C740.037 140.244 742.236 141 744.611 141V140ZM738.819 138.149L738.112 137.442L441.414 434.142L442.121 434.849L442.828 435.556L739.526 138.857L738.819 138.149ZM442.121 434.849L442.828 434.142L440.707 432.02L440 432.727L439.293 433.434L441.414 435.556L442.121 434.849ZM440 432.727L440.707 433.434L737.368 136.772L736.661 136.064L735.954 135.357L439.293 432.019L440 432.727ZM736.661 136.064L737.456 135.457C736.299 133.943 735.611 132.053 735.611 130H734.611H733.611C733.611 132.508 734.453 134.821 735.866 136.672L736.661 136.064ZM734.611 130H735.611C735.611 125.029 739.641 121 744.611 121V120V119C738.536 119 733.611 123.925 733.611 130H734.611Z"
        fill="#EEFCFD" mask="url(#path-14-inside-4_762_8480)" />
    <mask id="path-16-inside-5_762_8480" fill="white">
        <path
            d="M441 3C446.523 3 451 7.47715 451 13C451 18.1853 447.053 22.4474 442 22.9492V437H439V22.7988C434.436 21.8722 431 17.8378 431 13C431 7.47715 435.477 3 441 3Z" />
    </mask>
    <path
        d="M441 3C446.523 3 451 7.47715 451 13C451 18.1853 447.053 22.4474 442 22.9492V437H439V22.7988C434.436 21.8722 431 17.8378 431 13C431 7.47715 435.477 3 441 3Z"
        fill="#D4F7F9" />
    <path
        d="M442 22.9492L441.901 21.9541L441 22.0436V22.9492H442ZM442 437V438H443V437H442ZM439 437H438V438H439V437ZM439 22.7988H440V21.9814L439.199 21.8188L439 22.7988ZM441 3V4C445.971 4 450 8.02944 450 13H451H452C452 6.92487 447.075 2 441 2V3ZM451 13H450C450 17.666 446.448 21.5026 441.901 21.9541L442 22.9492L442.099 23.9443C447.658 23.3923 452 18.7046 452 13H451ZM442 22.9492H441V437H442H443V22.9492H442ZM442 437V436H439V437V438H442V437ZM439 437H440V22.7988H439H438V437H439ZM439 22.7988L439.199 21.8188C435.091 20.9849 432 17.3527 432 13H431H430C430 18.3229 433.78 22.7595 438.801 23.7788L439 22.7988ZM431 13H432C432 8.02944 436.029 4 441 4V3V2C434.925 2 430 6.92487 430 13H431Z"
        fill="#EEFCFD" mask="url(#path-16-inside-5_762_8480)" />
    <mask id="path-18-inside-6_762_8480" fill="white">
        <path
            d="M135 120C140.523 120 145 124.477 145 130C145 132.324 144.205 134.461 142.875 136.159L439.564 432.849L437.443 434.97L140.692 138.219C139.076 139.34 137.116 140 135 140C129.477 140 125 135.523 125 130C125 124.477 129.477 120 135 120Z" />
    </mask>
    <path
        d="M135 120C140.523 120 145 124.477 145 130C145 132.324 144.205 134.461 142.875 136.159L439.564 432.849L437.443 434.97L140.692 138.219C139.076 139.34 137.116 140 135 140C129.477 140 125 135.523 125 130C125 124.477 129.477 120 135 120Z"
        fill="#D4F7F9" />
    <path
        d="M142.875 136.159L142.088 135.543L141.542 136.24L142.168 136.866L142.875 136.159ZM439.564 432.849L440.272 433.556L440.979 432.849L440.272 432.142L439.564 432.849ZM437.443 434.97L436.736 435.677L437.443 436.384L438.15 435.677L437.443 434.97ZM140.692 138.219L141.399 137.512L140.809 136.921L140.122 137.397L140.692 138.219ZM135 120V121C139.971 121 144 125.029 144 130H145H146C146 123.925 141.075 119 135 119V120ZM145 130H144C144 132.092 143.285 134.014 142.088 135.543L142.875 136.159L143.662 136.776C145.125 134.909 146 132.556 146 130H145ZM142.875 136.159L142.168 136.866L438.857 433.556L439.564 432.849L440.272 432.142L143.582 135.452L142.875 136.159ZM439.564 432.849L438.857 432.142L436.736 434.263L437.443 434.97L438.15 435.677L440.272 433.556L439.564 432.849ZM437.443 434.97L438.15 434.263L141.399 137.512L140.692 138.219L139.985 138.926L436.736 435.677L437.443 434.97ZM140.692 138.219L140.122 137.397C138.667 138.407 136.905 139 135 139V140V141C137.327 141 139.485 140.273 141.262 139.04L140.692 138.219ZM135 140V139C130.029 139 126 134.971 126 130H125H124C124 136.075 128.925 141 135 141V140ZM125 130H126C126 125.029 130.029 121 135 121V120V119C128.925 119 124 123.925 124 130H125Z"
        fill="#EEFCFD" mask="url(#path-18-inside-6_762_8480)" />
    <mask id="path-20-inside-7_762_8480" fill="white">
        <path
            d="M10 424C15.5228 424 20 428.477 20 434C20 439.523 15.5228 444 10 444C4.47715 444 0 439.523 0 434C0 428.477 4.47715 424 10 424ZM440 436H20V433H440V436Z" />
    </mask>
    <path
        d="M10 424C15.5228 424 20 428.477 20 434C20 439.523 15.5228 444 10 444C4.47715 444 0 439.523 0 434C0 428.477 4.47715 424 10 424ZM440 436H20V433H440V436Z"
        fill="#D4F7F9" />
    <path
        d="M440 436V437H441V436H440ZM20 436H19V437H20V436ZM20 433V432H19V433H20ZM440 433H441V432H440V433ZM10 424V425C14.9706 425 19 429.029 19 434H20H21C21 427.925 16.0751 423 10 423V424ZM20 434H19C19 438.971 14.9706 443 10 443V444V445C16.0751 445 21 440.075 21 434H20ZM10 444V443C5.02944 443 1 438.971 1 434H0H-1C-1 440.075 3.92487 445 10 445V444ZM0 434H1C1 429.029 5.02944 425 10 425V424V423C3.92487 423 -1 427.925 -1 434H0ZM440 436V435H20V436V437H440V436ZM20 436H21V433H20H19V436H20ZM20 433V434H440V433V432H20V433ZM440 433H439V436H440H441V433H440Z"
        fill="#EEFCFD" mask="url(#path-20-inside-7_762_8480)" />
    <path
        d="M439.631 436.122L142.824 732.928C144.185 734.636 145 736.799 145 739.152C145 744.675 140.523 749.152 135 749.152C129.477 749.152 125 744.675 125 739.152C125 733.629 129.477 729.152 135 729.152C137.086 729.152 139.022 729.791 140.625 730.884L437.51 434.001L439.631 436.122Z"
        fill="#D4F7F9" />
    <path
        d="M439.631 436.122L439.984 436.476L440.338 436.122L439.984 435.769L439.631 436.122ZM142.824 732.928L142.471 732.574L142.155 732.89L142.433 733.239L142.824 732.928ZM140.625 730.884L140.343 731.297L140.686 731.53L140.979 731.237L140.625 730.884ZM437.51 434.001L437.863 433.647L437.51 433.294L437.156 433.647L437.51 434.001ZM439.631 436.122L439.277 435.769L142.471 732.574L142.824 732.928L143.178 733.281L439.984 436.476L439.631 436.122ZM142.824 732.928L142.433 733.239C143.726 734.862 144.5 736.916 144.5 739.152H145H145.5C145.5 736.681 144.644 734.41 143.215 732.616L142.824 732.928ZM145 739.152H144.5C144.5 744.399 140.247 748.652 135 748.652V749.152V749.652C140.799 749.652 145.5 744.951 145.5 739.152H145ZM135 749.152V748.652C129.753 748.652 125.5 744.399 125.5 739.152H125H124.5C124.5 744.951 129.201 749.652 135 749.652V749.152ZM125 739.152H125.5C125.5 733.906 129.753 729.652 135 729.652V729.152V728.652C129.201 728.652 124.5 733.353 124.5 739.152H125ZM135 729.152V729.652C136.982 729.652 138.821 730.259 140.343 731.297L140.625 730.884L140.907 730.471C139.224 729.323 137.19 728.652 135 728.652V729.152ZM140.625 730.884L140.979 731.237L437.863 434.355L437.51 434.001L437.156 433.647L140.271 730.53L140.625 730.884ZM437.51 434.001L437.156 434.355L439.277 436.476L439.631 436.122L439.984 435.769L437.863 433.647L437.51 434.001Z"
        fill="#EEFCFD" />
    <path
        d="M542.5 196.5L682 343.5L670.5 549L528.5 606L303.5 725.5L201.5 530L197 349.5L334.5 199L542.5 196.5Z"
        fill="#D4F7F9" fill-opacity="0.2" stroke="#78DDE8" stroke-width="3" />
    <circle cx="198.564" cy="349.564" r="12.5636" fill="#78DDE8" />
    <circle cx="201.564" cy="530.564" r="12.5636" fill="#78DDE8" />
    <circle cx="306.564" cy="724.564" r="12.5636" fill="#78DDE8" />
    <circle cx="520.564" cy="610.564" r="12.5636" fill="#78DDE8" />
    <circle cx="669.564" cy="547.564" r="12.5636" fill="#78DDE8" />
    <circle cx="681.564" cy="345.564" r="12.5636" fill="#78DDE8" />
    <circle cx="542.564" cy="197.564" r="12.5636" fill="#78DDE8" />
    <circle cx="335.564" cy="199.564" r="12.5636" fill="#78DDE8" />
    <rect x="408" y="345.23" width="66" height="34" rx="17" fill="#D4F7F9" fill-opacity="0.5" />
    <path
        d="M429.838 366.998V369.23H421.342V367.808L425.032 364.028C425.512 363.548 425.896 363.128 426.184 362.768C426.472 362.408 426.682 362.078 426.814 361.778C426.958 361.466 427.03 361.13 427.03 360.77C427.03 360.434 426.958 360.146 426.814 359.906C426.682 359.654 426.484 359.462 426.22 359.33C425.968 359.186 425.662 359.114 425.302 359.114C424.918 359.114 424.582 359.192 424.294 359.348C424.018 359.504 423.802 359.726 423.646 360.014C423.49 360.29 423.412 360.632 423.412 361.04H420.982C420.982 360.224 421.168 359.504 421.54 358.88C421.924 358.256 422.452 357.77 423.124 357.422C423.796 357.062 424.564 356.882 425.428 356.882C426.232 356.882 426.952 357.038 427.588 357.35C428.224 357.662 428.722 358.088 429.082 358.628C429.454 359.168 429.64 359.78 429.64 360.464C429.64 360.956 429.562 361.412 429.406 361.832C429.262 362.252 428.998 362.708 428.614 363.2C428.23 363.692 427.684 364.298 426.976 365.018L425.14 366.998H429.838ZM431.343 363.164C431.343 361.148 431.751 359.6 432.567 358.52C433.383 357.428 434.541 356.882 436.041 356.882C437.541 356.882 438.699 357.428 439.515 358.52C440.343 359.6 440.757 361.148 440.757 363.164C440.757 365.168 440.349 366.71 439.533 367.79C438.729 368.87 437.565 369.41 436.041 369.41C434.529 369.41 433.365 368.87 432.549 367.79C431.745 366.71 431.343 365.168 431.343 363.164ZM433.917 363.164C433.917 364.472 434.097 365.468 434.457 366.152C434.817 366.836 435.345 367.178 436.041 367.178C436.737 367.178 437.265 366.836 437.625 366.152C437.997 365.468 438.183 364.472 438.183 363.164C438.183 361.844 437.997 360.842 437.625 360.158C437.265 359.462 436.737 359.114 436.041 359.114C435.357 359.114 434.829 359.462 434.457 360.158C434.097 360.854 433.917 361.856 433.917 363.164ZM445.945 364.514C445.189 364.514 444.511 364.346 443.911 364.01C443.323 363.662 442.855 363.2 442.507 362.624C442.171 362.048 442.003 361.418 442.003 360.734C442.003 360.038 442.171 359.408 442.507 358.844C442.855 358.268 443.323 357.812 443.911 357.476C444.511 357.128 445.189 356.954 445.945 356.954C446.701 356.954 447.373 357.128 447.961 357.476C448.561 357.812 449.029 358.268 449.365 358.844C449.713 359.408 449.887 360.038 449.887 360.734C449.887 361.418 449.713 362.048 449.365 362.624C449.029 363.2 448.561 363.662 447.961 364.01C447.373 364.346 446.701 364.514 445.945 364.514ZM445.945 362.75C446.293 362.75 446.611 362.678 446.899 362.534C447.187 362.378 447.415 362.15 447.583 361.85C447.751 361.538 447.835 361.166 447.835 360.734C447.835 360.278 447.751 359.906 447.583 359.618C447.415 359.318 447.187 359.096 446.899 358.952C446.611 358.796 446.293 358.718 445.945 358.718C445.609 358.718 445.291 358.796 444.991 358.952C444.703 359.096 444.469 359.318 444.289 359.618C444.121 359.906 444.037 360.278 444.037 360.734C444.037 361.166 444.121 361.538 444.289 361.85C444.469 362.15 444.703 362.378 444.991 362.534C445.291 362.678 445.609 362.75 445.945 362.75ZM448.933 369.23H446.935L453.847 357.062H455.845L448.933 369.23ZM457.141 369.392C456.385 369.392 455.707 369.224 455.107 368.888C454.519 368.54 454.051 368.078 453.703 367.502C453.367 366.926 453.199 366.296 453.199 365.612C453.199 364.916 453.367 364.286 453.703 363.722C454.051 363.146 454.519 362.69 455.107 362.354C455.707 362.006 456.385 361.832 457.141 361.832C457.897 361.832 458.569 362.006 459.157 362.354C459.757 362.69 460.225 363.146 460.561 363.722C460.909 364.286 461.083 364.916 461.083 365.612C461.083 366.296 460.909 366.926 460.561 367.502C460.225 368.078 459.757 368.54 459.157 368.888C458.569 369.224 457.897 369.392 457.141 369.392ZM457.141 367.61C457.489 367.61 457.807 367.538 458.095 367.394C458.383 367.238 458.611 367.01 458.779 366.71C458.959 366.41 459.049 366.044 459.049 365.612C459.049 365.156 458.959 364.784 458.779 364.496C458.611 364.196 458.383 363.974 458.095 363.83C457.807 363.674 457.489 363.596 457.141 363.596C456.805 363.596 456.487 363.674 456.187 363.83C455.899 363.974 455.665 364.196 455.485 364.496C455.317 364.784 455.233 365.156 455.233 365.612C455.233 366.044 455.317 366.41 455.485 366.71C455.665 367.01 455.899 367.238 456.187 367.394C456.487 367.538 456.805 367.61 457.141 367.61Z"
        fill="#0F313D" />
    <rect x="408" y="275.23" width="66" height="34" rx="17" fill="#D4F7F9" fill-opacity="0.5" />
    <path
        d="M430.386 296.836H428.676V299.23H426.192V296.836H420.414V294.982L426.696 287.062H428.676V294.658H430.386V296.836ZM423.15 294.658H426.192V290.644L423.15 294.658ZM431.677 293.164C431.677 291.148 432.085 289.6 432.901 288.52C433.717 287.428 434.875 286.882 436.375 286.882C437.875 286.882 439.033 287.428 439.849 288.52C440.677 289.6 441.091 291.148 441.091 293.164C441.091 295.168 440.683 296.71 439.867 297.79C439.063 298.87 437.899 299.41 436.375 299.41C434.863 299.41 433.699 298.87 432.883 297.79C432.079 296.71 431.677 295.168 431.677 293.164ZM434.251 293.164C434.251 294.472 434.431 295.468 434.791 296.152C435.151 296.836 435.679 297.178 436.375 297.178C437.071 297.178 437.599 296.836 437.959 296.152C438.331 295.468 438.517 294.472 438.517 293.164C438.517 291.844 438.331 290.842 437.959 290.158C437.599 289.462 437.071 289.114 436.375 289.114C435.691 289.114 435.163 289.462 434.791 290.158C434.431 290.854 434.251 291.856 434.251 293.164ZM446.279 294.514C445.523 294.514 444.845 294.346 444.245 294.01C443.657 293.662 443.189 293.2 442.841 292.624C442.505 292.048 442.337 291.418 442.337 290.734C442.337 290.038 442.505 289.408 442.841 288.844C443.189 288.268 443.657 287.812 444.245 287.476C444.845 287.128 445.523 286.954 446.279 286.954C447.035 286.954 447.707 287.128 448.295 287.476C448.895 287.812 449.363 288.268 449.699 288.844C450.047 289.408 450.221 290.038 450.221 290.734C450.221 291.418 450.047 292.048 449.699 292.624C449.363 293.2 448.895 293.662 448.295 294.01C447.707 294.346 447.035 294.514 446.279 294.514ZM446.279 292.75C446.627 292.75 446.945 292.678 447.233 292.534C447.521 292.378 447.749 292.15 447.917 291.85C448.085 291.538 448.169 291.166 448.169 290.734C448.169 290.278 448.085 289.906 447.917 289.618C447.749 289.318 447.521 289.096 447.233 288.952C446.945 288.796 446.627 288.718 446.279 288.718C445.943 288.718 445.625 288.796 445.325 288.952C445.037 289.096 444.803 289.318 444.623 289.618C444.455 289.906 444.371 290.278 444.371 290.734C444.371 291.166 444.455 291.538 444.623 291.85C444.803 292.15 445.037 292.378 445.325 292.534C445.625 292.678 445.943 292.75 446.279 292.75ZM449.267 299.23H447.269L454.181 287.062H456.179L449.267 299.23ZM457.475 299.392C456.719 299.392 456.041 299.224 455.441 298.888C454.853 298.54 454.385 298.078 454.037 297.502C453.701 296.926 453.533 296.296 453.533 295.612C453.533 294.916 453.701 294.286 454.037 293.722C454.385 293.146 454.853 292.69 455.441 292.354C456.041 292.006 456.719 291.832 457.475 291.832C458.231 291.832 458.903 292.006 459.491 292.354C460.091 292.69 460.559 293.146 460.895 293.722C461.243 294.286 461.417 294.916 461.417 295.612C461.417 296.296 461.243 296.926 460.895 297.502C460.559 298.078 460.091 298.54 459.491 298.888C458.903 299.224 458.231 299.392 457.475 299.392ZM457.475 297.61C457.823 297.61 458.141 297.538 458.429 297.394C458.717 297.238 458.945 297.01 459.113 296.71C459.293 296.41 459.383 296.044 459.383 295.612C459.383 295.156 459.293 294.784 459.113 294.496C458.945 294.196 458.717 293.974 458.429 293.83C458.141 293.674 457.823 293.596 457.475 293.596C457.139 293.596 456.821 293.674 456.521 293.83C456.233 293.974 455.999 294.196 455.819 294.496C455.651 294.784 455.567 295.156 455.567 295.612C455.567 296.044 455.651 296.41 455.819 296.71C455.999 297.01 456.233 297.238 456.521 297.394C456.821 297.538 457.139 297.61 457.475 297.61Z"
        fill="#0F313D" />
    <rect x="408" y="206.23" width="66" height="34" rx="17" fill="#D4F7F9" fill-opacity="0.5" />
    <path
        d="M425.486 230.374C424.562 230.374 423.746 230.194 423.038 229.834C422.33 229.462 421.778 228.97 421.382 228.358C420.986 227.734 420.788 227.062 420.788 226.342C420.788 225.826 420.842 225.364 420.95 224.956C421.058 224.548 421.226 224.146 421.454 223.75C421.694 223.354 422 222.934 422.372 222.49L426.044 218.062H428.87L425.378 222.328C425.486 222.292 425.588 222.268 425.684 222.256C425.78 222.244 425.876 222.238 425.972 222.238C426.8 222.238 427.532 222.406 428.168 222.742C428.804 223.078 429.302 223.546 429.662 224.146C430.022 224.734 430.202 225.412 430.202 226.18C430.202 226.96 429.998 227.668 429.59 228.304C429.194 228.94 428.642 229.444 427.934 229.816C427.226 230.188 426.41 230.374 425.486 230.374ZM425.504 228.286C425.888 228.286 426.236 228.208 426.548 228.052C426.872 227.896 427.13 227.668 427.322 227.368C427.514 227.068 427.61 226.702 427.61 226.27C427.61 225.802 427.514 225.418 427.322 225.118C427.13 224.806 426.872 224.578 426.548 224.434C426.236 224.278 425.888 224.2 425.504 224.2C424.94 224.2 424.448 224.368 424.028 224.704C423.608 225.028 423.398 225.544 423.398 226.252C423.398 226.696 423.494 227.068 423.686 227.368C423.89 227.668 424.148 227.896 424.46 228.052C424.784 228.208 425.132 228.286 425.504 228.286ZM431.518 224.164C431.518 222.148 431.926 220.6 432.742 219.52C433.558 218.428 434.716 217.882 436.216 217.882C437.716 217.882 438.874 218.428 439.69 219.52C440.518 220.6 440.932 222.148 440.932 224.164C440.932 226.168 440.524 227.71 439.708 228.79C438.904 229.87 437.74 230.41 436.216 230.41C434.704 230.41 433.54 229.87 432.724 228.79C431.92 227.71 431.518 226.168 431.518 224.164ZM434.092 224.164C434.092 225.472 434.272 226.468 434.632 227.152C434.992 227.836 435.52 228.178 436.216 228.178C436.912 228.178 437.44 227.836 437.8 227.152C438.172 226.468 438.358 225.472 438.358 224.164C438.358 222.844 438.172 221.842 437.8 221.158C437.44 220.462 436.912 220.114 436.216 220.114C435.532 220.114 435.004 220.462 434.632 221.158C434.272 221.854 434.092 222.856 434.092 224.164ZM446.121 225.514C445.365 225.514 444.687 225.346 444.087 225.01C443.499 224.662 443.031 224.2 442.683 223.624C442.347 223.048 442.179 222.418 442.179 221.734C442.179 221.038 442.347 220.408 442.683 219.844C443.031 219.268 443.499 218.812 444.087 218.476C444.687 218.128 445.365 217.954 446.121 217.954C446.877 217.954 447.549 218.128 448.137 218.476C448.737 218.812 449.205 219.268 449.541 219.844C449.889 220.408 450.063 221.038 450.063 221.734C450.063 222.418 449.889 223.048 449.541 223.624C449.205 224.2 448.737 224.662 448.137 225.01C447.549 225.346 446.877 225.514 446.121 225.514ZM446.121 223.75C446.469 223.75 446.787 223.678 447.075 223.534C447.363 223.378 447.591 223.15 447.759 222.85C447.927 222.538 448.011 222.166 448.011 221.734C448.011 221.278 447.927 220.906 447.759 220.618C447.591 220.318 447.363 220.096 447.075 219.952C446.787 219.796 446.469 219.718 446.121 219.718C445.785 219.718 445.467 219.796 445.167 219.952C444.879 220.096 444.645 220.318 444.465 220.618C444.297 220.906 444.213 221.278 444.213 221.734C444.213 222.166 444.297 222.538 444.465 222.85C444.645 223.15 444.879 223.378 445.167 223.534C445.467 223.678 445.785 223.75 446.121 223.75ZM449.109 230.23H447.111L454.023 218.062H456.021L449.109 230.23ZM457.317 230.392C456.561 230.392 455.883 230.224 455.283 229.888C454.695 229.54 454.227 229.078 453.879 228.502C453.543 227.926 453.375 227.296 453.375 226.612C453.375 225.916 453.543 225.286 453.879 224.722C454.227 224.146 454.695 223.69 455.283 223.354C455.883 223.006 456.561 222.832 457.317 222.832C458.073 222.832 458.745 223.006 459.333 223.354C459.933 223.69 460.401 224.146 460.737 224.722C461.085 225.286 461.259 225.916 461.259 226.612C461.259 227.296 461.085 227.926 460.737 228.502C460.401 229.078 459.933 229.54 459.333 229.888C458.745 230.224 458.073 230.392 457.317 230.392ZM457.317 228.61C457.665 228.61 457.983 228.538 458.271 228.394C458.559 228.238 458.787 228.01 458.955 227.71C459.135 227.41 459.225 227.044 459.225 226.612C459.225 226.156 459.135 225.784 458.955 225.496C458.787 225.196 458.559 224.974 458.271 224.83C457.983 224.674 457.665 224.596 457.317 224.596C456.981 224.596 456.663 224.674 456.363 224.83C456.075 224.974 455.841 225.196 455.661 225.496C455.493 225.784 455.409 226.156 455.409 226.612C455.409 227.044 455.493 227.41 455.661 227.71C455.841 228.01 456.075 228.238 456.363 228.394C456.663 228.538 456.981 228.61 457.317 228.61Z"
        fill="#0F313D" />
    <rect x="408" y="137.23" width="66" height="34" rx="17" fill="#D4F7F9" fill-opacity="0.5" />
    <path
        d="M430.178 157.702C430.178 158.422 429.98 159.058 429.584 159.61C429.2 160.162 428.66 160.6 427.964 160.924C427.268 161.236 426.452 161.392 425.516 161.392C424.568 161.392 423.74 161.236 423.032 160.924C422.324 160.6 421.778 160.162 421.394 159.61C421.01 159.058 420.818 158.422 420.818 157.702C420.818 157.03 421.01 156.46 421.394 155.992C421.79 155.524 422.282 155.164 422.87 154.912C422.39 154.648 421.994 154.306 421.682 153.886C421.382 153.466 421.232 152.962 421.232 152.374C421.232 151.702 421.412 151.108 421.772 150.592C422.132 150.064 422.63 149.65 423.266 149.35C423.914 149.038 424.664 148.882 425.516 148.882C426.356 148.882 427.094 149.038 427.73 149.35C428.378 149.65 428.876 150.064 429.224 150.592C429.584 151.108 429.764 151.702 429.764 152.374C429.764 152.962 429.608 153.466 429.296 153.886C428.996 154.306 428.606 154.648 428.126 154.912C428.714 155.164 429.2 155.524 429.584 155.992C429.98 156.46 430.178 157.03 430.178 157.702ZM423.806 152.464C423.806 152.92 423.956 153.286 424.256 153.562C424.568 153.826 424.988 153.958 425.516 153.958C426.032 153.958 426.44 153.826 426.74 153.562C427.052 153.286 427.208 152.92 427.208 152.464C427.208 151.96 427.052 151.57 426.74 151.294C426.44 151.006 426.032 150.862 425.516 150.862C424.988 150.862 424.568 151.006 424.256 151.294C423.956 151.57 423.806 151.96 423.806 152.464ZM423.392 157.648C423.392 158.008 423.476 158.326 423.644 158.602C423.824 158.866 424.07 159.07 424.382 159.214C424.694 159.346 425.072 159.412 425.516 159.412C425.948 159.412 426.32 159.346 426.632 159.214C426.944 159.07 427.184 158.866 427.352 158.602C427.532 158.326 427.622 158.008 427.622 157.648C427.622 157.3 427.532 157 427.352 156.748C427.184 156.496 426.944 156.298 426.632 156.154C426.32 156.01 425.948 155.938 425.516 155.938C425.072 155.938 424.694 156.01 424.382 156.154C424.07 156.298 423.824 156.496 423.644 156.748C423.476 157 423.392 157.3 423.392 157.648ZM431.65 155.164C431.65 153.148 432.058 151.6 432.874 150.52C433.69 149.428 434.848 148.882 436.348 148.882C437.848 148.882 439.006 149.428 439.822 150.52C440.65 151.6 441.064 153.148 441.064 155.164C441.064 157.168 440.656 158.71 439.84 159.79C439.036 160.87 437.872 161.41 436.348 161.41C434.836 161.41 433.672 160.87 432.856 159.79C432.052 158.71 431.65 157.168 431.65 155.164ZM434.224 155.164C434.224 156.472 434.404 157.468 434.764 158.152C435.124 158.836 435.652 159.178 436.348 159.178C437.044 159.178 437.572 158.836 437.932 158.152C438.304 157.468 438.49 156.472 438.49 155.164C438.49 153.844 438.304 152.842 437.932 152.158C437.572 151.462 437.044 151.114 436.348 151.114C435.664 151.114 435.136 151.462 434.764 152.158C434.404 152.854 434.224 153.856 434.224 155.164ZM446.253 156.514C445.497 156.514 444.819 156.346 444.219 156.01C443.631 155.662 443.163 155.2 442.815 154.624C442.479 154.048 442.311 153.418 442.311 152.734C442.311 152.038 442.479 151.408 442.815 150.844C443.163 150.268 443.631 149.812 444.219 149.476C444.819 149.128 445.497 148.954 446.253 148.954C447.009 148.954 447.681 149.128 448.269 149.476C448.869 149.812 449.337 150.268 449.673 150.844C450.021 151.408 450.195 152.038 450.195 152.734C450.195 153.418 450.021 154.048 449.673 154.624C449.337 155.2 448.869 155.662 448.269 156.01C447.681 156.346 447.009 156.514 446.253 156.514ZM446.253 154.75C446.601 154.75 446.919 154.678 447.207 154.534C447.495 154.378 447.723 154.15 447.891 153.85C448.059 153.538 448.143 153.166 448.143 152.734C448.143 152.278 448.059 151.906 447.891 151.618C447.723 151.318 447.495 151.096 447.207 150.952C446.919 150.796 446.601 150.718 446.253 150.718C445.917 150.718 445.599 150.796 445.299 150.952C445.011 151.096 444.777 151.318 444.597 151.618C444.429 151.906 444.345 152.278 444.345 152.734C444.345 153.166 444.429 153.538 444.597 153.85C444.777 154.15 445.011 154.378 445.299 154.534C445.599 154.678 445.917 154.75 446.253 154.75ZM449.241 161.23H447.243L454.155 149.062H456.153L449.241 161.23ZM457.449 161.392C456.693 161.392 456.015 161.224 455.415 160.888C454.827 160.54 454.359 160.078 454.011 159.502C453.675 158.926 453.507 158.296 453.507 157.612C453.507 156.916 453.675 156.286 454.011 155.722C454.359 155.146 454.827 154.69 455.415 154.354C456.015 154.006 456.693 153.832 457.449 153.832C458.205 153.832 458.877 154.006 459.465 154.354C460.065 154.69 460.533 155.146 460.869 155.722C461.217 156.286 461.391 156.916 461.391 157.612C461.391 158.296 461.217 158.926 460.869 159.502C460.533 160.078 460.065 160.54 459.465 160.888C458.877 161.224 458.205 161.392 457.449 161.392ZM457.449 159.61C457.797 159.61 458.115 159.538 458.403 159.394C458.691 159.238 458.919 159.01 459.087 158.71C459.267 158.41 459.357 158.044 459.357 157.612C459.357 157.156 459.267 156.784 459.087 156.496C458.919 156.196 458.691 155.974 458.403 155.83C458.115 155.674 457.797 155.596 457.449 155.596C457.113 155.596 456.795 155.674 456.495 155.83C456.207 155.974 455.973 156.196 455.793 156.496C455.625 156.784 455.541 157.156 455.541 157.612C455.541 158.044 455.625 158.41 455.793 158.71C455.973 159.01 456.207 159.238 456.495 159.394C456.795 159.538 457.113 159.61 457.449 159.61Z"
        fill="#0F313D" />
    <rect x="404" y="63.2305" width="73" height="34" rx="17" fill="#D4F7F9" fill-opacity="0.5" />
    <path
        d="M421.381 87.2305H418.879V77.2225H416.575V75.0625H421.381V87.2305ZM423.53 81.1645C423.53 79.1485 423.938 77.6005 424.754 76.5205C425.57 75.4285 426.728 74.8825 428.228 74.8825C429.728 74.8825 430.886 75.4285 431.702 76.5205C432.53 77.6005 432.944 79.1485 432.944 81.1645C432.944 83.1685 432.536 84.7105 431.72 85.7905C430.916 86.8705 429.752 87.4105 428.228 87.4105C426.716 87.4105 425.552 86.8705 424.736 85.7905C423.932 84.7105 423.53 83.1685 423.53 81.1645ZM426.104 81.1645C426.104 82.4725 426.284 83.4685 426.644 84.1525C427.004 84.8365 427.532 85.1785 428.228 85.1785C428.924 85.1785 429.452 84.8365 429.812 84.1525C430.184 83.4685 430.37 82.4725 430.37 81.1645C430.37 79.8445 430.184 78.8425 429.812 78.1585C429.452 77.4625 428.924 77.1145 428.228 77.1145C427.544 77.1145 427.016 77.4625 426.644 78.1585C426.284 78.8545 426.104 79.8565 426.104 81.1645ZM434.587 81.1645C434.587 79.1485 434.995 77.6005 435.811 76.5205C436.627 75.4285 437.785 74.8825 439.285 74.8825C440.785 74.8825 441.943 75.4285 442.759 76.5205C443.587 77.6005 444.001 79.1485 444.001 81.1645C444.001 83.1685 443.593 84.7105 442.777 85.7905C441.973 86.8705 440.809 87.4105 439.285 87.4105C437.773 87.4105 436.609 86.8705 435.793 85.7905C434.989 84.7105 434.587 83.1685 434.587 81.1645ZM437.161 81.1645C437.161 82.4725 437.341 83.4685 437.701 84.1525C438.061 84.8365 438.589 85.1785 439.285 85.1785C439.981 85.1785 440.509 84.8365 440.869 84.1525C441.241 83.4685 441.427 82.4725 441.427 81.1645C441.427 79.8445 441.241 78.8425 440.869 78.1585C440.509 77.4625 439.981 77.1145 439.285 77.1145C438.601 77.1145 438.073 77.4625 437.701 78.1585C437.341 78.8545 437.161 79.8565 437.161 81.1645ZM449.189 82.5145C448.433 82.5145 447.755 82.3465 447.155 82.0105C446.567 81.6625 446.099 81.2005 445.751 80.6245C445.415 80.0485 445.247 79.4185 445.247 78.7345C445.247 78.0385 445.415 77.4085 445.751 76.8445C446.099 76.2685 446.567 75.8125 447.155 75.4765C447.755 75.1285 448.433 74.9545 449.189 74.9545C449.945 74.9545 450.617 75.1285 451.205 75.4765C451.805 75.8125 452.273 76.2685 452.609 76.8445C452.957 77.4085 453.131 78.0385 453.131 78.7345C453.131 79.4185 452.957 80.0485 452.609 80.6245C452.273 81.2005 451.805 81.6625 451.205 82.0105C450.617 82.3465 449.945 82.5145 449.189 82.5145ZM449.189 80.7505C449.537 80.7505 449.855 80.6785 450.143 80.5345C450.431 80.3785 450.659 80.1505 450.827 79.8505C450.995 79.5385 451.079 79.1665 451.079 78.7345C451.079 78.2785 450.995 77.9065 450.827 77.6185C450.659 77.3185 450.431 77.0965 450.143 76.9525C449.855 76.7965 449.537 76.7185 449.189 76.7185C448.853 76.7185 448.535 76.7965 448.235 76.9525C447.947 77.0965 447.713 77.3185 447.533 77.6185C447.365 77.9065 447.281 78.2785 447.281 78.7345C447.281 79.1665 447.365 79.5385 447.533 79.8505C447.713 80.1505 447.947 80.3785 448.235 80.5345C448.535 80.6785 448.853 80.7505 449.189 80.7505ZM452.177 87.2305H450.179L457.091 75.0625H459.089L452.177 87.2305ZM460.385 87.3925C459.629 87.3925 458.951 87.2245 458.351 86.8885C457.763 86.5405 457.295 86.0785 456.947 85.5025C456.611 84.9265 456.443 84.2965 456.443 83.6125C456.443 82.9165 456.611 82.2865 456.947 81.7225C457.295 81.1465 457.763 80.6905 458.351 80.3545C458.951 80.0065 459.629 79.8325 460.385 79.8325C461.141 79.8325 461.813 80.0065 462.401 80.3545C463.001 80.6905 463.469 81.1465 463.805 81.7225C464.153 82.2865 464.327 82.9165 464.327 83.6125C464.327 84.2965 464.153 84.9265 463.805 85.5025C463.469 86.0785 463.001 86.5405 462.401 86.8885C461.813 87.2245 461.141 87.3925 460.385 87.3925ZM460.385 85.6105C460.733 85.6105 461.051 85.5385 461.339 85.3945C461.627 85.2385 461.855 85.0105 462.023 84.7105C462.203 84.4105 462.293 84.0445 462.293 83.6125C462.293 83.1565 462.203 82.7845 462.023 82.4965C461.855 82.1965 461.627 81.9745 461.339 81.8305C461.051 81.6745 460.733 81.5965 460.385 81.5965C460.049 81.5965 459.731 81.6745 459.431 81.8305C459.143 81.9745 458.909 82.1965 458.729 82.4965C458.561 82.7845 458.477 83.1565 458.477 83.6125C458.477 84.0445 458.561 84.4105 458.729 84.7105C458.909 85.0105 459.143 85.2385 459.431 85.3945C459.731 85.5385 460.049 85.6105 460.385 85.6105Z"
        fill="#0F313D" />
    <path
        d="M235.506 128.916L232.547 119.036L232.648 118.981L240.378 125.837L242.505 124.492L238.264 110.441L235.934 111.919L239.388 122.025L239.287 122.103L231.377 114.798L229.261 116.131L232.558 126.326L232.456 126.404L224.692 118.999L222.374 120.466L233.356 130.261L235.506 128.916Z"
        fill="white" />
    <path
        d="M242.214 111.86C242.27 113.08 242.664 114.348 243.44 115.662C244.194 116.975 245.094 117.965 246.129 118.619C247.165 119.274 248.245 119.615 249.393 119.62C250.529 119.637 251.643 119.34 252.712 118.729C253.781 118.118 254.603 117.327 255.166 116.344C255.728 115.361 255.976 114.265 255.931 113.033C255.875 111.812 255.481 110.545 254.716 109.22C253.951 107.895 253.051 106.905 252.016 106.251C250.98 105.596 249.9 105.255 248.764 105.239C247.627 105.222 246.513 105.519 245.444 106.13C244.375 106.741 243.553 107.532 242.991 108.515C242.428 109.498 242.18 110.594 242.225 111.826L242.214 111.86ZM246.592 108.151C247.267 107.774 247.942 107.598 248.651 107.635C249.36 107.672 250.035 107.921 250.699 108.406C251.363 108.891 251.959 109.576 252.488 110.508C253.017 111.44 253.343 112.304 253.41 113.111C253.5 113.917 253.377 114.622 253.061 115.248C252.746 115.874 252.251 116.364 251.587 116.753C250.912 117.13 250.237 117.306 249.528 117.269C248.819 117.232 248.144 116.983 247.48 116.498C246.816 116.013 246.22 115.328 245.691 114.396C245.151 113.475 244.836 112.6 244.768 111.793C244.701 110.987 244.802 110.282 245.117 109.656C245.444 109.042 245.928 108.54 246.603 108.163L246.592 108.151Z"
        fill="white" />
    <path
        d="M262.587 113.062L260.146 108.493L262.452 107.284L267.347 110.565L269.879 109.245L264.523 105.703C264.591 105.636 264.669 105.558 264.737 105.491C265.232 104.822 265.491 104.118 265.513 103.356C265.536 102.595 265.345 101.799 264.917 101.013C264.501 100.216 263.961 99.6087 263.297 99.1912C262.644 98.7626 261.902 98.5575 261.069 98.576C260.236 98.5944 259.347 98.8478 258.391 99.3472L253.698 101.8L260.336 114.284L262.598 113.096L262.587 113.062ZM259.021 101.388C259.595 101.089 260.09 100.934 260.54 100.914C260.99 100.894 261.384 100.996 261.721 101.222C262.059 101.447 262.352 101.785 262.588 102.223C262.824 102.66 262.937 103.086 262.925 103.478C262.914 103.87 262.768 104.239 262.486 104.585C262.205 104.931 261.8 105.265 261.226 105.542L259.133 106.63L256.928 102.476L258.998 101.388L259.021 101.388Z"
        fill="white" />
    <path
        d="M273.721 107.372L271.865 103.589L272.473 101.241L278.931 104.855L281.7 103.524L273.305 98.9153L275.433 90.8515L272.619 92.2044L270.515 100.425L270.357 100.514L267.499 94.6773L265.204 95.7863L271.426 108.481L273.721 107.372Z"
        fill="white" />
    <path d="M289.441 102.418L286.775 85.1263L284.761 86.0014L287.449 103.293L289.441 102.418Z"
        fill="white" />
    <path
        d="M295.059 85.816C294.924 87.0247 295.149 88.3472 295.7 89.7496C296.263 91.1632 296.994 92.2753 297.917 93.0859C298.84 93.8965 299.864 94.3829 300.989 94.5674C302.114 94.7519 303.251 94.6117 304.399 94.1692C305.186 93.8594 305.85 93.4706 306.402 92.9917C306.953 92.5128 307.392 91.9661 307.707 91.3629C308.022 90.7597 308.225 90.1336 308.304 89.4733C308.382 88.813 308.349 88.1521 308.191 87.4795L305.772 88.3975C305.851 88.8122 305.862 89.2042 305.783 89.5733C305.704 89.9425 305.58 90.289 305.378 90.6016C305.175 90.9142 304.939 91.1931 304.635 91.4268C304.331 91.6605 303.982 91.8716 303.588 92.0153C302.88 92.2919 302.171 92.367 301.484 92.2181C300.787 92.0805 300.156 91.7415 299.571 91.1789C298.997 90.605 298.491 89.83 298.097 88.8315C297.715 87.8442 297.535 86.9475 297.58 86.1415C297.625 85.3354 297.85 84.6422 298.266 84.073C298.683 83.5039 299.245 83.0811 299.966 82.7933C300.371 82.6385 300.765 82.5395 301.159 82.5078C301.552 82.4761 301.935 82.5227 302.284 82.6251C302.644 82.7388 302.97 82.9083 303.285 83.1338C303.589 83.3704 303.848 83.6739 304.073 84.0333L306.481 83.1041C306.098 82.408 305.626 81.8459 305.086 81.3954C304.546 80.9449 303.949 80.6173 303.297 80.4127C302.644 80.208 301.969 80.1152 301.26 80.1679C300.551 80.1981 299.831 80.3739 299.099 80.6504C297.952 81.0929 297.029 81.7604 296.331 82.6529C295.633 83.5455 295.217 84.5849 295.093 85.8049L295.059 85.816Z"
        fill="white" />
    <path
        d="M313.723 90.4814L313.667 86.8194L318.697 85.085L320.97 87.9849L323.558 87.1013L314.151 75.4107L311.169 76.438L311.157 91.3875L313.734 90.4927L313.723 90.4814ZM313.656 78.6335L317.358 83.3878L313.644 84.6692L313.566 78.6778L313.667 78.6447L313.656 78.6335Z"
        fill="white" />
    <path
        d="M327.644 85.8351L326.092 80.9006L328.579 80.1397L332.787 84.2581L335.51 83.4199L330.886 78.9524C330.953 78.8855 331.066 78.8413 331.133 78.7744C331.741 78.2174 332.123 77.5473 332.304 76.8091C332.472 76.0596 332.427 75.2531 332.146 74.3895C331.876 73.5372 331.46 72.8297 330.897 72.2896C330.335 71.7494 329.637 71.4101 328.827 71.2719C328.005 71.1224 327.071 71.2188 326.047 71.5387L320.972 73.0936L325.202 86.5738L327.656 85.824L327.644 85.8351ZM326.306 73.7012C326.925 73.5137 327.443 73.449 327.881 73.5071C328.32 73.5651 328.692 73.7349 328.995 74.0163C329.288 74.3088 329.524 74.6794 329.671 75.1617C329.817 75.6439 329.862 76.0696 329.772 76.4499C329.682 76.8302 329.479 77.1652 329.141 77.4548C328.804 77.7443 328.342 77.9773 327.724 78.1647L325.462 78.8595L324.055 74.3848L326.306 73.7012Z"
        fill="white" />
    <path
        d="M346.158 80.5148L345.585 78.4628L339.137 80.2128L338.09 76.5012L344.043 74.8833L343.458 72.8201L337.517 74.4269L336.493 70.7378L342.885 68.9988L342.311 66.9244L333.443 69.346L337.235 82.9473L346.158 80.5148Z"
        fill="white" />
    <path
        d="M357.502 77.7707L356.996 75.6966L350.48 77.2447L349.569 73.5114L355.556 72.084L355.05 69.9875L349.052 71.4261L348.129 67.704L354.588 66.1668L354.071 64.0815L345.125 66.2228L348.5 79.9229L357.502 77.7707Z"
        fill="white" />
    <path
        d="M362.43 76.7187L361.361 71.6633L363.927 71.1379L367.73 75.6352L370.532 75.0549L366.369 70.1976C366.448 70.142 366.538 70.0976 366.616 70.042C367.269 69.53 367.719 68.9274 367.956 68.2007C368.192 67.4739 368.214 66.6678 368.023 65.7822C367.832 64.8966 367.483 64.1671 366.966 63.5823C366.448 62.9976 365.795 62.5914 364.996 62.3748C364.198 62.1583 363.252 62.1538 362.195 62.3728L356.996 63.4456L359.932 77.2444L362.441 76.73L362.43 76.7187ZM362.239 64.523C362.87 64.3916 363.398 64.3829 363.837 64.4858C364.276 64.5886 364.614 64.7918 364.895 65.0955C365.165 65.4103 365.356 65.8032 365.446 66.2963C365.548 66.7783 365.536 67.215 365.424 67.5952C365.3 67.9641 365.064 68.2878 364.704 68.5324C364.332 68.7882 363.848 68.9763 363.218 69.1077L360.9 69.5894L359.921 65.0048L362.228 64.5342L362.239 64.523Z"
        fill="white" />
    <path
        d="M485.704 62.2227C485.529 61.75 485.262 61.3209 484.917 60.9467C484.56 60.5836 484.157 60.2647 483.687 59.9897C483.217 59.7146 482.735 59.4954 482.208 59.298L480.929 58.8106C480.649 58.7061 480.38 58.5905 480.111 58.4525C479.842 58.3146 479.596 58.1545 479.383 57.9837C479.171 57.8129 479.004 57.5979 478.893 57.3724C478.783 57.147 478.74 56.8776 478.788 56.5871C478.836 56.2294 478.974 55.9401 479.212 55.6857C479.462 55.4427 479.767 55.2564 480.162 55.1384C480.557 55.0205 481.03 55.0044 481.558 55.0675C482.311 55.1559 482.906 55.399 483.341 55.7968C483.777 56.1945 483.986 56.6789 483.981 57.2835L486.432 57.585C486.517 56.791 486.377 56.0613 486.023 55.407C485.657 54.7414 485.122 54.1967 484.406 53.7616C483.689 53.3265 482.836 53.0464 481.847 52.9212C480.858 52.796 479.968 52.8625 479.145 53.1091C478.321 53.3557 477.653 53.7611 477.12 54.3251C476.586 54.8891 476.287 55.5795 476.19 56.4069C476.068 57.4131 476.309 58.245 476.899 58.936C477.501 59.616 478.351 60.1872 479.473 60.6277L481.02 61.2307C481.514 61.4165 481.94 61.6237 482.298 61.8301C482.656 62.0364 482.936 62.2753 483.113 62.5465C483.291 62.8176 483.367 63.121 483.33 63.4901C483.282 63.8926 483.121 64.2264 482.849 64.4915C482.576 64.7566 482.214 64.9534 481.774 65.0707C481.335 65.188 480.839 65.2038 480.288 65.1404C479.76 65.0774 479.289 64.9367 478.874 64.7184C478.46 64.5001 478.147 64.2272 477.925 63.8659C477.703 63.5046 477.594 63.0776 477.621 62.5852L475.114 62.2718C475.039 63.2114 475.189 64.0197 475.566 64.7191C475.942 65.4184 476.511 65.9971 477.261 66.4439C478.022 66.8796 478.954 67.172 480.044 67.3097C481.18 67.448 482.148 67.3938 482.994 67.1475C483.829 66.8899 484.497 66.4844 484.986 65.9198C485.474 65.3552 485.784 64.6538 485.87 63.8375C485.943 63.2337 485.892 62.6843 485.716 62.2117L485.704 62.2227Z"
        fill="white" />
    <path
        d="M498.98 57.9227C498.705 57.1687 498.238 56.5354 497.578 56.0226C496.908 55.4986 496.033 55.1733 494.954 55.0022L489.706 54.1818L487.558 68.1066L490.098 68.4988L490.825 63.7939L493.5 64.2104C494.579 64.3816 495.525 64.327 496.315 64.0464C497.105 63.7657 497.762 63.3042 498.251 62.6724C498.741 62.0406 499.051 61.272 499.183 60.3891C499.315 59.5062 499.243 58.6877 498.991 57.9341L498.98 57.9227ZM495.061 62.0027C494.632 62.1538 494.092 62.1913 493.474 62.0823L491.136 61.7152L491.912 56.6749L494.227 57.0418C494.856 57.1398 495.361 57.3369 495.73 57.5994C496.099 57.8619 496.344 58.2235 496.486 58.6173C496.629 59.0112 496.659 59.4707 496.576 59.9736C496.504 60.4654 496.343 60.8887 496.081 61.2324C495.83 61.5874 495.479 61.8403 495.05 61.9914L495.061 62.0027Z"
        fill="white" />
    <path d="M504.83 56.6919L502.307 56.2361L499.84 70.1037L502.363 70.5595L504.83 56.6919Z"
        fill="white" />
    <path
        d="M511.164 67.0213L512.87 72.6434L515.678 73.2184L513.774 67.1233C513.864 67.1021 513.965 67.0923 514.056 67.0711C514.856 66.869 515.513 66.4746 516.024 65.9103C516.524 65.3347 516.879 64.6115 517.056 63.7292C517.232 62.8468 517.194 62.04 516.964 61.3091C516.723 60.5667 516.279 59.9337 515.63 59.4323C514.982 58.9085 514.119 58.5498 513.052 58.3228L507.851 57.2568L505.063 71.0722L507.579 71.5761L508.602 66.5168L511.164 67.0437L511.164 67.0213ZM512.247 60.3054C512.876 60.4258 513.369 60.634 513.738 60.8965C514.107 61.159 514.341 61.4868 514.461 61.8804C514.581 62.2739 514.6 62.6997 514.495 63.2023C514.4 63.6937 514.206 64.0831 513.955 64.3709C513.694 64.6698 513.343 64.8555 512.926 64.9507C512.487 65.0456 511.958 65.0274 511.34 64.8959L509.026 64.4171L509.955 59.8269L512.258 60.2944L512.247 60.3054Z"
        fill="white" />
    <path d="M522.996 60.4898L520.496 59.9185L517.387 73.6548L519.887 74.2261L522.996 60.4898Z"
        fill="white" />
    <path
        d="M529.06 64.1232L526.156 75.7197L528.626 76.335L531.541 64.7498L535.774 65.8254L536.31 63.7496L525.34 60.9715L524.815 63.0587L529.06 64.1232Z"
        fill="white" />
    <path
        d="M536.173 76.0132C536.424 76.8788 536.89 77.6465 537.605 78.3056C538.308 78.9533 539.227 79.4359 540.338 79.7755C541.449 80.0927 542.472 80.1623 543.419 79.9958C544.366 79.8292 545.18 79.4369 545.849 78.83C546.518 78.223 546.998 77.4455 547.276 76.4637L549.83 67.6285L547.371 66.9126L544.887 75.5471C544.725 76.1049 544.451 76.5716 544.076 76.9361C543.702 77.3007 543.249 77.541 542.719 77.6571C542.19 77.7732 541.605 77.743 540.987 77.5668C540.37 77.3906 539.866 77.1039 539.475 76.7292C539.096 76.3433 538.841 75.9032 538.711 75.3863C538.58 74.8694 538.607 74.3323 538.77 73.7745L541.276 65.1403L538.818 64.4244L536.265 73.2596C535.975 74.23 535.967 75.1481 536.218 76.0138L536.173 76.0132Z"
        fill="white" />
    <path
        d="M550.183 82.5146L552.38 79.5763L557.441 81.2453L557.476 84.9189L560.08 85.7823L559.738 70.8388L556.719 69.8467L547.579 81.6736L550.182 82.537L550.183 82.5146ZM557.389 73.1032L557.437 79.0951L553.69 77.858L557.288 73.0682L557.389 73.1032Z"
        fill="white" />
    <path
        d="M570.018 89.4311L570.756 87.4252L564.889 85.2752L568.994 74.0642L566.582 73.1697L561.751 86.398L570.018 89.4311Z"
        fill="white" />
    <path
        d="M580.901 83.8754C580.93 84.4245 581.026 84.9969 581.212 85.5705C581.245 85.6494 581.267 85.7392 581.3 85.8181C580.691 85.9443 580.15 86.0939 579.653 86.2664C579.123 86.4497 578.682 86.7014 578.296 87.0098C577.911 87.3183 577.615 87.7398 577.396 88.2633C577.12 88.9539 577.024 89.6469 577.142 90.3316C577.26 91.0163 577.58 91.6589 578.082 92.2591C578.594 92.8483 579.288 93.3279 580.185 93.6982C580.779 93.9413 581.419 94.0954 582.127 94.1609C582.791 94.2257 583.422 94.1445 584.02 93.9397L584.47 95.256L586.982 96.2974L585.984 93.2492C586.063 93.1943 586.143 93.1618 586.233 93.1182C586.697 92.822 587.151 92.4025 587.583 91.8708C588.015 91.339 588.415 90.6612 588.749 89.8482L586.764 89.0266C586.488 89.6948 586.123 90.2499 585.68 90.7031C585.544 90.8357 585.408 90.9458 585.272 91.056L584.044 87.2993L585.116 87.0336C585.826 86.8751 586.425 86.6032 586.946 86.2518C587.455 85.889 587.831 85.4125 588.095 84.8001C588.314 84.2767 588.375 83.7288 588.301 83.1566C588.216 82.5956 587.995 82.0775 587.617 81.6021C587.238 81.1267 586.702 80.7388 586.006 80.4608C585.322 80.1717 584.659 80.062 584.017 80.1319C583.386 80.1906 582.833 80.4184 582.346 80.7815C581.859 81.1445 581.472 81.6321 581.23 82.2448C581.012 82.7906 580.906 83.3379 580.946 83.8984L580.901 83.8754ZM583.351 91.9935C583.08 92.057 582.821 92.0872 582.562 92.0949C582.022 92.1101 581.516 92.025 581.045 91.8395C580.619 91.6546 580.283 91.4262 580.038 91.1318C579.793 90.8373 579.639 90.4993 579.574 90.1625C579.521 89.8146 579.558 89.468 579.707 89.1228C579.799 88.9001 580.004 88.6564 580.332 88.4256C580.649 88.1835 581.09 87.999 581.665 87.8611L581.936 87.7975L583.373 92.0162L583.351 91.9935ZM584.393 82.231C584.663 82.1898 584.922 82.2269 585.213 82.3427C585.628 82.5163 585.907 82.7775 586.028 83.1263C586.171 83.4754 586.168 83.7889 586.042 84.0672C585.904 84.4013 585.699 84.6449 585.428 84.8205C585.145 84.9847 584.795 85.1256 584.355 85.1981L583.408 85.3871C583.408 85.3871 583.387 85.2972 583.365 85.2521C583.233 84.8248 583.147 84.4429 583.105 84.084C583.063 83.7251 583.111 83.4121 583.226 83.1225C583.329 82.8887 583.477 82.7003 583.67 82.5349C583.874 82.3809 584.111 82.2832 584.37 82.2307L584.393 82.231Z"
        fill="white" />
    <path
        d="M601.014 102.777L601.92 100.83L595.845 97.9939L597.485 94.5106L603.078 97.1273L603.973 95.1907L598.38 92.574L600.008 89.1018L606.038 91.9371L606.944 89.9894L598.594 86.0817L592.608 98.8354L601.014 102.777Z"
        fill="white" />
    <path
        d="M620.146 96.6641L611.71 103.808L611.565 103.728L612.505 92.7323L609.716 91.2952L603.248 103.807L605.444 104.934L609.885 96.3256L610.009 96.3833L609.063 106.763L610.687 107.602L618.601 100.832L618.725 100.889L614.283 109.498L616.467 110.613L622.935 98.1011L620.146 96.6641Z"
        fill="white" />
    <path
        d="M634.483 108.244C634.527 107.024 634.267 105.924 633.701 104.942C633.136 103.96 632.31 103.165 631.235 102.546C630.16 101.927 629.049 101.632 627.912 101.65C626.775 101.669 625.692 101.99 624.662 102.66C623.632 103.307 622.746 104.303 621.992 105.614C621.237 106.926 620.844 108.197 620.799 109.417C620.755 110.637 621.015 111.738 621.58 112.72C622.146 113.702 622.972 114.496 624.046 115.116C625.121 115.735 626.233 116.029 627.37 116.011C628.507 115.993 629.59 115.671 630.62 115.002C631.649 114.355 632.536 113.359 633.301 112.036C634.056 110.725 634.449 109.454 634.494 108.233L634.483 108.244ZM629.265 112.878C628.62 113.351 627.942 113.611 627.233 113.635C626.535 113.671 625.85 113.493 625.178 113.126C624.506 112.736 624.004 112.248 623.695 111.617C623.374 110.997 623.245 110.278 623.319 109.473C623.394 108.668 623.694 107.798 624.231 106.876C624.768 105.954 625.36 105.245 626.005 104.772C626.662 104.31 627.339 104.051 628.038 104.015C628.736 103.98 629.42 104.157 630.092 104.524C630.764 104.891 631.266 105.402 631.576 106.033C631.897 106.653 632.026 107.372 631.951 108.177C631.876 108.982 631.576 109.852 631.039 110.774C630.502 111.697 629.911 112.405 629.254 112.867L629.265 112.878Z"
        fill="white" />
    <path
        d="M648.302 113.042L638.676 107.09L637.557 108.912L641.284 111.212L634.983 121.364L637.144 122.703L643.445 112.551L647.172 114.852L648.302 113.042Z"
        fill="white" />
    <path d="M652.486 115.759L650.338 114.36L642.622 126.143L644.771 127.542L652.486 115.759Z"
        fill="white" />
    <path
        d="M662.981 126.709C663.127 125.502 662.957 124.38 662.482 123.354C662.007 122.329 661.249 121.468 660.231 120.748C659.213 120.052 658.125 119.645 657.001 119.563C655.865 119.47 654.76 119.724 653.663 120.28C652.567 120.837 651.602 121.753 650.736 122.996C649.87 124.239 649.364 125.464 649.23 126.682C649.084 127.89 649.254 129.012 649.729 130.038C650.204 131.063 650.95 131.935 651.98 132.643C653.009 133.351 654.086 133.746 655.21 133.829C656.346 133.922 657.462 133.679 658.548 133.112C659.633 132.544 660.609 131.638 661.475 130.396C662.341 129.153 662.847 127.928 662.993 126.698L662.981 126.709ZM657.374 130.879C656.673 131.295 655.973 131.487 655.287 131.467C654.578 131.446 653.917 131.202 653.279 130.779C652.641 130.334 652.184 129.802 651.92 129.148C651.644 128.506 651.583 127.789 651.725 126.985C651.878 126.191 652.246 125.345 652.861 124.48C653.465 123.603 654.124 122.963 654.814 122.535C655.515 122.119 656.215 121.927 656.912 121.958C657.61 121.99 658.283 122.223 658.921 122.646C659.547 123.08 660.015 123.624 660.279 124.277C660.544 124.93 660.605 125.647 660.474 126.441C660.321 127.234 659.953 128.08 659.338 128.945C658.734 129.822 658.076 130.462 657.385 130.89L657.374 130.879Z"
        fill="white" />
    <path
        d="M675.093 131.753L669.332 139.426L669.231 139.346L669.648 127.683L667.815 126.314L659.343 137.557L661.401 139.107L667.173 131.424L667.274 131.503L666.845 143.178L668.668 144.535L677.15 133.281L675.093 131.753Z"
        fill="white" />
    <path
        d="M774.417 265.246L777.292 271.128L771.878 273.725L773.009 276.032L785.749 269.911L784.617 267.604L779.226 270.203L776.351 264.321L781.742 261.722L780.621 259.427L767.894 265.538L769.003 267.843L774.417 265.246Z"
        fill="white" />
    <path
        d="M783.181 283.998L785.144 283.132L782.619 277.517L786.144 275.973L788.846 282.02L790.809 281.153L787.056 272.774L774.117 278.461L777.899 286.899L779.862 286.033L777.131 279.927L780.668 278.373L783.181 283.998Z"
        fill="white" />
    <path
        d="M779.562 290.82L783.231 290.604L785.241 295.531L782.444 297.917L783.477 300.451L794.725 290.585L793.534 287.667L778.528 288.309L779.561 290.842L779.562 290.82ZM791.42 290.126L791.468 290.232L786.912 294.121L785.423 290.478L791.431 290.139L791.42 290.126Z"
        fill="white" />
    <path
        d="M789.148 309.587L786.993 303.747L798.265 299.673L797.379 297.266L784.087 302.088L787.14 310.325L789.148 309.587Z"
        fill="white" />
    <path
        d="M789.846 318.272L801.248 314.525L802.637 318.664L804.674 317.985L801.088 307.316L799.041 307.983L800.43 312.123L789.04 315.861L789.846 318.272Z"
        fill="white" />
    <path
        d="M802.277 330.794L800.419 324.521L806.159 322.853L805.436 320.393L791.859 324.335L792.581 326.796L798.356 325.119L800.213 331.393L794.439 333.069L795.174 335.519L808.762 331.588L808.017 329.126L802.277 330.794Z"
        fill="white" />
    <path
        d="M809.455 497.297L809.039 499.865L803.476 501.752L803.013 504.562L809.049 502.477C809.073 502.581 809.086 502.672 809.122 502.766C809.359 503.556 809.782 504.196 810.366 504.685C810.963 505.163 811.7 505.487 812.601 505.637C813.503 505.787 814.312 505.725 815.04 505.463C815.768 505.201 816.391 504.737 816.876 504.078C817.373 503.409 817.696 502.554 817.873 501.469L818.724 496.257L804.735 493.937L804.323 496.46L809.443 497.307L809.455 497.297ZM816.211 498.416L815.832 500.728C815.734 501.36 815.549 501.858 815.297 502.226C815.045 502.594 814.737 502.843 814.349 502.994C813.972 503.135 813.518 503.155 813.027 503.082C812.527 502.996 812.125 502.83 811.821 502.585C811.518 502.34 811.303 502.002 811.199 501.575C811.094 501.148 811.091 500.618 811.176 499.997L811.555 497.684L816.196 498.448L816.211 498.416Z"
        fill="white" />
    <path
        d="M800.918 515.307L803.038 515.718L804.316 509.178L808.11 509.932L806.918 515.953L809.047 516.377L810.217 510.354L813.988 511.106L812.727 517.592L814.834 518.013L816.597 509.013L802.697 506.252L800.918 515.307Z"
        fill="white" />
    <path
        d="M807.411 518.953C805.93 518.597 804.586 518.581 803.413 518.875C802.229 519.18 801.246 519.731 800.462 520.549C799.679 521.368 799.148 522.371 798.869 523.58C798.684 524.405 798.631 525.164 798.726 525.906C798.811 526.635 799.028 527.299 799.34 527.905C799.665 528.502 800.076 529.028 800.586 529.475C801.095 529.922 801.661 530.262 802.292 530.508L802.883 528.003C802.493 527.828 802.175 527.615 801.909 527.339C801.642 527.064 801.435 526.761 801.277 526.418C801.119 526.076 801.043 525.708 801.024 525.334C801.004 524.961 801.034 524.548 801.132 524.141C801.307 523.406 801.641 522.788 802.142 522.299C802.644 521.811 803.286 521.496 804.085 521.32C804.881 521.166 805.806 521.195 806.867 521.44C807.906 521.683 808.741 522.051 809.392 522.546C810.044 523.042 810.483 523.628 810.734 524.284C810.985 524.94 811.016 525.652 810.85 526.4C810.751 526.829 810.601 527.196 810.408 527.536C810.216 527.876 809.961 528.165 809.677 528.394C809.382 528.634 809.048 528.801 808.697 528.923C808.323 529.041 807.933 529.091 807.495 529.057L806.915 531.573C807.711 531.645 808.441 531.586 809.127 531.398C809.803 531.198 810.399 530.9 810.939 530.483C811.468 530.055 811.925 529.562 812.291 528.958C812.657 528.355 812.93 527.663 813.108 526.905C813.375 525.706 813.352 524.578 813.009 523.485C812.664 522.414 812.035 521.471 811.096 520.675C810.158 519.88 808.948 519.304 807.468 518.948L807.411 518.953Z"
        fill="white" />
    <path
        d="M796.483 534.045L801.506 535.399L800.836 537.907L795.115 539.225L794.376 541.973L800.6 540.493C800.613 540.585 800.614 540.686 800.638 540.79C800.794 541.605 801.144 542.283 801.69 542.823C802.235 543.364 802.943 543.753 803.823 544.002C804.693 544.238 805.506 544.255 806.259 544.075C807.013 543.894 807.665 543.489 808.224 542.872C808.784 542.255 809.195 541.431 809.481 540.381L810.852 535.279L797.171 531.584L796.505 534.047L796.483 534.045ZM807.492 539.454C807.328 540.078 807.099 540.55 806.817 540.88C806.535 541.211 806.195 541.446 805.801 541.54C805.407 541.634 804.967 541.622 804.483 541.482C803.999 541.342 803.612 541.144 803.333 540.878C803.044 540.601 802.876 540.246 802.806 539.811C802.737 539.376 802.79 538.841 802.953 538.239L803.566 535.962L808.115 537.189L807.504 539.444L807.492 539.454Z"
        fill="white" />
    <path
        d="M791.185 552.48L793.238 553.109L795.179 546.728L798.879 547.844L797.102 553.725L799.154 554.355L800.942 548.486L804.621 549.6L802.696 555.927L804.761 556.546L807.416 547.786L793.857 543.664L791.185 552.48Z"
        fill="white" />
    <path
        d="M789.876 556.484L792.809 558.713L791.097 563.723L787.411 563.7L786.53 566.275L801.545 566.148L802.558 563.158L790.724 553.893L789.844 556.469L789.876 556.484ZM799.306 563.765L793.291 563.726L794.557 560.02L799.35 563.669L799.316 563.778L799.306 563.765Z"
        fill="white" />
    <path
        d="M784.626 571.403L783.721 573.773L794.958 578.036L793.419 582.107L795.435 582.868L799.42 572.355L797.403 571.594L795.863 575.665L784.626 571.403Z"
        fill="white" />
    <path d="M794.49 585.117L781.355 579.781L780.397 582.141L793.531 587.477L794.49 585.117Z"
        fill="white" />
    <path
        d="M786.06 587.126C784.661 586.519 783.353 586.249 782.134 586.336C780.915 586.423 779.848 586.796 778.911 587.452C777.996 588.111 777.283 589.016 776.786 590.135C776.299 591.266 776.118 592.395 776.255 593.512C776.392 594.629 776.841 595.678 777.618 596.625C778.394 597.572 779.469 598.359 780.878 598.978C782.276 599.585 783.584 599.856 784.814 599.781C786.033 599.694 787.1 599.321 788.025 598.674C788.939 598.015 789.652 597.11 790.149 595.991C790.636 594.86 790.817 593.731 790.68 592.614C790.533 591.485 790.094 590.449 789.318 589.502C788.541 588.554 787.466 587.768 786.058 587.148L786.06 587.126ZM788.026 595.051C787.718 595.75 787.279 596.29 786.697 596.679C786.115 597.069 785.416 597.266 784.601 597.272C783.786 597.277 782.892 597.06 781.905 596.631C780.918 596.203 780.155 595.696 779.606 595.076C779.055 594.478 778.724 593.825 778.612 593.138C778.5 592.451 778.604 591.753 778.902 591.041C779.209 590.342 779.66 589.792 780.23 589.413C780.812 589.023 781.511 588.825 782.326 588.82C783.141 588.815 784.036 589.032 785.023 589.46C786.009 589.889 786.783 590.409 787.322 591.016C787.873 591.614 788.203 592.267 788.315 592.954C788.427 593.641 788.324 594.339 788.016 595.038L788.026 595.051Z"
        fill="white" />
    <path
        d="M772.31 600.497L781.009 604.687L780.963 604.806L769.369 606.584L768.373 608.618L781.15 614.785L782.263 612.493L773.554 608.29L773.61 608.184L785.191 606.416L786.189 604.359L773.422 598.205L772.31 600.497Z"
        fill="white" />
    <path
        d="M770.857 620.603C770.857 620.603 770.684 620.641 770.604 620.644C770.54 620.041 770.439 619.468 770.319 618.971C770.181 618.428 769.98 617.957 769.704 617.546C769.429 617.135 769.045 616.791 768.54 616.525C767.874 616.163 767.199 616.014 766.494 616.053C765.788 616.092 765.118 616.349 764.486 616.779C763.843 617.218 763.303 617.86 762.833 618.711C762.529 619.265 762.307 619.894 762.183 620.568C762.061 621.219 762.078 621.84 762.219 622.462L760.866 622.761L759.575 625.136L762.719 624.473C762.755 624.566 762.781 624.648 762.829 624.732C763.086 625.22 763.454 625.719 763.937 626.208C764.42 626.697 765.063 627.158 765.846 627.588L766.871 625.714C766.239 625.367 765.715 624.953 765.311 624.461C765.19 624.313 765.104 624.158 765.006 624.012L768.888 623.2L769.04 624.285C769.137 625.004 769.334 625.644 769.643 626.171C769.95 626.721 770.394 627.138 770.984 627.458C771.5 627.737 772.03 627.86 772.597 627.851C773.166 627.82 773.703 627.651 774.221 627.333C774.73 627.004 775.174 626.521 775.522 625.87C775.87 625.22 776.059 624.576 776.055 623.945C776.05 623.314 775.892 622.747 775.583 622.219C775.261 621.702 774.807 621.272 774.226 620.964C773.711 620.686 773.173 620.528 772.611 620.492C772.049 620.457 771.478 620.51 770.89 620.618L770.857 620.603ZM764.22 622.029C764.19 621.767 764.172 621.495 764.186 621.238C764.217 620.701 764.358 620.198 764.595 619.761C764.816 619.356 765.084 619.058 765.412 618.833C765.727 618.618 766.079 618.497 766.432 618.477C766.784 618.458 767.138 618.54 767.461 618.708C767.676 618.821 767.89 619.057 768.105 619.394C768.307 619.741 768.454 620.196 768.533 620.766L768.573 621.041L764.222 622.007L764.22 622.029ZM772.156 622.662C772.518 622.655 772.837 622.744 773.107 622.874C773.332 622.998 773.508 623.163 773.645 623.38C773.782 623.596 773.859 623.841 773.877 624.113C773.895 624.385 773.823 624.647 773.685 624.903C773.475 625.298 773.18 625.537 772.82 625.623C772.461 625.71 772.145 625.7 771.877 625.548C771.555 625.379 771.319 625.141 771.179 624.845C771.039 624.549 770.94 624.179 770.915 623.749L770.807 622.792C770.807 622.792 770.899 622.779 770.946 622.762C771.373 622.682 771.773 622.645 772.135 622.638L772.156 622.662Z"
        fill="white" />
    <path
        d="M755.13 632.686L760.295 635.789L757.27 640.797L759.116 641.901L762.141 636.892L765.439 638.867L762.1 644.416L763.946 645.52L768.613 637.79L756.447 630.493L755.13 632.686Z"
        fill="white" />
    <path
        d="M748.518 652.366L756.297 657.384L757.677 655.243L750.068 650.333C749.58 650.012 749.201 649.624 748.954 649.148C748.708 648.672 748.598 648.188 748.641 647.641C748.672 647.104 748.875 646.552 749.234 646.015C749.594 645.478 749.997 645.07 750.473 644.827C750.94 644.572 751.449 644.467 751.978 644.488C752.518 644.522 753.02 644.709 753.52 645.02L761.129 649.929L762.509 647.788L754.73 642.771C753.869 642.22 753.003 641.939 752.101 641.913C751.198 641.886 750.326 642.122 749.496 642.61C748.667 643.098 747.927 643.82 747.309 644.791C746.681 645.75 746.324 646.714 746.218 647.66C746.112 648.605 746.249 649.497 746.653 650.316C747.035 651.132 747.657 651.816 748.518 652.366Z"
        fill="white" />
    <path
        d="M749.316 667.418L741.397 661.88L741.475 661.776L753.207 661.892L754.526 660.026L742.907 651.898L741.442 653.985L749.348 659.533L749.282 659.627L737.55 659.511L736.244 661.367L747.863 669.496L749.316 667.418Z"
        fill="white" />
    <path
        d="M131.523 216.604C130.896 217.465 130.539 218.308 130.429 219.135C130.318 219.962 130.44 220.717 130.795 221.423C131.15 222.13 131.678 222.735 132.403 223.259C133.116 223.774 133.87 224.072 134.645 224.178C135.43 224.272 136.188 224.155 136.941 223.802C137.694 223.449 138.373 222.843 138.987 221.972L142.014 217.765L130.703 209.687L129.246 211.714L133.072 214.448L131.533 216.592L131.523 216.604ZM137.503 220.453C137.145 220.96 136.752 221.311 136.361 221.517C135.958 221.712 135.546 221.795 135.124 221.722C134.713 221.659 134.295 221.484 133.891 221.197C133.487 220.909 133.182 220.581 132.986 220.201C132.789 219.821 132.716 219.422 132.774 218.969C132.832 218.516 133.035 218.042 133.406 217.546L134.749 215.673L138.837 218.592L137.503 220.453Z"
        fill="white" />
    <path
        d="M130.313 234.632L125.412 231.385L128.957 226.055L133.857 229.301L135.244 227.234L123.667 219.555L122.281 221.622L127.205 224.89L123.648 230.21L118.736 226.953L117.339 229.032L128.916 236.711L130.313 234.632Z"
        fill="white" />
    <path
        d="M121.675 248.393L123.162 245.993L119.695 239.902L119.764 239.773L126.781 240.119L128.268 237.72L118.199 237.429L113.777 234.723L112.473 236.841L116.885 239.559L121.675 248.393Z"
        fill="white" />
    <path
        d="M105.815 251.672C106.144 252.335 106.668 252.873 107.373 253.276C107.891 253.578 108.409 253.735 108.908 253.769C109.407 253.804 109.885 253.716 110.358 253.539C110.83 253.362 111.263 253.109 111.681 252.801C112.109 252.481 112.501 252.129 112.868 251.735L113.792 250.776C113.98 250.561 114.202 250.356 114.426 250.173C114.66 249.977 114.885 249.817 115.124 249.689C115.363 249.561 115.607 249.5 115.854 249.483C116.101 249.467 116.354 249.54 116.612 249.68C116.906 249.852 117.138 250.095 117.273 250.4C117.407 250.706 117.455 251.062 117.404 251.458C117.354 251.854 117.204 252.291 116.943 252.735C116.571 253.377 116.14 253.82 115.616 254.057C115.091 254.294 114.562 254.295 114.026 254.061L112.833 256.149C113.525 256.519 114.235 256.674 114.964 256.615C115.703 256.543 116.405 256.273 117.071 255.802C117.737 255.332 118.31 254.676 118.802 253.824C119.284 252.984 119.563 252.158 119.639 251.322C119.727 250.497 119.615 249.729 119.285 249.044C118.976 248.357 118.464 247.807 117.736 247.406C116.877 246.912 116.013 246.812 115.164 247.082C114.315 247.351 113.486 247.911 112.656 248.762L111.52 249.915C111.163 250.275 110.824 250.59 110.503 250.835C110.182 251.081 109.866 251.225 109.555 251.291C109.244 251.356 108.935 251.298 108.618 251.128C108.266 250.927 108.032 250.661 107.883 250.301C107.745 249.951 107.706 249.56 107.753 249.119C107.813 248.689 107.983 248.228 108.254 247.75C108.503 247.296 108.804 246.928 109.167 246.635C109.507 246.343 109.889 246.172 110.29 246.101C110.703 246.04 111.113 246.102 111.568 246.308L112.78 244.174C111.961 243.756 111.158 243.562 110.374 243.637C109.6 243.699 108.877 243.993 108.181 244.522C107.496 245.039 106.895 245.774 106.363 246.696C105.812 247.664 105.492 248.561 105.406 249.409C105.32 250.256 105.441 251.012 105.77 251.675L105.815 251.672Z"
        fill="white" />
    <path d="M115.222 259.886L102.984 253.285L101.794 255.483L114.032 262.085L115.222 259.886Z"
        fill="white" />
    <path
        d="M97.871 269.013C98.2476 269.55 98.7091 270.013 99.2557 270.404L100.415 268.161C100.082 267.913 99.8247 267.627 99.6437 267.302C99.4627 266.978 99.3265 266.65 99.2666 266.283C99.2066 265.917 99.2036 265.558 99.2679 265.194C99.3322 264.831 99.4519 264.452 99.6509 264.08C99.9864 263.407 100.459 262.915 101.043 262.562C101.626 262.21 102.326 262.062 103.129 262.088C103.921 262.126 104.796 262.382 105.755 262.858C106.691 263.335 107.396 263.884 107.891 264.502C108.386 265.121 108.681 265.775 108.753 266.466C108.824 267.157 108.693 267.84 108.345 268.503C108.158 268.885 107.921 269.204 107.659 269.48C107.397 269.755 107.085 269.966 106.758 270.123C106.43 270.279 106.076 270.37 105.694 270.395C105.313 270.42 104.926 270.378 104.534 270.247L103.386 272.5C104.127 272.766 104.834 272.876 105.531 272.853C106.229 272.829 106.872 272.675 107.484 272.41C108.085 272.135 108.645 271.761 109.14 271.268C109.635 270.775 110.056 270.197 110.402 269.512C110.945 268.432 111.195 267.349 111.117 266.254C111.049 265.147 110.648 264.107 109.958 263.131C109.257 262.144 108.24 261.325 106.906 260.649C105.572 259.974 104.307 259.631 103.113 259.642C101.906 259.643 100.844 259.937 99.9068 260.549C98.9677 261.139 98.2273 261.985 97.672 263.054C97.3068 263.785 97.0763 264.508 96.9806 265.221C96.8848 265.935 96.9326 266.605 97.103 267.257C97.2735 267.908 97.541 268.496 97.9175 269.033L97.871 269.013Z"
        fill="white" />
    <path
        d="M105.133 279.74L94.5684 269.479L93.4439 271.9L96.0788 274.375L93.8877 279.078L90.2946 278.663L89.1701 281.084L103.831 282.509L105.132 279.717L105.133 279.74ZM96.0146 279.33L97.627 275.845L101.93 279.895L101.881 279.999L96.0146 279.33Z"
        fill="white" />
    <path
        d="M100.322 290.407L101.319 288.108L88.5144 282.654L85.1528 290.554L87.095 291.38L89.4813 285.778L100.322 290.407Z"
        fill="white" />
    <path
        d="M83.7134 299.934L87.2596 301.272L85.1354 306.913L87.1056 307.659L89.2418 302.028L92.7656 303.367L90.468 309.424L92.4503 310.18L95.6181 301.776L82.6254 296.851L79.4263 305.291L81.4086 306.047L83.7134 299.934Z"
        fill="white" />
    <path
        d="M88.8944 320.427L79.9246 317.358L79.9735 317.254L91.0309 314.168L91.7479 312.044L78.5938 307.545L77.782 309.922L86.7519 312.99L86.7029 313.095L75.6576 316.192L74.939 318.293L88.0931 322.792L88.8944 320.427Z"
        fill="white" />
    <path
        d="M84.7893 333.595L75.3643 326.987L75.3996 326.85L86.9062 326.585L87.7004 323.962L72.9828 324.584L72.1002 327.55L83.9951 336.219L84.7893 333.595Z"
        fill="white" />
    <path d="M83.6378 337.564L70.2363 333.857L69.5736 336.268L82.9751 339.974L83.6378 337.564Z"
        fill="white" />
    <path
        d="M72.452 347.815C72.6216 348.612 72.9732 349.274 73.5174 349.788C74.0615 350.302 74.7652 350.682 75.627 350.906C76.4887 351.13 77.2896 351.133 78.0313 350.938C78.773 350.744 79.3986 350.343 79.9408 349.724C80.4727 349.116 80.8764 348.292 81.131 347.276L82.3971 342.253L68.9153 338.854L68.3104 341.285L73.2484 342.531L72.6346 344.996L67.0387 346.387L66.3631 349.092L72.4658 347.533C72.4658 347.533 72.4577 347.736 72.4865 347.824L72.452 347.815ZM79.736 344.158L79.1841 346.383C79.0354 346.988 78.8099 347.463 78.5524 347.806C78.2724 348.15 77.95 348.373 77.5507 348.467C77.1634 348.571 76.7337 348.554 76.2632 348.439C75.7806 348.314 75.395 348.126 75.1274 347.852C74.8493 347.589 74.6667 347.242 74.602 346.809C74.5268 346.387 74.5576 345.869 74.7182 345.274L75.2805 343.037L79.748 344.168L79.736 344.158Z"
        fill="white" />
    <path
        d="M70.1614 364.276C71.6268 364.584 72.9352 364.587 74.0971 364.275C75.2589 363.963 76.2101 363.383 76.9641 362.57C77.7181 361.757 78.2109 360.759 78.4648 359.575C78.7187 358.391 78.6616 357.272 78.3157 356.217C77.9699 355.162 77.3298 354.25 76.3954 353.481C75.4609 352.712 74.2834 352.172 72.806 351.854C71.351 351.534 70.0322 351.543 68.8823 351.866C67.7205 352.178 66.7693 352.757 66.0153 353.57C65.2613 354.383 64.7461 355.383 64.5026 356.555C64.2486 357.739 64.3058 358.858 64.6516 359.913C64.9975 360.968 65.6376 361.88 66.572 362.649C67.4944 363.408 68.6839 363.958 70.1614 364.276ZM66.8488 359.095C66.611 358.448 66.5512 357.767 66.7127 357.027C66.8742 356.286 67.192 355.682 67.6765 355.201C68.161 354.72 68.7913 354.386 69.5691 354.223C70.3468 354.059 71.2512 354.089 72.2821 354.313C73.313 354.537 74.1498 354.886 74.7926 355.36C75.4353 355.834 75.8808 356.389 76.1186 357.035C76.3564 357.682 76.4057 358.375 76.2547 359.103C76.0931 359.844 75.7754 360.448 75.2909 360.929C74.8064 361.41 74.1761 361.744 73.3983 361.907C72.6206 362.071 71.7162 362.041 70.6853 361.817C69.6544 361.593 68.8176 361.244 68.1748 360.77C67.5321 360.296 67.0866 359.741 66.8488 359.095Z"
        fill="white" />
    <path
        d="M75.0947 376.21L65.7626 374.547L65.7875 374.421L76.242 369.68L76.6263 367.476L62.942 365.033L62.5198 367.497L71.8295 369.162L71.815 369.275L61.3725 374.028L60.9762 376.221L74.6709 378.652L75.0947 376.21Z"
        fill="white" />
    <path
        d="M72.7998 391.998L63.3677 386.558L63.3895 386.388L73.9111 383.696L74.3159 380.672L60.5575 378.772L60.2309 381.151L69.7066 382.458L69.6938 382.593L59.7431 385.068L59.5097 386.857L68.4192 391.928L68.4063 392.063L58.9529 390.756L58.6262 393.135L72.395 395.022L72.7998 391.998Z"
        fill="white" />
    <path
        d="M60.2355 398.45L64.0066 398.831L63.4408 404.818L65.5316 405.039L66.1078 399.04L69.867 399.41L69.2448 405.872L71.334 406.071L72.1971 397.134L58.3736 395.744L57.5033 404.738L59.6165 404.958L60.2355 398.45Z"
        fill="white" />
    <path
        d="M70.5987 416.944L61.1466 416.287L61.1611 416.174L71.0181 410.326L71.1627 408.083L57.3037 407.144L57.1437 409.647L66.5838 410.293L66.5797 410.395L56.7243 416.264L56.5781 418.486L70.4371 419.424L70.5987 416.944Z"
        fill="white" />
    <path
        d="M68.2672 420.915L68.1312 425.178L56.3628 424.775L56.2926 427.272L68.0594 427.653L67.9354 431.927L70.0495 432.001L70.3693 420.978L68.2672 420.915Z"
        fill="white" />
    <path
        d="M76.1193 547.365L74.4608 541.854L78.0631 540.796L79.917 546.887L81.9326 546.291L79.3692 537.794L66.0625 541.714L66.7824 544.107L72.4452 542.45L74.1036 547.961L76.1193 547.365Z"
        fill="white" />
    <path d="M82.5796 548.081L69.3594 552.269L70.1322 554.653L83.3524 550.465L82.5796 548.081Z"
        fill="white" />
    <path
        d="M86.927 561.058L77.9973 564.14L77.9534 564.02L84.7198 554.792L83.9776 552.67L70.8682 557.192L71.7104 559.565L80.64 556.482L80.6718 556.592L73.9054 565.82L74.6579 567.93L87.7571 563.42L86.927 561.058Z"
        fill="white" />
    <path
        d="M89.9671 569.147L75.2517 569.592L76.2276 572.078L79.8375 571.919L81.7454 576.77L78.9693 579.066L79.9453 581.552L91.0888 572.025L89.9549 569.137L89.9671 569.147ZM81.9737 571.819L87.8666 571.559L87.9087 571.657L83.3918 575.404L81.9737 571.819Z"
        fill="white" />
    <path
        d="M96.9084 585.83L88.2228 589.533L88.1807 589.435L94.264 579.733L93.3582 577.68L80.6189 583.117L81.6247 585.421L90.3104 581.717L90.3524 581.815L84.2795 591.505L85.1628 593.56L97.9021 588.123L96.9084 585.83Z"
        fill="white" />
    <path
        d="M93.2894 602.473C92.9128 602.424 92.5651 602.316 92.2464 602.15C91.9278 601.984 91.638 601.76 91.3773 601.477C91.1165 601.194 90.909 600.873 90.7305 600.494C90.4033 599.823 90.2902 599.146 90.3686 598.466C90.447 597.785 90.7432 597.144 91.2571 596.542C91.771 595.94 92.5044 595.399 93.4716 594.952C94.4163 594.507 95.2779 594.283 96.0788 594.276C96.8796 594.269 97.5712 594.44 98.1553 594.81C98.7496 595.168 99.2001 595.694 99.5273 596.366C99.7058 596.745 99.8292 597.14 99.8835 597.517C99.9377 597.895 99.935 598.266 99.8406 598.622C99.7584 598.988 99.6155 599.303 99.4053 599.623C99.1951 599.942 98.9119 600.201 98.5718 600.452L99.6654 602.726C100.319 602.304 100.842 601.814 101.235 601.255C101.629 600.696 101.906 600.101 102.066 599.448C102.225 598.795 102.249 598.13 102.158 597.452C102.055 596.763 101.85 596.071 101.521 595.378C101.002 594.295 100.274 593.43 99.3539 592.817C98.4212 592.193 97.3662 591.86 96.1663 591.819C94.9664 591.779 93.6927 592.07 92.335 592.704C90.9894 593.349 89.9484 594.127 89.2262 595.072C88.504 596.016 88.0826 597.049 87.9949 598.157C87.8951 599.255 88.1232 600.361 88.6327 601.456C88.9879 602.192 89.4253 602.832 89.9412 603.331C90.4571 603.83 91.0206 604.224 91.63 604.491C92.2393 604.758 92.8841 604.91 93.542 604.948C94.1999 604.986 94.8484 604.913 95.4857 604.706L94.4023 602.42C94.0043 602.518 93.623 602.548 93.2464 602.499L93.2894 602.473Z"
        fill="white" />
    <path
        d="M103.998 605.48L107.01 611.244L108.871 610.289L104.713 602.289L92.3971 608.603L96.5818 616.646L98.4535 615.679L95.4157 609.872L98.7927 608.146L101.567 613.503L103.451 612.546L100.654 607.191L103.998 605.48Z"
        fill="white" />
    <path
        d="M113.254 618.832C113.197 618.017 112.924 617.184 112.435 616.335C111.959 615.495 111.393 614.809 110.708 614.312C110.023 613.816 109.32 613.511 108.567 613.413C107.814 613.315 107.071 613.474 106.359 613.867C105.485 614.351 104.955 615.022 104.757 615.891C104.559 616.761 104.608 617.757 104.907 618.902L105.322 620.477C105.453 620.961 105.547 621.414 105.581 621.816C105.627 622.228 105.587 622.569 105.487 622.857C105.387 623.146 105.172 623.399 104.859 623.57C104.513 623.754 104.146 623.817 103.779 623.755C103.413 623.694 103.049 623.532 102.697 623.233C102.357 622.945 102.044 622.577 101.778 622.103C101.525 621.64 101.363 621.192 101.293 620.759C101.233 620.314 101.267 619.907 101.414 619.513C101.574 619.13 101.852 618.805 102.247 618.538L101.038 616.374C100.254 616.851 99.6938 617.435 99.3462 618.136C98.9987 618.837 98.8829 619.611 98.9765 620.457C99.07 621.304 99.3832 622.212 99.9019 623.149C100.435 624.119 101.061 624.856 101.748 625.375C102.435 625.895 103.148 626.187 103.887 626.253C104.626 626.318 105.357 626.149 106.059 625.768C106.576 625.48 106.987 625.122 107.269 624.718C107.551 624.314 107.738 623.85 107.821 623.36C107.904 622.87 107.918 622.363 107.863 621.84C107.808 621.316 107.707 620.796 107.563 620.279L107.218 618.991C107.138 618.716 107.069 618.43 107.022 618.141C106.975 617.853 106.951 617.562 106.973 617.291C106.996 617.019 107.055 616.779 107.183 616.555C107.311 616.332 107.487 616.149 107.747 616.017C108.05 615.858 108.372 615.799 108.702 615.829C109.044 615.87 109.361 616.014 109.687 616.269C110.013 616.524 110.302 616.873 110.555 617.336C110.915 617.993 111.068 618.599 111.013 619.154C110.947 619.721 110.681 620.18 110.202 620.521L111.382 622.62C112.061 622.241 112.559 621.708 112.875 621.042C113.192 620.377 113.322 619.636 113.254 618.832Z"
        fill="white" />
    <path
        d="M261.063 770.789C261.881 770.82 262.608 770.635 263.234 770.246C263.87 769.845 264.408 769.262 264.823 768.478C265.238 767.693 265.429 766.931 265.416 766.166C265.404 765.402 265.159 764.695 264.694 764.032C264.228 763.369 263.521 762.775 262.587 762.283L257.986 759.837L251.489 772.015L253.707 773.201L256.097 768.74L258.362 769.944L258.391 775.695L260.871 777.013L260.788 770.749C260.788 770.749 260.974 770.798 261.076 770.799L261.063 770.789ZM259.22 762.855L261.257 763.935C261.819 764.228 262.215 764.549 262.489 764.893C262.763 765.238 262.892 765.608 262.889 766.013C262.897 766.407 262.783 766.823 262.546 767.263C262.32 767.691 262.037 768.012 261.708 768.214C261.379 768.416 261.003 768.498 260.57 768.474C260.138 768.45 259.645 768.274 259.095 767.991L257.046 766.9L259.198 762.857L259.22 762.855Z"
        fill="white" />
    <path
        d="M277.457 773.218C277.422 772.028 277.096 770.969 276.478 770.039C275.86 769.11 275.002 768.374 273.906 767.853C272.809 767.309 271.711 767.092 270.6 767.169C269.488 767.246 268.445 767.643 267.478 768.348C266.512 769.052 265.703 770.067 265.041 771.406C264.389 772.732 264.071 774.002 264.118 775.202C264.153 776.392 264.48 777.452 265.098 778.381C265.716 779.31 266.574 780.046 267.66 780.58C268.757 781.123 269.855 781.341 270.966 781.263C272.077 781.186 273.121 780.789 274.087 780.085C275.054 779.381 275.863 778.365 276.524 777.027C277.186 775.689 277.482 774.42 277.447 773.23L277.457 773.218ZM272.631 778.068C272.016 778.569 271.368 778.859 270.687 778.938C270.005 779.017 269.325 778.894 268.646 778.567C267.967 778.241 267.443 777.775 267.099 777.19C266.742 776.596 266.58 775.914 266.597 775.112C266.627 774.321 266.863 773.453 267.319 772.518C267.784 771.571 268.32 770.864 268.923 770.354C269.537 769.854 270.185 769.564 270.867 769.484C271.548 769.405 272.228 769.529 272.907 769.855C273.586 770.181 274.11 770.647 274.455 771.232C274.812 771.827 274.974 772.509 274.957 773.31C274.939 774.111 274.69 774.969 274.235 775.904C273.779 776.839 273.233 777.558 272.631 778.068Z"
        fill="white" />
    <path
        d="M291.642 776.18L283.837 783.67L283.696 783.616L283.934 772.783L281.113 771.556L275.557 784.192L277.776 785.176L281.607 776.461L281.714 776.507L281.422 786.726L283.083 787.461L290.397 780.347L290.516 780.403L286.692 789.082L288.92 790.054L294.463 777.408L291.642 776.18Z"
        fill="white" />
    <path
        d="M300.094 779.629L290.495 790.698L292.997 791.687L295.308 788.934L300.168 790.837L299.992 794.423L302.493 795.412L302.973 780.761L300.082 779.619L300.094 779.629ZM296.685 787.299L300.463 782.801L300.557 782.837L300.282 788.708L296.685 787.299Z"
        fill="white" />
    <path
        d="M317.125 785.915L314.013 794.806L313.884 794.762L310.83 783.706L308.705 782.961L304.141 795.993L306.515 796.837L309.626 787.947L309.733 787.993L312.797 799.037L314.922 799.782L319.486 786.749L317.125 785.915Z"
        fill="white" />
    <path
        d="M327.746 799.032C327.558 799.388 327.307 799.695 327.028 799.937C326.748 800.179 326.438 800.356 326.077 800.471C325.729 800.596 325.373 800.654 324.988 800.647C324.602 800.64 324.223 800.577 323.826 800.459C323.101 800.238 322.529 799.856 322.09 799.337C321.639 798.808 321.367 798.16 321.272 797.37C321.177 796.58 321.275 795.68 321.587 794.67C321.901 793.681 322.304 792.887 322.842 792.304C323.367 791.711 323.971 791.324 324.641 791.133C325.31 790.943 326.004 790.975 326.728 791.195C327.137 791.323 327.494 791.49 327.811 791.707C328.128 791.923 328.392 792.178 328.607 792.494C328.819 792.788 328.968 793.134 329.063 793.496C329.157 793.858 329.165 794.251 329.118 794.661L331.539 795.422C331.673 794.654 331.665 793.934 331.515 793.262C331.365 792.591 331.108 791.974 330.733 791.426C330.359 790.878 329.889 790.396 329.315 789.991C328.741 789.587 328.097 789.268 327.36 789.038C326.202 788.669 325.088 788.623 323.996 788.878C322.913 789.121 321.943 789.68 321.105 790.529C320.267 791.378 319.617 792.502 319.168 793.931C318.729 795.349 318.617 796.644 318.831 797.816C319.045 798.988 319.524 799.987 320.267 800.814C321.02 801.628 321.976 802.22 323.134 802.588C323.918 802.837 324.675 802.941 325.396 802.914C326.117 802.887 326.779 802.731 327.395 802.456C328.01 802.181 328.55 801.823 329.022 801.37C329.495 800.918 329.868 800.385 330.155 799.782L327.734 799.022L327.746 799.032Z"
        fill="white" />
    <path
        d="M333.868 803.384L334.865 799.749L340.701 801.363L341.257 799.348L335.421 797.735L336.42 794.122L342.698 795.849L343.254 793.834L334.54 791.416L330.89 804.74L339.661 807.164L340.205 805.139L333.868 803.384Z"
        fill="white" />
    <path
        d="M517.645 806.761L517.245 804.704L511.569 805.786L510.86 802.098L517.111 800.911L516.711 798.853L507.974 800.506L510.653 814.078L513.117 813.616L511.982 807.853L517.645 806.761Z"
        fill="white" />
    <path
        d="M527.964 804.809C528.601 804.305 529.022 803.693 529.242 802.98C529.462 802.268 529.485 801.478 529.287 800.613C529.089 799.749 528.727 799.041 528.23 798.471C527.711 797.904 527.067 797.521 526.283 797.311C525.491 797.114 524.577 797.121 523.533 797.346L518.461 798.477L521.548 811.963L524.008 811.423L522.881 806.49L525.373 805.932L529.159 810.288L531.894 809.686L527.745 804.986C527.825 804.926 527.91 804.887 527.99 804.827L527.964 804.809ZM522.397 804.47L521.366 799.986L523.606 799.486C524.221 799.351 524.742 799.324 525.173 799.428C525.6 799.509 525.947 799.708 526.222 800.011C526.483 800.305 526.673 800.703 526.786 801.184C526.9 801.665 526.9 802.086 526.785 802.449C526.671 802.812 526.446 803.138 526.095 803.396C525.743 803.654 525.264 803.844 524.662 803.988L522.401 804.492L522.397 804.47Z"
        fill="white" />
    <path d="M532.645 795.178L530.207 795.777L533.596 809.201L536.035 808.601L532.645 795.178Z"
        fill="white" />
    <path
        d="M540.464 805.33L539.468 801.695L545.304 800.128L544.749 798.098L538.913 799.666L537.917 796.03L544.2 794.347L543.645 792.318L534.935 794.661L538.602 808.007L547.377 805.651L546.8 803.626L540.464 805.33Z"
        fill="white" />
    <path
        d="M554.08 789.2L556.882 798.214L556.771 798.234L547.719 791.137L545.575 791.779L549.689 805.009L552.09 804.274L549.288 795.26L549.398 795.24L558.45 802.337L560.581 801.686L556.472 788.478L554.08 789.2Z"
        fill="white" />
    <path
        d="M571.602 790.627C571.127 789.267 570.455 788.193 569.617 787.389C568.779 786.585 567.791 786.082 566.668 785.888C565.544 785.695 564.342 785.812 563.031 786.256L558.497 787.814L563.085 800.889L567.521 799.361C568.855 798.912 569.895 798.243 570.664 797.408C571.433 796.572 571.894 795.565 572.053 794.408C572.212 793.251 572.054 791.992 571.58 790.631L571.602 790.627ZM566.705 797.345L564.751 798.021L561.604 789.058L563.625 788.37C564.515 788.059 565.311 787.971 566.033 788.101C566.756 788.231 567.379 788.561 567.92 789.124C568.461 789.686 568.902 790.448 569.253 791.455C569.603 792.462 569.735 793.339 569.664 794.115C569.593 794.891 569.304 795.537 568.812 796.082C568.32 796.628 567.622 797.052 566.709 797.367L566.705 797.345Z"
        fill="white" />
    <path
        d="M584.09 789.144C583.871 788.591 583.58 788.143 583.196 787.803C582.824 787.472 582.399 787.219 581.924 787.067C581.449 786.914 580.951 786.823 580.422 786.805C579.892 786.788 579.358 786.806 578.836 786.89L577.505 787.053C577.227 787.093 576.922 787.114 576.626 787.123C576.33 787.131 576.039 787.105 575.779 787.061C575.506 787.008 575.269 786.903 575.081 786.755C574.871 786.611 574.727 786.398 574.62 786.133C574.5 785.802 574.486 785.485 574.574 785.162C574.661 784.838 574.846 784.542 575.136 784.261C575.426 783.98 575.817 783.749 576.309 783.568C577.014 783.303 577.633 783.247 578.183 783.374C578.737 783.524 579.153 783.847 579.425 784.378L581.677 783.522C581.381 782.801 580.919 782.236 580.315 781.823C579.711 781.409 578.98 781.178 578.169 781.121C577.357 781.064 576.482 781.212 575.564 781.562C574.668 781.908 573.899 782.379 573.314 782.976C572.716 783.564 572.338 784.225 572.144 784.956C571.95 785.686 571.999 786.43 572.304 787.194C572.673 788.118 573.271 788.738 574.097 789.055C574.936 789.38 575.937 789.47 577.113 789.335L578.726 789.155C579.23 789.097 579.694 789.069 580.1 789.098C580.501 789.104 580.849 789.189 581.13 789.342C581.411 789.496 581.615 789.732 581.748 790.073C581.885 790.435 581.899 790.809 581.784 791.171C581.67 791.534 581.446 791.86 581.124 792.158C580.803 792.456 580.381 792.704 579.88 792.898C579.388 793.079 578.914 793.177 578.469 793.179C578.023 793.18 577.613 793.073 577.245 792.878C576.885 792.67 576.597 792.358 576.399 791.916L574.094 792.793C574.46 793.637 574.969 794.274 575.613 794.714C576.257 795.155 577.009 795.382 577.874 795.418C578.738 795.454 579.676 795.271 580.678 794.883C581.725 794.487 582.534 793.986 583.141 793.385C583.748 792.784 584.126 792.122 584.298 791.396C584.461 790.683 584.399 789.93 584.107 789.175L584.09 789.144Z"
        fill="white" />
    <path
        d="M599.247 784.118C599.342 783.588 599.366 782.991 599.285 782.322C599.205 781.653 598.975 780.92 598.639 780.116L596.714 780.946C596.998 781.6 597.15 782.222 597.178 782.855C597.189 783.035 597.165 783.211 597.141 783.386L593.638 781.679L594.183 780.747C594.547 780.134 594.775 779.522 594.857 778.926C594.948 778.317 594.857 777.718 594.586 777.13C594.362 776.612 594.018 776.185 593.559 775.87C593.099 775.556 592.58 775.354 591.985 775.292C591.39 775.23 590.761 775.356 590.083 775.639C589.404 775.923 588.883 776.314 588.507 776.804C588.13 777.295 587.912 777.836 587.84 778.419C587.78 779.011 587.87 779.61 588.133 780.212C588.369 780.738 588.682 781.182 589.115 781.536C589.548 781.89 590.008 782.205 590.517 782.477C590.583 782.522 590.679 782.549 590.745 782.594C590.43 783.108 590.155 783.591 589.947 784.062C589.721 784.559 589.596 785.049 589.56 785.523C589.523 785.997 589.619 786.503 589.852 787.008C590.14 787.685 590.584 788.219 591.158 788.592C591.723 788.979 592.405 789.197 593.168 789.239C593.931 789.282 594.745 789.111 595.615 788.747C596.187 788.506 596.738 788.154 597.247 787.697C597.737 787.265 598.1 786.766 598.363 786.217L599.605 786.799L602.036 785.739L599.2 784.354C599.228 784.258 599.26 784.184 599.274 784.079L599.247 784.118ZM590.738 780.134C590.458 779.924 590.262 779.674 590.128 779.391C590.029 779.17 589.983 778.928 590.017 778.682C590.038 778.428 590.133 778.205 590.286 777.984C590.438 777.762 590.648 777.599 590.914 777.493C591.317 777.328 591.679 777.308 592.026 777.449C592.365 777.604 592.596 777.801 592.717 778.075C592.859 778.402 592.895 778.715 592.829 779.035C592.764 779.354 592.61 779.69 592.368 780.042L591.855 780.842C591.855 780.842 591.777 780.788 591.728 780.774C591.337 780.583 591.013 780.38 590.729 780.148L590.738 780.134ZM596.056 786C595.708 786.394 595.307 786.695 594.841 786.894C594.429 787.072 594.03 787.145 593.647 787.112C593.263 787.08 592.933 786.969 592.644 786.771C592.355 786.573 592.133 786.306 591.991 785.979C591.892 785.758 591.869 785.454 591.909 785.06C591.949 784.665 592.117 784.224 592.414 783.737L592.567 783.515L596.509 785.37C596.37 785.601 596.213 785.8 596.056 786Z"
        fill="white" />
    <path
        d="M612.37 774.305L611.442 772.423L606.254 774.932L604.597 771.554L610.319 768.777L609.391 766.896L601.415 770.757L607.528 783.189L609.792 782.091L607.181 776.814L612.37 774.305Z"
        fill="white" />
    <path
        d="M614.475 764.257L616.689 778.758L619.061 777.504L618.47 773.954L623.08 771.528L625.7 774.012L628.071 772.759L617.22 762.799L614.484 764.244L614.475 764.257ZM617.236 766.032L621.525 770.08L618.11 771.866L617.129 766.074L617.223 766.023L617.236 766.032Z"
        fill="white" />
    <path
        d="M632.472 754.291L633.992 764.998L633.85 765.092L625.22 758.475L622.559 760.01L629.569 771.981L631.662 770.767L626.834 762.533L626.936 762.469L635.057 768.757L636.603 767.859L635.129 757.759L635.232 757.695L640.056 765.907L642.139 764.706L635.12 752.747L632.472 754.291Z"
        fill="white" />
    <path d="M639.152 750.245L637.02 751.561L644.38 763.321L646.512 762.005L639.152 750.245Z"
        fill="white" />
    <path
        d="M649.709 757.458L643.261 747.617L641.162 748.981L648.755 760.584L655.981 755.902L654.827 754.153L649.709 757.458Z"
        fill="white" />
    <path
        d="M659.334 736.773L657.007 738.383L657.739 745.348L657.628 745.426L651.32 742.316L648.993 743.926L658.126 748.183L661.102 752.426L663.157 751.013L660.182 746.771L659.334 736.773Z"
        fill="white" />
</svg>
    