<svg width="168" height="168" viewBox="0 0 168 168" fill="none" xmlns="http://www.w3.org/2000/svg">
<g id="dictionary">
<mask id="mask0_11_283" style="mask-type:alpha" maskUnits="userSpaceOnUse" x="0" y="0" width="168" height="168">
<rect id="Bounding box" x="0.204102" y="0.00238037" width="167.558" height="167.558" fill="#003B50"/>
</mask>
<g mask="url(#mask0_11_283)">
<path id="dictionary_2" d="M30.8148 98.3765H36.2535L40.1335 87.6615H60.1654L64.0856 98.3765H69.6168L53.4928 55.492H46.8062L30.8148 98.3765ZM42.1337 82.5457L49.9741 61.1855H50.3231L58.1652 82.5457H42.1337ZM97.1399 66.9715V60.4734C100.891 58.5756 104.908 57.1525 109.19 56.2042C113.473 55.2558 117.871 54.7817 122.382 54.7817C124.959 54.7817 127.434 54.9469 129.807 55.2774C132.178 55.609 134.626 56.0791 137.151 56.6876V63.0252C134.716 62.2456 132.342 61.7062 130.028 61.4072C127.714 61.107 125.165 60.9569 122.382 60.9569C117.871 60.9569 113.467 61.4648 109.171 62.4806C104.874 63.4964 100.863 64.9934 97.1399 66.9715ZM97.1399 105.101V98.3346C100.712 96.4379 104.707 95.0148 109.124 94.0653C113.541 93.117 117.96 92.6428 122.382 92.6428C124.959 92.6428 127.434 92.8086 129.807 93.1403C132.178 93.4707 134.626 93.9402 137.151 94.5488V100.886C134.716 100.108 132.342 99.5686 130.028 99.2684C127.714 98.9681 125.165 98.818 122.382 98.818C117.871 98.818 113.467 99.3643 109.171 100.457C104.874 101.548 100.863 103.097 97.1399 105.101ZM97.1399 86.1709V79.404C100.891 77.5073 104.908 76.0842 109.19 75.1348C113.473 74.1864 117.871 73.7122 122.382 73.7122C124.959 73.7122 127.434 73.8775 129.807 74.2079C132.178 74.5396 134.626 75.0097 137.151 75.6182V81.9558C134.716 81.1773 132.342 80.638 130.028 80.3378C127.714 80.0376 125.165 79.8875 122.382 79.8875C117.871 79.8875 113.467 80.4402 109.171 81.5456C104.874 82.651 100.863 84.1928 97.1399 86.1709ZM45.5844 111.977C51.6793 111.977 57.6067 112.677 63.3665 114.078C69.1263 115.479 74.8349 117.759 80.4923 120.918V52.4184C75.4528 48.8194 69.8989 46.1204 63.8308 44.3215C57.7614 42.5226 51.6793 41.6231 45.5844 41.6231C41.3954 41.6231 37.7278 41.8739 34.5814 42.3754C31.435 42.8769 27.9419 43.8078 24.102 45.168C23.028 45.5264 22.2676 46.0413 21.8208 46.7127C21.3728 47.3829 21.1488 48.1212 21.1488 48.9276V111.868C21.1488 113.122 21.5962 114.039 22.491 114.621C23.3858 115.203 24.3708 115.27 25.446 114.823C27.9966 113.963 30.9434 113.274 34.2864 112.755C37.6294 112.236 41.3954 111.977 45.5844 111.977ZM87.4739 120.918C93.1313 117.759 98.8399 115.479 104.6 114.078C110.36 112.677 116.287 111.977 122.382 111.977C126.571 111.977 130.337 112.236 133.68 112.755C137.023 113.274 139.97 113.963 142.52 114.823C143.595 115.27 144.58 115.203 145.475 114.621C146.37 114.039 146.817 113.122 146.817 111.868V48.9276C146.817 48.1212 146.593 47.405 146.145 46.779C145.699 46.153 144.938 45.616 143.864 45.168C140.024 43.8078 136.531 42.8769 133.385 42.3754C130.238 41.8739 126.571 41.6231 122.382 41.6231C116.287 41.6231 110.205 42.5226 104.135 44.3215C98.0673 46.1204 92.5135 48.8194 87.4739 52.4184V120.918ZM83.9831 131.042C78.3083 127.156 72.2127 124.171 65.6966 122.086C59.1804 120.001 52.4764 118.958 45.5844 118.958C41.9505 118.958 38.3811 119.262 34.8764 119.871C31.3728 120.48 27.9605 121.455 24.6396 122.798C22.1065 123.809 19.7281 123.505 17.5044 121.885C15.2796 120.265 14.1672 118.028 14.1672 115.172V47.6919C14.1672 45.9639 14.6216 44.3617 15.5304 42.885C16.4392 41.4084 17.7121 40.3792 19.3493 39.7974C23.4487 37.9892 27.7138 36.6778 32.1448 35.8633C36.5758 35.0488 41.0557 34.6415 45.5844 34.6415C52.4228 34.6415 59.0932 35.6259 65.5954 37.5947C72.0987 39.5647 78.228 42.4295 83.9831 46.1891C89.7383 42.4295 95.8675 39.5647 102.371 37.5947C108.873 35.6259 115.543 34.6415 122.382 34.6415C126.911 34.6415 131.39 35.0488 135.821 35.8633C140.252 36.6778 144.518 37.9892 148.617 39.7974C150.254 40.3792 151.527 41.4084 152.436 42.885C153.345 44.3617 153.799 45.9639 153.799 47.6919V115.172C153.799 118.028 152.598 120.221 150.195 121.751C147.791 123.281 145.233 123.54 142.52 122.529C139.29 121.276 135.99 120.367 132.619 119.803C129.249 119.24 125.837 118.958 122.382 118.958C115.49 118.958 108.786 120.001 102.27 122.086C95.7535 124.171 89.658 127.156 83.9831 131.042Z" fill="#003B50"/>
</g>
</g>
</svg>
