<svg width="136" height="42" viewBox="0 0 136 42" fill="none" xmlns="http://www.w3.org/2000/svg">
<path d="M50.1051 12.25H48.2441V3.32932H53.3573V4.87915H50.1051V7.17949H53.1315V8.72322H50.1051V12.25ZM63.293 7.77746C63.293 8.46491 63.2076 9.09135 63.0368 9.65678C62.8659 10.2181 62.6056 10.7022 62.2557 11.109C61.91 11.5158 61.4707 11.829 60.9378 12.0486C60.4049 12.2642 59.7744 12.372 59.0463 12.372C58.3181 12.372 57.6876 12.2642 57.1547 12.0486C56.6218 11.829 56.1805 11.5158 55.8307 11.109C55.4849 10.7022 55.2266 10.2161 55.0557 9.65068C54.8849 9.08525 54.7995 8.45678 54.7995 7.76525C54.7995 6.84186 54.95 6.03847 55.251 5.35508C55.5561 4.66762 56.0239 4.13474 56.6544 3.75644C57.2849 3.37813 58.0863 3.18898 59.0585 3.18898C60.0266 3.18898 60.8218 3.37813 61.4442 3.75644C62.0707 4.13474 62.5344 4.66762 62.8354 5.35508C63.1405 6.04254 63.293 6.85 63.293 7.77746ZM56.7825 7.77746C56.7825 8.39983 56.8598 8.93678 57.0144 9.3883C57.173 9.83576 57.4191 10.1815 57.7527 10.4256C58.0863 10.6656 58.5174 10.7856 59.0463 10.7856C59.5832 10.7856 60.0185 10.6656 60.352 10.4256C60.6856 10.1815 60.9276 9.83576 61.0781 9.3883C61.2327 8.93678 61.31 8.39983 61.31 7.77746C61.31 6.84186 61.1351 6.10559 60.7852 5.56864C60.4354 5.03169 59.8598 4.76322 59.0585 4.76322C58.5256 4.76322 58.0903 4.88525 57.7527 5.12932C57.4191 5.36932 57.173 5.71508 57.0144 6.16661C56.8598 6.61407 56.7825 7.15102 56.7825 7.77746ZM67.8349 3.32932C68.6444 3.32932 69.3115 3.42695 69.8362 3.6222C70.3651 3.81745 70.7576 4.11237 71.0139 4.50695C71.2701 4.90152 71.3983 5.39983 71.3983 6.00186C71.3983 6.40864 71.321 6.76457 71.1664 7.06966C71.0118 7.37474 70.8085 7.63305 70.5562 7.84457C70.304 8.0561 70.0315 8.22898 69.7386 8.36322L72.3624 12.25H70.2634L68.1339 8.82695H67.1271V12.25H65.2356V3.32932H67.8349ZM67.7007 4.87915H67.1271V7.28932H67.7373C68.3637 7.28932 68.8112 7.18559 69.0796 6.97813C69.3522 6.76661 69.4885 6.45746 69.4885 6.05068C69.4885 5.62762 69.342 5.32661 69.0491 5.14762C68.7603 4.96864 68.3108 4.87915 67.7007 4.87915ZM80.8398 3.32932V9.10152C80.8398 9.71576 80.7035 10.271 80.431 10.7673C80.1625 11.2595 79.7537 11.65 79.2046 11.9388C78.6595 12.2276 77.972 12.372 77.1422 12.372C75.9625 12.372 75.0635 12.071 74.4452 11.469C73.8269 10.8669 73.5178 10.0697 73.5178 9.07712V3.32932H75.4032V8.79034C75.4032 9.52661 75.5537 10.0432 75.8547 10.3402C76.1557 10.6371 76.6012 10.7856 77.191 10.7856C77.6059 10.7856 77.9415 10.7144 78.1978 10.572C78.4581 10.4297 78.6493 10.21 78.7713 9.91305C78.8934 9.6161 78.9544 9.2378 78.9544 8.77813V3.32932H80.8398ZM86.8949 12.25L84.7471 5.25135H84.6922C84.7003 5.41813 84.7125 5.67034 84.7288 6.00796C84.7491 6.34152 84.7674 6.69746 84.7837 7.07576C84.8 7.45407 84.8081 7.79576 84.8081 8.10085V12.25H83.1179V3.32932H85.6928L87.804 10.151H87.8406L90.08 3.32932H92.6549V12.25H90.8915V8.02763C90.8915 7.74695 90.8956 7.42356 90.9037 7.05746C90.9159 6.69135 90.9301 6.34356 90.9464 6.01407C90.9627 5.68051 90.9749 5.43034 90.983 5.26356H90.9281L88.6278 12.25H86.8949ZM100.201 12.25H98.34V3.32932H103.453V4.87915H100.201V7.17949H103.227V8.72322H100.201V12.25ZM113.389 7.77746C113.389 8.46491 113.304 9.09135 113.133 9.65678C112.962 10.2181 112.701 10.7022 112.352 11.109C112.006 11.5158 111.567 11.829 111.034 12.0486C110.501 12.2642 109.87 12.372 109.142 12.372C108.414 12.372 107.784 12.2642 107.251 12.0486C106.718 11.829 106.276 11.5158 105.927 11.109C105.581 10.7022 105.322 10.2161 105.152 9.65068C104.981 9.08525 104.895 8.45678 104.895 7.76525C104.895 6.84186 105.046 6.03847 105.347 5.35508C105.652 4.66762 106.12 4.13474 106.75 3.75644C107.381 3.37813 108.182 3.18898 109.154 3.18898C110.122 3.18898 110.918 3.37813 111.54 3.75644C112.167 4.13474 112.63 4.66762 112.931 5.35508C113.236 6.04254 113.389 6.85 113.389 7.77746ZM106.878 7.77746C106.878 8.39983 106.956 8.93678 107.11 9.3883C107.269 9.83576 107.515 10.1815 107.849 10.4256C108.182 10.6656 108.613 10.7856 109.142 10.7856C109.679 10.7856 110.114 10.6656 110.448 10.4256C110.781 10.1815 111.024 9.83576 111.174 9.3883C111.329 8.93678 111.406 8.39983 111.406 7.77746C111.406 6.84186 111.231 6.10559 110.881 5.56864C110.531 5.03169 109.956 4.76322 109.154 4.76322C108.621 4.76322 108.186 4.88525 107.849 5.12932C107.515 5.36932 107.269 5.71508 107.11 6.16661C106.956 6.61407 106.878 7.15102 106.878 7.77746ZM117.931 3.32932C118.74 3.32932 119.407 3.42695 119.932 3.6222C120.461 3.81745 120.854 4.11237 121.11 4.50695C121.366 4.90152 121.494 5.39983 121.494 6.00186C121.494 6.40864 121.417 6.76457 121.262 7.06966C121.108 7.37474 120.904 7.63305 120.652 7.84457C120.4 8.0561 120.127 8.22898 119.835 8.36322L122.458 12.25H120.359L118.23 8.82695H117.223V12.25H115.331V3.32932H117.931ZM117.797 4.87915H117.223V7.28932H117.833C118.46 7.28932 118.907 7.18559 119.176 6.97813C119.448 6.76661 119.584 6.45746 119.584 6.05068C119.584 5.62762 119.438 5.32661 119.145 5.14762C118.856 4.96864 118.407 4.87915 117.797 4.87915ZM50.8434 16.3293C51.6529 16.3293 52.32 16.4269 52.8447 16.6222C53.3735 16.8175 53.7661 17.1124 54.0224 17.5069C54.2786 17.9015 54.4068 18.3998 54.4068 19.0019C54.4068 19.4086 54.3295 19.7646 54.1749 20.0697C54.0203 20.3747 53.8169 20.633 53.5647 20.8446C53.3125 21.0561 53.04 21.229 52.7471 21.3632L55.3708 25.25H53.2718L51.1424 21.8269H50.1356V25.25H48.2441V16.3293H50.8434ZM50.7091 17.8791H50.1356V20.2893H50.7457C51.3722 20.2893 51.8196 20.1856 52.0881 19.9781C52.3607 19.7666 52.4969 19.4575 52.4969 19.0507C52.4969 18.6276 52.3505 18.3266 52.0576 18.1476C51.7688 17.9686 51.3193 17.8791 50.7091 17.8791ZM61.7249 25.25H56.5873V16.3293H61.7249V17.8791H58.4788V19.8378H61.4991V21.3876H58.4788V23.688H61.7249V25.25ZM68.9515 22.7727C68.9515 23.3015 68.8234 23.7612 68.5671 24.1517C68.3108 24.5422 67.9366 24.8432 67.4444 25.0547C66.9562 25.2663 66.3623 25.372 65.6627 25.372C65.3535 25.372 65.0505 25.3517 64.7535 25.311C64.4607 25.2703 64.1779 25.2114 63.9054 25.1341C63.6369 25.0527 63.3807 24.9531 63.1366 24.8351V23.0778C63.5596 23.2649 63.999 23.4337 64.4546 23.5842C64.9101 23.7347 65.3617 23.81 65.8091 23.81C66.1183 23.81 66.3664 23.7693 66.5535 23.688C66.7447 23.6066 66.883 23.4947 66.9684 23.3524C67.0539 23.21 67.0966 23.0473 67.0966 22.8642C67.0966 22.6405 67.0213 22.4493 66.8708 22.2907C66.7203 22.132 66.5129 21.9836 66.2484 21.8453C65.9881 21.7069 65.6932 21.5585 65.3637 21.3998C65.1562 21.3022 64.9305 21.1842 64.6864 21.0459C64.4423 20.9036 64.2105 20.7307 63.9908 20.5273C63.7712 20.3239 63.5901 20.0778 63.4478 19.789C63.3095 19.4961 63.2403 19.1463 63.2403 18.7395C63.2403 18.2066 63.3623 17.751 63.6064 17.3727C63.8505 16.9944 64.1983 16.7056 64.6498 16.5063C65.1054 16.3029 65.6423 16.2012 66.2607 16.2012C66.7244 16.2012 67.1657 16.2561 67.5847 16.3659C68.0078 16.4717 68.4491 16.6263 68.9088 16.8297L68.2986 18.3002C67.8878 18.1334 67.5196 18.0053 67.1942 17.9158C66.8688 17.8222 66.5373 17.7754 66.1996 17.7754C65.9637 17.7754 65.7623 17.8141 65.5956 17.8914C65.4288 17.9646 65.3027 18.0703 65.2173 18.2086C65.1318 18.3429 65.0891 18.4995 65.0891 18.6785C65.0891 18.89 65.1501 19.069 65.2722 19.2154C65.3983 19.3578 65.5854 19.4961 65.8335 19.6303C66.0857 19.7646 66.399 19.9212 66.7732 20.1002C67.2288 20.3158 67.6173 20.5415 67.9386 20.7775C68.264 21.0093 68.5142 21.2839 68.6891 21.6012C68.864 21.9144 68.9515 22.3049 68.9515 22.7727ZM73.5117 16.3293C74.6629 16.3293 75.5029 16.5775 76.0317 17.0737C76.5605 17.5659 76.8249 18.2453 76.8249 19.1117C76.8249 19.5022 76.7659 19.8764 76.6479 20.2344C76.53 20.5883 76.3368 20.9036 76.0683 21.1802C75.8039 21.4568 75.45 21.6764 75.0066 21.8392C74.5632 21.9978 74.0161 22.0771 73.3652 22.0771H72.5537V25.25H70.6622V16.3293H73.5117ZM73.414 17.8791H72.5537V20.5273H73.1761C73.53 20.5273 73.8371 20.4805 74.0974 20.3869C74.3578 20.2934 74.5591 20.1469 74.7015 19.9476C74.8439 19.7483 74.9151 19.492 74.9151 19.1788C74.9151 18.7395 74.793 18.4141 74.549 18.2025C74.3049 17.9869 73.9266 17.8791 73.414 17.8791ZM86.6996 20.7775C86.6996 21.4649 86.6142 22.0914 86.4434 22.6568C86.2725 23.2181 86.0122 23.7022 85.6623 24.109C85.3166 24.5158 84.8773 24.829 84.3444 25.0486C83.8115 25.2642 83.181 25.372 82.4528 25.372C81.7247 25.372 81.0942 25.2642 80.5613 25.0486C80.0284 24.829 79.5871 24.5158 79.2373 24.109C78.8915 23.7022 78.6332 23.2161 78.4623 22.6507C78.2915 22.0853 78.2061 21.4568 78.2061 20.7653C78.2061 19.8419 78.3566 19.0385 78.6576 18.3551C78.9627 17.6676 79.4305 17.1347 80.061 16.7564C80.6915 16.3781 81.4928 16.189 82.4651 16.189C83.4332 16.189 84.2284 16.3781 84.8508 16.7564C85.4773 17.1347 85.941 17.6676 86.242 18.3551C86.5471 19.0425 86.6996 19.85 86.6996 20.7775ZM80.1891 20.7775C80.1891 21.3998 80.2664 21.9368 80.421 22.3883C80.5796 22.8358 80.8257 23.1815 81.1593 23.4256C81.4928 23.6656 81.924 23.7856 82.4528 23.7856C82.9898 23.7856 83.4251 23.6656 83.7586 23.4256C84.0922 23.1815 84.3342 22.8358 84.4847 22.3883C84.6393 21.9368 84.7166 21.3998 84.7166 20.7775C84.7166 19.8419 84.5417 19.1056 84.1918 18.5686C83.842 18.0317 83.2664 17.7632 82.4651 17.7632C81.9322 17.7632 81.4969 17.8853 81.1593 18.1293C80.8257 18.3693 80.5796 18.7151 80.421 19.1666C80.2664 19.6141 80.1891 20.151 80.1891 20.7775ZM96.5561 25.25H94.152L90.2713 18.5015H90.2164C90.2327 18.7822 90.2469 19.0649 90.2591 19.3497C90.2713 19.6344 90.2835 19.9192 90.2957 20.2039C90.3079 20.4846 90.3201 20.7673 90.3323 21.052V25.25H88.6422V16.3293H91.0279L94.9025 23.0107H94.9452C94.9371 22.7341 94.9269 22.4595 94.9147 22.1869C94.9025 21.9144 94.8903 21.6419 94.8781 21.3693C94.87 21.0968 94.8618 20.8242 94.8537 20.5517V16.3293H96.5561V25.25ZM104.167 22.7727C104.167 23.3015 104.039 23.7612 103.783 24.1517C103.526 24.5422 103.152 24.8432 102.66 25.0547C102.172 25.2663 101.578 25.372 100.878 25.372C100.569 25.372 100.266 25.3517 99.9691 25.311C99.6762 25.2703 99.3935 25.2114 99.121 25.1341C98.8525 25.0527 98.5962 24.9531 98.3522 24.8351V23.0778C98.7752 23.2649 99.2145 23.4337 99.6701 23.5842C100.126 23.7347 100.577 23.81 101.025 23.81C101.334 23.81 101.582 23.7693 101.769 23.688C101.96 23.6066 102.099 23.4947 102.184 23.3524C102.269 23.21 102.312 23.0473 102.312 22.8642C102.312 22.6405 102.237 22.4493 102.086 22.2907C101.936 22.132 101.728 21.9836 101.464 21.8453C101.204 21.7069 100.909 21.5585 100.579 21.3998C100.372 21.3022 100.146 21.1842 99.902 21.0459C99.6579 20.9036 99.4261 20.7307 99.2064 20.5273C98.9867 20.3239 98.8057 20.0778 98.6633 19.789C98.525 19.4961 98.4559 19.1463 98.4559 18.7395C98.4559 18.2066 98.5779 17.751 98.822 17.3727C99.0661 16.9944 99.4139 16.7056 99.8654 16.5063C100.321 16.3029 100.858 16.2012 101.476 16.2012C101.94 16.2012 102.381 16.2561 102.8 16.3659C103.223 16.4717 103.665 16.6263 104.124 16.8297L103.514 18.3002C103.103 18.1334 102.735 18.0053 102.41 17.9158C102.084 17.8222 101.753 17.7754 101.415 17.7754C101.179 17.7754 100.978 17.8141 100.811 17.8914C100.644 17.9646 100.518 18.0703 100.433 18.2086C100.347 18.3429 100.305 18.4995 100.305 18.6785C100.305 18.89 100.366 19.069 100.488 19.2154C100.614 19.3578 100.801 19.4961 101.049 19.6303C101.301 19.7646 101.615 19.9212 101.989 20.1002C102.444 20.3158 102.833 20.5415 103.154 20.7775C103.48 21.0093 103.73 21.2839 103.905 21.6012C104.08 21.9144 104.167 22.3049 104.167 22.7727ZM105.878 25.25V16.3293H107.769V25.25H105.878ZM110.108 16.3293H112.885C114.072 16.3293 114.971 16.4961 115.582 16.8297C116.192 17.1632 116.497 17.749 116.497 18.5869C116.497 18.9246 116.442 19.2297 116.332 19.5022C116.226 19.7747 116.072 19.9985 115.868 20.1734C115.665 20.3483 115.417 20.4622 115.124 20.5151V20.5761C115.421 20.6371 115.689 20.7429 115.929 20.8934C116.169 21.0398 116.361 21.2554 116.503 21.5402C116.649 21.8208 116.723 22.1951 116.723 22.6629C116.723 23.2039 116.59 23.6676 116.326 24.0541C116.062 24.4405 115.683 24.7375 115.191 24.9449C114.703 25.1483 114.121 25.25 113.446 25.25H110.108V16.3293ZM112 19.8622H113.098C113.647 19.8622 114.028 19.7768 114.239 19.6059C114.451 19.431 114.557 19.1747 114.557 18.8371C114.557 18.4954 114.43 18.2514 114.178 18.1049C113.93 17.9544 113.536 17.8791 112.995 17.8791H112V19.8622ZM112 21.3632V23.688H113.232C113.802 23.688 114.199 23.5781 114.422 23.3585C114.646 23.1388 114.758 22.8439 114.758 22.4737C114.758 22.2541 114.709 22.0608 114.611 21.8941C114.514 21.7273 114.349 21.5971 114.117 21.5036C113.889 21.41 113.574 21.3632 113.171 21.3632H112ZM118.598 25.25V16.3293H120.49V23.688H124.108V25.25H118.598ZM130.895 25.25H125.758V16.3293H130.895V17.8791H127.649V19.8378H130.669V21.3876H127.649V23.688H130.895V25.25ZM48.2441 39.25V30.3293H50.1356V37.688H53.7539V39.25H48.2441ZM55.4035 39.25V30.3293H57.2951V39.25H55.4035ZM66.6329 30.3293L63.6003 39.25H61.5379L58.5115 30.3293H60.4213L62.0993 35.6378C62.1278 35.7273 62.1745 35.8961 62.2396 36.1442C62.3047 36.3883 62.3698 36.6486 62.4349 36.9253C62.504 37.1978 62.5508 37.4236 62.5752 37.6025C62.5996 37.4236 62.6423 37.1978 62.7034 36.9253C62.7684 36.6527 62.8315 36.3944 62.8925 36.1503C62.9576 35.9022 63.0044 35.7314 63.0329 35.6378L64.723 30.3293H66.6329ZM67.8554 39.25V30.3293H69.7469V39.25H67.8554ZM80 39.25H77.5959L73.7152 32.5015H73.6603C73.6766 32.7822 73.6908 33.0649 73.703 33.3497C73.7152 33.6344 73.7274 33.9192 73.7396 34.2039C73.7518 34.4846 73.764 34.7673 73.7762 35.052V39.25H72.0861V30.3293H74.4718L78.3464 37.0107H78.3891C78.381 36.7341 78.3708 36.4595 78.3586 36.1869C78.3464 35.9144 78.3342 35.6419 78.322 35.3693C78.3139 35.0968 78.3057 34.8242 78.2976 34.5517V30.3293H80V39.25ZM85.7317 34.2405H89.2706V38.8656C88.8028 39.0202 88.3167 39.1442 87.8123 39.2378C87.3079 39.3273 86.7364 39.372 86.0978 39.372C85.211 39.372 84.4584 39.1971 83.8401 38.8473C83.2218 38.4975 82.752 37.9808 82.4306 37.2975C82.1093 36.6141 81.9486 35.7741 81.9486 34.7775C81.9486 33.8419 82.1276 33.0324 82.4856 32.349C82.8476 31.6656 83.3744 31.1368 84.0659 30.7625C84.7615 30.3883 85.6096 30.2012 86.6103 30.2012C87.0822 30.2012 87.5479 30.252 88.0076 30.3537C88.4673 30.4554 88.8842 30.5876 89.2584 30.7503L88.63 32.2636C88.3574 32.1253 88.0462 32.0093 87.6964 31.9158C87.3466 31.8222 86.9805 31.7754 86.5981 31.7754C86.0489 31.7754 85.571 31.9015 85.1642 32.1537C84.7615 32.4059 84.4483 32.7598 84.2245 33.2154C84.0049 33.6669 83.895 34.1998 83.895 34.8141C83.895 35.3958 83.9744 35.9124 84.133 36.3639C84.2917 36.8114 84.5418 37.1632 84.8835 37.4195C85.2252 37.6717 85.6706 37.7978 86.2198 37.7978C86.4883 37.7978 86.714 37.7856 86.8971 37.7612C87.0842 37.7327 87.2591 37.7042 87.4218 37.6758V35.8147H85.7317V34.2405Z" fill="#0477A0"/>
<path fill-rule="evenodd" clip-rule="evenodd" d="M30.6621 9.41981C27.8003 6.49047 23.8103 4.67563 19.3953 4.67563C10.6965 4.67563 3.64475 11.7274 3.64475 20.4261C3.64475 21.4326 2.82884 22.2485 1.82237 22.2485C0.815903 22.2485 -4.39941e-08 21.4326 0 20.4261C4.68224e-07 9.71444 8.68355 1.03088 19.3953 1.03088C24.818 1.03088 29.7216 3.258 33.2394 6.84252L35.6664 4.41544V12.2256L27.8563 12.2256L30.6621 9.41981ZM8.38869 31.693L11.1946 28.8871L3.38442 28.8871L3.38442 36.6973L5.81143 34.2703C9.30882 37.702 14.105 39.8217 19.3953 39.8217C30.107 39.8217 38.7906 31.1381 38.7906 20.4264C38.7906 19.4199 37.9747 18.604 36.9682 18.604C35.9617 18.604 35.1458 19.4199 35.1458 20.4264C35.1458 29.1252 28.0941 36.1769 19.3953 36.1769C15.1126 36.1769 11.2297 34.4692 8.38869 31.693Z" fill="#0477A0"/>
</svg>
