<svg width="169" height="168" viewBox="0 0 169 168" fill="none" xmlns="http://www.w3.org/2000/svg">
<g id="comedy_mask">
<mask id="mask0_11_307" style="mask-type:alpha" maskUnits="userSpaceOnUse" x="0" y="0" width="169" height="168">
<rect id="Bounding box" x="0.775391" y="0.2771" width="167.558" height="167.558" fill="#D9D9D9"/>
</mask>
<g mask="url(#mask0_11_307)">
<path id="comedy_mask_2" d="M84.5544 113.997C90.3549 113.997 95.4299 112.09 99.7795 108.277C104.13 104.464 106.663 99.6571 107.379 93.8566H61.5954C62.3122 99.6571 64.8675 104.464 69.2612 108.277C73.6561 112.09 78.7538 113.997 84.5544 113.997ZM53.6748 64.9912H76.2306C76.2306 61.8669 75.1094 59.1837 72.8672 56.9414C70.6249 54.6992 67.9417 53.578 64.8174 53.578C61.6943 53.578 59.0564 54.6992 56.9038 56.9414C54.7511 59.1837 53.6748 61.8669 53.6748 64.9912ZM92.8782 64.8568H115.434C115.434 61.7325 114.335 59.072 112.139 56.8751C109.941 54.6771 107.28 53.578 104.157 53.578C101.033 53.578 98.3721 54.6771 96.1752 56.8751C93.9772 59.072 92.8782 61.7325 92.8782 64.8568ZM84.5544 146.89C76.8118 146.89 69.555 145.412 62.784 142.454C56.013 139.495 50.0967 135.484 45.0351 130.423C39.9734 125.361 35.9858 119.4 33.0721 112.539C30.1585 105.679 28.7017 98.3771 28.7017 90.6346V21.2219H140.407V90.6346C140.407 98.3771 138.95 105.679 136.037 112.539C133.123 119.4 129.135 125.361 124.074 130.423C119.012 135.484 113.096 139.495 106.325 142.454C99.5537 145.412 92.2969 146.89 84.5544 146.89ZM84.5544 139.909C98.0521 139.909 109.572 135.116 119.113 125.53C128.655 115.943 133.425 104.311 133.425 90.6346V28.2035H35.6832V90.6346C35.6832 104.311 40.4319 115.943 49.9292 125.53C59.4253 135.116 70.967 139.909 84.5544 139.909Z" fill="#003B50"/>
</g>
</g>
</svg>
