<svg width="169" height="168" viewBox="0 0 169 168" fill="none" xmlns="http://www.w3.org/2000/svg">
<g id="emergency_recording">
<mask id="mask0_11_291" style="mask-type:alpha" maskUnits="userSpaceOnUse" x="0" y="0" width="169" height="168">
<rect id="Bounding box" x="0.734863" y="0.00238037" width="167.558" height="167.558" fill="#D9D9D9"/>
</mask>
<g mask="url(#mask0_11_291)">
<path id="emergency_recording_2" d="M70.4165 115.199H77.398V89.7821L100.626 103.169L103.982 97.1669L80.8888 83.7815L103.982 70.396L100.626 64.3936L77.398 77.7808V52.3643H70.4165V77.7808L47.3231 64.3936L43.8323 70.396L66.9257 83.7815L43.8323 97.1669L47.3231 103.169L70.4165 89.7821V115.199ZM36.3149 132.653C33.101 132.653 30.4178 131.576 28.2651 129.424C26.1125 127.271 25.0361 124.588 25.0361 121.374V46.1891C25.0361 42.9752 26.1125 40.292 28.2651 38.1393C30.4178 35.9867 33.101 34.9103 36.3149 34.9103H111.501C114.714 34.9103 117.397 35.9867 119.549 38.1393C121.702 40.292 122.778 42.9752 122.778 46.1891V78.6797L143.992 57.4661V110.097L122.778 88.8833V121.374C122.778 124.588 121.702 127.271 119.549 129.424C117.397 131.576 114.714 132.653 111.501 132.653H36.3149ZM36.3149 125.671H111.501C112.753 125.671 113.783 125.268 114.589 124.463C115.394 123.657 115.797 122.627 115.797 121.374V46.1891C115.797 44.9359 115.394 43.9061 114.589 43.0997C113.783 42.2945 112.753 41.8919 111.501 41.8919H36.3149C35.0617 41.8919 34.0319 42.2945 33.2255 43.0997C32.4203 43.9061 32.0177 44.9359 32.0177 46.1891V121.374C32.0177 122.627 32.4203 123.657 33.2255 124.463C34.0319 125.268 35.0617 125.671 36.3149 125.671Z" fill="#003B50"/>
</g>
</g>
</svg>
