<svg width="618" height="617" viewBox="0 0 618 617" fill="none" xmlns="http://www.w3.org/2000/svg">
<path d="M616.85 308.75C616.85 478.3 479.179 615.75 309.35 615.75C139.521 615.75 1.8501 478.3 1.8501 308.75C1.8501 139.2 139.521 1.75 309.35 1.75C479.179 1.75 616.85 139.2 616.85 308.75Z" stroke="#D5C9B0" stroke-width="2"/>
<g clip-path="url(#clip0_99_2)">
<path d="M422.325 265.098C430.996 259.128 436.151 248.736 435.608 238.202C435.585 237.634 434.7 237.634 434.724 238.202C435.255 248.416 430.3 258.536 421.877 264.33C421.405 264.649 421.853 265.417 422.325 265.098Z" fill="#D5C9B0"/>
<path d="M427.87 268.184C436.54 262.213 441.696 251.833 441.153 241.287C441.13 240.72 440.245 240.72 440.268 241.287C440.799 251.502 435.844 261.622 427.421 267.415C426.949 267.734 427.398 268.503 427.87 268.184Z" fill="#D5C9B0"/>
<path d="M238.325 266.375C241.888 270.631 246.205 274.19 251.054 276.885C251.55 277.157 251.998 276.4 251.502 276.117C246.725 273.457 242.466 269.933 238.95 265.736C238.585 265.299 237.959 265.926 238.325 266.363V266.375Z" fill="#D5C9B0"/>
<path d="M235.211 270.454C238.938 275.112 243.61 278.966 248.883 281.732C249.391 281.992 249.839 281.236 249.332 280.964C244.106 278.233 239.517 274.438 235.836 269.827C235.482 269.378 234.857 270.016 235.211 270.454Z" fill="#D5C9B0"/>
<path d="M372.447 151.874C372.447 151.874 373.65 150.928 372.86 149.616C372.376 148.812 368.011 147.192 361.995 147.689C361.995 147.689 363.847 147.086 366.926 146.376C368.153 146.093 369.733 146.577 371.102 145.88C373.025 144.899 369.061 142.782 365.51 143.374C361.959 143.965 356.179 147.405 352.12 149.923C351.672 150.195 351.153 150.55 350.587 150.94L345.384 154.026L348.357 161.119C350.469 160.114 352.958 160.422 354.716 160.28C357.535 160.055 359.529 157.513 360.768 157.549C364.071 157.643 369.769 160.232 370.477 158.447C371.185 156.662 364.649 154.64 364.649 154.64C364.649 154.64 371.904 155.941 372.518 154.262C373.367 151.933 372.447 151.874 372.447 151.874Z" fill="#A5827F"/>
<path d="M216.831 201.387C214.943 200.843 180.354 199.034 168.463 194.979C156.571 190.912 125.025 173.686 125.025 173.686C125.025 173.686 120.401 181.028 121.215 181.3C122.029 181.572 154.141 210.951 170.621 215.822C187.102 220.693 226.729 233.686 226.729 233.686L231.412 203.101L216.819 201.387H216.831Z" fill="#D5C9B0"/>
<path d="M367.15 170.412L393.894 226.557C385.801 237.457 339.25 232.633 315.478 232.208C291.707 231.782 285.761 238.308 285.761 238.308L268.195 272.759C284.711 293.046 390.886 283.848 420.426 249.563C422.844 246.761 424.047 243.108 423.729 239.42C423.316 234.702 421.818 226.947 417.24 215.491C408.746 194.222 384.138 168.697 379.041 161.888C377.26 159.499 367.162 170.4 367.162 170.4L367.15 170.412Z" fill="#263238"/>
<path d="M338.282 276.329C337.433 278.032 321.306 351.627 321.306 366.086C321.306 380.545 328.868 418.66 311.892 449.706C311.892 449.706 301.924 453.903 301.239 451.125C299.918 445.722 297.535 380.545 292.875 348.21C288.203 315.876 282.682 273.338 282.682 273.338L338.282 276.318V276.329Z" fill="#263238"/>
<path opacity="0.3" d="M283.508 279.711L285.761 296.77C285.761 296.77 303.28 308.995 331.204 308.002L336.808 282.229C317.673 284.735 300.036 283.577 283.508 279.699V279.711Z" fill="black"/>
<path d="M316.599 453.099C316.599 453.099 320.268 433.923 319.82 433.119C319.371 432.315 298.656 433.119 298.656 433.119C298.656 433.119 300.838 453.773 300.98 454.967C301.109 456.043 307.704 458.514 311.668 457.828C315.632 457.143 316.599 453.111 316.599 453.111V453.099Z" fill="#A5827F"/>
<path d="M299.682 452.544C301.982 452.142 303.375 452.674 303.504 454.518C304.59 454.542 305.592 455.097 306.241 455.96C309.037 459.673 313.39 457.261 316.34 453.892C318.239 453.714 316.469 456.93 316.634 457.509L320.351 470.207C320.669 471.271 320.056 472.346 318.982 472.63C318.793 472.677 318.593 472.701 318.392 472.689C312.6 472.559 309.851 472.5 302.643 472.335L280.582 471.838C274.566 471.708 273.256 465.785 275.722 465.3C286.835 463.16 294.68 460.146 298.089 457.072C298.726 456.54 299.01 454.234 299.682 452.544Z" fill="#263238"/>
<path d="M280.217 470.23C284.275 471.259 290.091 467.818 295.293 467.937C300.496 468.043 300.449 470.088 309.521 470.963C318.593 471.838 319.902 468.622 319.902 468.622L320.362 470.218C320.681 471.282 320.067 472.358 318.994 472.642C318.805 472.689 318.605 472.713 318.404 472.701C312.612 472.571 309.863 472.512 302.655 472.346L280.594 471.85C277.385 471.779 275.533 470.065 274.861 468.398C275.521 468.729 277.197 469.462 280.229 470.23H280.217Z" fill="white"/>
<path d="M311.892 465.69C308.919 465.939 305.958 465.217 303.434 463.621C302.95 463.314 302.502 464.083 302.985 464.39C305.628 466.057 308.778 466.837 311.892 466.577C312.458 466.53 312.458 465.643 311.892 465.69Z" fill="white"/>
<path d="M297.24 461.257C296.662 460.488 296.096 459.708 295.518 458.94C295.376 458.751 295.128 458.644 294.916 458.786C294.727 458.904 294.609 459.188 294.763 459.389C295.341 460.157 295.907 460.938 296.485 461.706C296.627 461.895 296.874 462.002 297.087 461.86C297.275 461.742 297.393 461.458 297.24 461.257Z" fill="black"/>
<path d="M294.362 462.569C294.279 462.486 294.208 462.392 294.137 462.309C294.102 462.262 294.067 462.226 294.031 462.179C294.019 462.155 293.996 462.132 293.984 462.12C293.937 462.061 294.019 462.167 293.984 462.12C293.842 461.931 293.713 461.742 293.595 461.541C293.477 461.34 293.359 461.151 293.264 460.95C293.217 460.855 293.17 460.749 293.123 460.654C293.111 460.619 293.099 460.595 293.076 460.559C293.076 460.559 293.04 460.477 293.052 460.524C293.064 460.571 293.04 460.488 293.04 460.477C293.028 460.441 293.017 460.418 293.005 460.382C292.922 460.169 292.71 459.992 292.462 460.075C292.25 460.146 292.061 460.394 292.155 460.619C292.533 461.576 293.064 462.439 293.76 463.196C293.913 463.373 294.232 463.361 294.385 463.196C294.55 463.007 294.55 462.747 294.385 462.569H294.362Z" fill="black"/>
<path d="M291.33 463.893C291.247 463.811 291.176 463.716 291.106 463.633C291.07 463.586 291.035 463.551 290.999 463.503C290.988 463.48 290.964 463.456 290.952 463.444C290.905 463.385 290.988 463.491 290.952 463.444C290.811 463.255 290.681 463.066 290.563 462.865C290.445 462.664 290.327 462.475 290.233 462.274C290.185 462.179 290.138 462.073 290.091 461.978C290.079 461.943 290.067 461.919 290.044 461.884C290.044 461.884 290.008 461.801 290.02 461.836C290.032 461.872 290.008 461.801 290.008 461.789C289.997 461.753 289.985 461.73 289.973 461.694C289.89 461.482 289.678 461.304 289.43 461.387C289.218 461.458 289.029 461.706 289.124 461.931C289.501 462.888 290.032 463.751 290.728 464.508C290.881 464.685 291.2 464.674 291.353 464.508C291.518 464.319 291.518 464.059 291.353 463.882L291.33 463.893Z" fill="black"/>
<path d="M366.336 171.18C366.336 171.18 374.382 188.961 375.219 189.363C376.057 189.765 392.502 177.127 392.502 177.127C392.502 177.127 378.829 161.533 378.015 160.634C377.295 159.83 367.221 158.932 364.378 161.781C361.534 164.63 366.324 171.18 366.324 171.18H366.336Z" fill="#A5827F"/>
<path d="M379.265 161.852C377.626 163.507 376.174 163.886 375.007 162.455C374.11 163.058 372.977 163.188 371.951 162.857C367.527 161.438 365.368 165.931 364.896 170.388C363.445 171.629 363.032 167.988 362.572 167.61L352.226 159.393C351.353 158.719 351.235 157.478 351.955 156.627C352.085 156.473 352.238 156.343 352.403 156.236C357.205 152.985 359.482 151.448 365.463 147.417L383.76 135.062C388.75 131.693 393.233 135.772 391.499 137.592C383.666 145.774 378.982 152.772 377.968 157.253C377.755 158.057 378.852 160.102 379.277 161.876L379.265 161.852Z" fill="#263238"/>
<path d="M384.987 136.15C381.082 137.663 378.31 143.823 373.992 146.743C369.674 149.663 368.542 147.961 360.638 152.501C352.722 157.029 353.512 160.422 353.512 160.422L352.215 159.393C351.342 158.707 351.224 157.478 351.943 156.627C352.073 156.473 352.226 156.343 352.392 156.236C357.193 152.985 359.47 151.46 365.451 147.417L383.748 135.062C386.415 133.265 388.916 133.596 390.426 134.566C389.706 134.684 387.901 135.051 384.987 136.174V136.15Z" fill="white"/>
<path d="M361.794 158.128C364.035 156.236 366.867 155.125 369.792 154.971C370.359 154.936 370.359 154.049 369.792 154.085C366.619 154.25 363.599 155.456 361.169 157.501C360.732 157.868 361.357 158.495 361.794 158.128Z" fill="white"/>
<path d="M376.328 153.352C377.236 153.647 378.157 153.955 379.065 154.25C379.289 154.321 379.561 154.167 379.608 153.943C379.667 153.695 379.537 153.47 379.301 153.399C378.393 153.103 377.472 152.796 376.564 152.5C376.34 152.43 376.069 152.583 376.021 152.808C375.962 153.056 376.092 153.281 376.328 153.352Z" fill="black"/>
<path d="M377.791 150.573C378.015 150.621 378.227 150.68 378.452 150.751C378.676 150.822 378.923 150.916 379.077 150.975C379.124 150.999 379.277 151.058 379.36 151.105C379.466 151.153 379.56 151.212 379.667 151.259C379.879 151.366 380.08 151.496 380.28 151.626C380.481 151.756 380.776 151.673 380.882 151.472C381 151.247 380.929 150.999 380.728 150.869C379.914 150.337 378.994 149.947 378.039 149.734C377.815 149.687 377.555 149.805 377.496 150.041C377.449 150.266 377.567 150.538 377.803 150.585L377.791 150.573Z" fill="black"/>
<path d="M379.513 147.748C379.737 147.795 379.95 147.854 380.174 147.925C380.398 147.996 380.646 148.091 380.799 148.15C380.846 148.173 381 148.233 381.082 148.28C381.188 148.327 381.283 148.386 381.389 148.434C381.601 148.54 381.802 148.67 382.002 148.8C382.203 148.93 382.498 148.847 382.604 148.646C382.722 148.422 382.651 148.173 382.451 148.043C381.637 147.511 380.717 147.121 379.761 146.908C379.537 146.861 379.277 146.979 379.218 147.216C379.171 147.44 379.289 147.712 379.525 147.76L379.513 147.748Z" fill="black"/>
<path d="M284.865 234.702C284.865 234.702 275.486 233.118 272.49 227.763C269.481 222.407 263.477 196.539 263.477 196.539L248.6 183.83C248.6 183.83 240.531 188.134 240.319 188.169L217.751 201.777C217.751 201.777 209.292 225.008 221.396 241.252C229.206 251.739 263.913 277.677 269.67 273.303C275.427 268.928 288.133 239.325 284.877 234.702H284.865Z" fill="#D5C9B0"/>
<path d="M277.043 278.457C284.24 280.668 291.731 281.898 299.198 282.737C308.671 283.801 318.262 284.12 327.783 283.541C333.091 283.222 338.388 282.595 343.603 281.59C344.157 281.484 343.921 280.633 343.367 280.739C325.482 284.191 306.465 283.588 288.593 280.314C284.782 279.616 280.984 278.765 277.279 277.618C276.737 277.453 276.501 278.304 277.043 278.469V278.457Z" fill="black"/>
<path d="M119.717 170.4C119.08 169.962 118.502 169.572 117.994 169.265C113.464 166.463 106.999 162.609 103.036 161.947C99.0718 161.285 94.6479 163.649 96.7832 164.749C98.3168 165.529 100.075 164.985 101.455 165.304C104.888 166.096 106.964 166.77 106.964 166.77C100.24 166.215 95.3675 168.023 94.8248 168.922C93.9401 170.388 95.2849 171.44 95.2849 171.44C95.2849 171.44 94.2586 171.511 95.2023 174.112C95.8866 175.992 103.991 174.538 103.991 174.538C103.991 174.538 96.6888 176.808 97.4792 178.794C98.2696 180.78 104.64 177.895 108.333 177.789C109.713 177.753 111.942 180.591 115.092 180.839C117.051 180.993 119.847 180.65 122.194 181.773L125.521 173.84L119.705 170.388L119.717 170.4Z" fill="#A5827F"/>
<path d="M248.73 183.606C248.73 183.606 257.26 176.938 279.58 172.031C301.912 167.125 343.036 152.11 345.986 153.576C348.935 155.042 350.268 161.261 350.268 161.261C350.268 161.261 326.273 175.885 308.766 181.182C291.259 186.478 268.054 193.702 263.984 201.434C259.914 209.166 248.73 183.594 248.73 183.594V183.606Z" fill="#D5C9B0"/>
<path d="M236.756 134.424C240.814 133.242 245.439 134.306 248.612 137.155C250.11 138.491 251.337 140.229 253.166 141.033C255.136 141.896 257.413 141.494 259.43 140.761C261.447 140.028 263.359 138.976 265.447 138.526C268.998 137.77 272.891 138.916 275.51 141.506C276.772 142.747 277.775 144.509 277.421 146.246C277.149 147.571 276.159 148.623 275.109 149.462C272.395 151.637 269.057 152.973 265.612 153.257C268.443 153.092 270.991 155.799 271.145 158.684C271.298 161.568 269.422 164.311 266.921 165.659C264.409 167.007 261.4 167.113 258.616 166.522C255.832 165.931 253.225 164.678 250.665 163.413C251.939 164.134 251.609 166.297 250.382 167.089C249.155 167.882 247.562 167.669 246.147 167.302C242.725 166.404 239.104 164.098 238.75 160.528L231.447 140.891C230.999 137.841 233.842 135.263 236.756 134.412V134.424Z" fill="#263238"/>
<path d="M194.404 148.788C194.263 148.836 188.919 149.332 190.452 158.223C191.986 167.113 204.727 184.409 204.703 184.575C204.68 184.729 199.914 155.362 199.914 155.362L194.404 148.788Z" fill="#263238"/>
<path d="M219.78 187.259C220.087 187.625 225.148 195.629 224.334 197.993C223.909 199.223 222.611 201.457 222.611 201.457C222.611 201.457 224.169 206.931 229.489 203.16C234.798 199.389 241.959 187.826 241.959 187.826L238.502 188.76C238.502 188.76 230.433 182.423 231.506 171.334C231.896 167.255 219.768 187.259 219.768 187.259H219.78Z" fill="#A5827F"/>
<path opacity="0.2" d="M219.674 187.081L230.35 173.143C231.247 174.632 231.589 176.406 231.306 178.132C230.633 183.665 227.141 189.079 222.989 193.052C222.104 190.995 221.007 189.056 219.674 187.081Z" fill="black"/>
<path d="M229.524 154.262C232.639 167.078 234.243 172.421 230.103 180.792C223.885 193.383 208.054 194.305 201.306 182.636C195.23 172.15 191.148 152.962 201.471 144.308C211.805 135.653 226.469 141.435 229.524 154.262Z" fill="#A5827F"/>
<path d="M214.589 163.294C215.203 164.559 215.108 165.931 214.365 166.368C213.622 166.806 212.525 166.132 211.911 164.879C211.298 163.614 211.392 162.242 212.135 161.805C212.879 161.367 213.976 162.029 214.589 163.294Z" fill="#263238"/>
<path d="M203.04 168.035C203.63 169.265 203.524 170.601 202.78 171.038C202.037 171.476 200.964 170.837 200.362 169.608C199.772 168.378 199.878 167.03 200.621 166.605C201.365 166.167 202.438 166.806 203.04 168.035Z" fill="#263238"/>
<path d="M213.728 157.431C213.587 157.525 213.421 157.572 213.244 157.525C210.578 156.839 208.915 158.53 208.903 158.554C208.655 158.802 208.266 158.802 208.03 158.53C207.794 158.258 207.806 157.832 208.054 157.584C208.136 157.49 210.224 155.373 213.528 156.225C213.858 156.307 214.058 156.674 213.976 157.029C213.94 157.206 213.834 157.348 213.716 157.442L213.728 157.431Z" fill="#263238"/>
<path d="M197.554 163.011C197.413 163.011 197.283 162.952 197.177 162.833C196.964 162.585 196.988 162.171 197.212 161.923C199.501 159.346 202.002 159.854 202.108 159.878C202.403 159.949 202.592 160.28 202.509 160.634C202.426 160.989 202.131 161.214 201.825 161.155C201.73 161.131 199.784 160.764 197.955 162.822C197.837 162.952 197.684 163.023 197.542 163.023L197.554 163.011Z" fill="#263238"/>
<path d="M207.145 165.174C207.145 165.174 207.747 170.53 207.216 174.384C207.122 175.058 207.723 175.625 208.384 175.519C210.083 175.259 211.463 173.852 211.463 173.852L207.145 165.174Z" fill="#7E5653"/>
<path d="M212.312 161.698L209.351 162.538C209.351 162.538 212.961 163.555 212.312 161.698Z" fill="#263238"/>
<path d="M200.893 166.487L197.932 167.326C197.932 167.326 200.456 168.508 200.893 166.487Z" fill="#263238"/>
<path d="M233.193 181.052C229.914 179.196 229.465 171.677 230.669 166.522C224.44 168.378 199.583 148.221 199.583 148.221C199.583 148.221 198.179 145.407 199.855 149.037L194.286 151.578C189.308 146.755 198.415 139.709 198.415 139.709C222.47 123.866 236.143 144.65 236.143 144.65C238.054 147.902 240.803 151.697 241.015 158.045C241.109 160.906 240.519 166.853 237.924 172.906L233.182 181.052H233.193Z" fill="#263238"/>
<path d="M236.166 162.384C236.119 165.529 234.751 168.26 233.028 169.903C230.433 172.374 226.162 168.295 225.513 164.63C224.924 161.332 226.882 157.821 230.15 156.78C233.37 155.752 236.213 158.79 236.166 162.384Z" fill="#A5827F"/>
<g opacity="0.2">
<path d="M229.253 165.233C228.274 163.058 229.218 160.481 231.341 159.428C231.849 159.18 231.4 158.412 230.893 158.66C229.725 159.239 228.817 160.256 228.333 161.474C227.802 162.833 227.896 164.358 228.486 165.683C228.722 166.203 229.477 165.754 229.253 165.233Z" fill="black"/>
</g>
<path d="M199.111 146.436C200.869 151.176 204.149 155.172 208.408 157.785C208.408 157.785 198.262 156.165 193.402 151.366L199.1 146.436H199.111Z" fill="#263238"/>
<g opacity="0.2">
<path d="M240.767 164.772C242.725 155.894 239.446 146.187 232.391 140.418C231.955 140.063 231.329 140.69 231.766 141.045C238.573 146.601 241.805 155.941 239.906 164.536C239.788 165.091 240.637 165.328 240.755 164.772H240.767Z" fill="black"/>
</g>
<path d="M215.854 177.163C214.914 178.615 213.413 179.819 211.587 179.657C211.023 179.6 210.908 180.487 211.477 180.533C213.606 180.733 215.429 179.433 216.557 177.714C216.692 177.514 216.685 177.255 216.484 177.093C216.311 176.957 216 176.967 215.865 177.167L215.854 177.163Z" fill="#7E5653"/>
<path d="M111.683 168.934C109.784 168.768 107.872 168.745 105.973 168.863C104.439 168.957 102.481 168.957 101.042 169.608C100.075 170.045 99.5908 171.003 100.075 172.008C100.712 173.332 102.34 173.474 103.625 173.592C104.522 173.675 105.43 173.698 106.327 173.663C107.294 173.627 108.38 173.308 109.335 173.391C110.291 173.474 110.739 174.195 111.329 174.869C111.789 175.401 112.308 175.874 112.886 176.276C115.104 177.812 118.006 178.214 120.554 177.34C121.085 177.15 120.861 176.299 120.318 176.488C118.018 177.28 115.47 176.949 113.452 175.59C112.462 174.928 111.907 173.958 111.034 173.19C110.09 172.35 109.04 172.516 107.872 172.646C106.398 172.812 104.911 172.835 103.437 172.681C102.693 172.611 101.632 172.54 101.089 171.937C100.122 170.861 101.49 170.317 102.292 170.163C105.36 169.584 108.568 169.549 111.671 169.809C112.237 169.856 112.237 168.969 111.671 168.922L111.683 168.934Z" fill="#263238"/>
<path d="M220.5 201.28C220.5 201.28 221.207 193.536 222.281 193.903C223.355 194.258 229.171 195.688 229.76 195.806C230.35 195.925 232.25 184.126 234.397 183.783C236.532 183.428 243.775 186.384 243.775 186.384C243.775 186.384 239.033 204.378 233.335 206.399C227.637 208.421 220.511 201.28 220.511 201.28H220.5Z" fill="#D5C9B0"/>
<path opacity="0.6" d="M220.5 201.28C220.5 201.28 221.207 193.536 222.281 193.903C223.355 194.258 229.171 195.688 229.76 195.806C230.35 195.925 232.25 184.126 234.397 183.783C236.532 183.428 243.775 186.384 243.775 186.384C243.775 186.384 239.033 204.378 233.335 206.399C227.637 208.421 220.511 201.28 220.511 201.28H220.5Z" fill="white"/>
<path d="M249.922 186.585C250.677 192.496 254.475 197.828 259.867 200.358C260.374 200.594 260.834 199.838 260.315 199.59C255.219 197.19 251.514 192.189 250.807 186.573C250.736 186.017 249.851 186.006 249.922 186.573V186.585Z" fill="black"/>
<path d="M214.46 210.797C213.87 215.29 213.999 219.841 214.625 224.334C215.073 227.538 215.698 230.813 216.866 233.839C217.067 234.371 217.928 234.135 217.716 233.603C216.583 230.694 215.97 227.55 215.521 224.464C214.872 219.948 214.743 215.337 215.333 210.797C215.403 210.23 214.519 210.242 214.448 210.797H214.46Z" fill="black"/>
<path d="M355.459 149.427C359.812 148.93 364.224 148.966 368.565 149.533C369.12 149.604 369.686 149.687 370.158 149.971C370.63 150.254 371.007 150.786 370.937 151.342C370.83 152.217 369.781 152.607 368.919 152.761C366.76 153.163 364.554 153.34 362.36 153.293C361.133 153.269 359.836 153.186 358.762 153.777C358.007 154.191 357.464 154.889 356.827 155.48C355.152 157.052 352.781 157.856 350.504 157.631" fill="#A5827F"/>
<path d="M307.881 562.919C327.779 562.919 343.909 546.753 343.909 526.813C343.909 506.872 327.779 490.707 307.881 490.707C287.983 490.707 271.853 506.872 271.853 526.813C271.853 546.753 287.983 562.919 307.881 562.919Z" fill="#D5C9B0"/>
<path opacity="0.3" d="M343.909 526.813C343.909 527.995 343.85 529.165 343.744 530.312C341.986 548.613 326.603 562.919 307.881 562.919C289.159 562.919 275.144 549.843 272.336 532.712C272.018 530.797 271.853 528.822 271.853 526.801C271.853 506.868 287.979 490.695 307.881 490.695C327.783 490.695 343.909 506.856 343.909 526.801V526.813Z" fill="black"/>
<path opacity="0.3" d="M343.909 526.813C343.909 527.995 343.85 529.165 343.744 530.312C340.075 520.606 330.779 506.123 307.905 506.123C285.03 506.123 275.663 522.296 272.336 532.724C272.018 530.809 271.853 528.834 271.853 526.813C271.853 506.88 287.979 490.707 307.881 490.707C327.783 490.707 343.909 506.868 343.909 526.813Z" fill="black"/>
<path d="M441.814 471.578H169.501V491.191H441.814V471.578Z" fill="#D5C9B0"/>
<path d="M134.436 562.376L483 562.377" stroke="#D5C9B0" stroke-width="2"/>
</g>
<defs>
<clipPath id="clip0_99_2">
<rect width="565" height="438" fill="white" transform="translate(39.8501 133.75)"/>
</clipPath>
</defs>
</svg>
