<svg width="601" height="600" viewBox="0 0 601 600" fill="none" xmlns="http://www.w3.org/2000/svg">
<circle cx="300.5" cy="300" r="299" stroke="#1EA8BC" stroke-width="2"/>
<g clip-path="url(#clip0_183_1322)">
<path d="M300.33 491.964C318.097 491.964 332.501 477.534 332.501 459.734C332.501 441.934 318.097 427.503 300.33 427.503C282.563 427.503 268.16 441.934 268.16 459.734C268.16 477.534 282.563 491.964 300.33 491.964Z" fill="#1EA8BC"/>
<path opacity="0.3" d="M332.501 459.734C332.501 460.789 332.448 461.834 332.353 462.858C330.784 479.194 317.047 491.964 300.33 491.964C283.613 491.964 271.099 480.292 268.592 465C268.307 463.29 268.16 461.528 268.16 459.723C268.16 441.93 282.559 427.493 300.33 427.493C318.101 427.493 332.501 441.919 332.501 459.723V459.734Z" fill="black"/>
<path opacity="0.3" d="M332.501 459.734C332.501 460.789 332.448 461.834 332.353 462.858C329.077 454.193 320.776 441.265 300.351 441.265C279.926 441.265 271.562 455.702 268.592 465.011C268.307 463.301 268.16 461.539 268.16 459.734C268.16 441.941 282.559 427.503 300.33 427.503C318.101 427.503 332.501 441.93 332.501 459.734Z" fill="black"/>
<path d="M201 491L401 491" stroke="#1EA8BC" stroke-width="2"/>
</g>
<path d="M438.7 225.246C446.443 219.916 451.046 210.64 450.562 201.236C450.54 200.73 449.75 200.73 449.772 201.236C450.246 210.355 445.821 219.388 438.3 224.56C437.879 224.845 438.279 225.531 438.7 225.246Z" fill="#1EA8BC"/>
<path d="M443.652 228C451.394 222.671 455.997 213.405 455.513 203.991C455.492 203.484 454.702 203.484 454.723 203.991C455.197 213.109 450.772 222.143 443.251 227.314C442.83 227.599 443.23 228.285 443.652 228Z" fill="#1EA8BC"/>
<path d="M274.403 226.386C277.584 230.185 281.44 233.362 285.769 235.768C286.212 236.011 286.612 235.335 286.17 235.082C281.903 232.707 278.101 229.562 274.962 225.816C274.635 225.425 274.077 225.985 274.403 226.375V226.386Z" fill="#1EA8BC"/>
<path d="M271.622 230.027C274.951 234.185 279.122 237.625 283.831 240.095C284.284 240.327 284.684 239.651 284.231 239.409C279.565 236.971 275.467 233.583 272.18 229.467C271.864 229.066 271.306 229.636 271.622 230.027Z" fill="#1EA8BC"/>
<path d="M394.163 124.175C394.163 124.175 395.237 123.331 394.532 122.159C394.1 121.441 390.202 119.996 384.83 120.439C384.83 120.439 386.484 119.901 389.233 119.267C390.328 119.014 391.74 119.447 392.962 118.824C394.679 117.948 391.14 116.059 387.969 116.587C384.798 117.115 379.637 120.186 376.013 122.434C375.613 122.676 375.149 122.993 374.644 123.341L369.998 126.096L372.653 132.428C374.538 131.531 376.761 131.805 378.33 131.678C380.848 131.478 382.628 129.209 383.734 129.241C386.684 129.325 391.772 131.636 392.404 130.043C393.036 128.449 387.2 126.644 387.2 126.644C387.2 126.644 393.678 127.805 394.226 126.307C394.984 124.228 394.163 124.175 394.163 124.175Z" fill="#E9B7B2"/>
<path d="M255.211 168.373C253.525 167.887 222.64 166.273 212.022 162.653C201.403 159.023 173.236 143.646 173.236 143.646C173.236 143.646 169.107 150.2 169.833 150.442C170.56 150.685 199.233 176.911 213.949 181.259C228.665 185.607 264.049 197.205 264.049 197.205L268.231 169.903L255.2 168.373H255.211Z" fill="#1EA8BC"/>
<path d="M389.434 140.723L413.314 190.842C406.088 200.572 364.521 196.266 343.296 195.886C322.07 195.506 316.761 201.332 316.761 201.332L301.076 232.085C315.823 250.195 410.628 241.984 437.005 211.379C439.165 208.878 440.239 205.616 439.955 202.324C439.586 198.113 438.248 191.19 434.161 180.963C426.577 161.978 404.603 139.193 400.052 133.114C398.462 130.982 389.445 140.712 389.445 140.712L389.434 140.723Z" fill="#263238"/>
<path d="M363.657 235.272C362.899 236.791 348.499 302.487 348.499 315.394C348.499 328.301 355.251 362.326 340.093 390.039C340.093 390.039 331.192 393.786 330.581 391.306C329.401 386.483 327.273 328.301 323.112 299.437C318.941 270.573 314.011 232.602 314.011 232.602L363.657 235.261V235.272Z" fill="#263238"/>
<path opacity="0.3" d="M314.748 238.29L316.76 253.519C316.76 253.519 332.403 264.431 357.337 263.545L362.34 240.538C345.254 242.775 329.506 241.741 314.748 238.28V238.29Z" fill="black"/>
<path d="M344.296 393.068C344.296 393.068 347.572 375.951 347.172 375.233C346.771 374.515 328.274 375.233 328.274 375.233C328.274 375.233 330.223 393.67 330.349 394.736C330.465 395.696 336.353 397.902 339.893 397.29C343.432 396.678 344.296 393.079 344.296 393.079V393.068Z" fill="#E9B7B2"/>
<path d="M329.19 392.572C331.244 392.214 332.487 392.688 332.603 394.335C333.572 394.356 334.468 394.852 335.047 395.622C337.543 398.936 341.43 396.783 344.064 393.775C345.76 393.617 344.18 396.488 344.327 397.005L347.645 408.339C347.93 409.289 347.382 410.25 346.424 410.503C346.255 410.545 346.076 410.566 345.897 410.556C340.725 410.44 338.27 410.387 331.834 410.239L312.136 409.796C306.763 409.68 305.594 404.392 307.796 403.96C317.719 402.049 324.724 399.358 327.768 396.614C328.337 396.139 328.59 394.082 329.19 392.572Z" fill="#263238"/>
<path d="M311.809 408.361C315.432 409.279 320.626 406.208 325.271 406.313C329.917 406.408 329.874 408.234 337.975 409.015C346.076 409.796 347.245 406.925 347.245 406.925L347.656 408.35C347.94 409.3 347.392 410.26 346.434 410.513C346.265 410.556 346.086 410.577 345.907 410.566C340.735 410.45 338.28 410.397 331.844 410.25L312.146 409.806C309.281 409.743 307.627 408.213 307.026 406.725C307.616 407.02 309.112 407.675 311.819 408.361H311.809Z" fill="white"/>
<path d="M340.093 404.308C337.438 404.53 334.794 403.886 332.54 402.461C332.108 402.187 331.708 402.873 332.14 403.147C334.499 404.635 337.312 405.332 340.093 405.1C340.598 405.057 340.598 404.266 340.093 404.308Z" fill="white"/>
<path d="M327.01 400.35C326.494 399.664 325.988 398.968 325.472 398.282C325.346 398.113 325.124 398.018 324.935 398.145C324.766 398.25 324.661 398.503 324.798 398.683C325.314 399.369 325.82 400.065 326.336 400.751C326.462 400.92 326.683 401.015 326.873 400.888C327.041 400.783 327.147 400.53 327.01 400.35Z" fill="black"/>
<path d="M324.439 401.522C324.366 401.448 324.302 401.363 324.239 401.29C324.208 401.247 324.176 401.216 324.144 401.173C324.134 401.152 324.113 401.131 324.102 401.121C324.06 401.068 324.134 401.163 324.102 401.121C323.976 400.952 323.86 400.783 323.755 400.604C323.649 400.424 323.544 400.255 323.46 400.076C323.418 399.991 323.375 399.896 323.333 399.812C323.323 399.78 323.312 399.759 323.291 399.728C323.291 399.728 323.26 399.654 323.27 399.696C323.281 399.738 323.26 399.664 323.26 399.654C323.249 399.622 323.239 399.601 323.228 399.569C323.154 399.379 322.965 399.221 322.743 399.295C322.554 399.358 322.385 399.58 322.47 399.78C322.807 400.635 323.281 401.406 323.902 402.081C324.039 402.239 324.324 402.229 324.46 402.081C324.608 401.912 324.608 401.68 324.46 401.522H324.439Z" fill="black"/>
<path d="M321.732 402.704C321.658 402.63 321.595 402.546 321.532 402.472C321.5 402.429 321.469 402.398 321.437 402.356C321.426 402.335 321.405 402.313 321.395 402.303C321.353 402.25 321.426 402.345 321.395 402.303C321.268 402.134 321.153 401.965 321.047 401.786C320.942 401.606 320.836 401.437 320.752 401.258C320.71 401.174 320.668 401.079 320.626 400.994C320.615 400.963 320.605 400.941 320.584 400.91C320.584 400.91 320.552 400.836 320.563 400.868C320.573 400.899 320.552 400.836 320.552 400.825C320.542 400.794 320.531 400.773 320.52 400.741C320.447 400.551 320.257 400.393 320.036 400.467C319.846 400.53 319.678 400.751 319.762 400.952C320.099 401.807 320.573 402.577 321.195 403.253C321.332 403.411 321.616 403.4 321.753 403.253C321.9 403.084 321.9 402.852 321.753 402.693L321.732 402.704Z" fill="black"/>
<path d="M388.706 141.409C388.706 141.409 395.89 157.281 396.638 157.64C397.386 157.999 412.07 146.717 412.07 146.717C412.07 146.717 399.861 132.797 399.135 131.995C398.492 131.277 389.496 130.475 386.957 133.019C384.419 135.562 388.695 141.409 388.695 141.409H388.706Z" fill="#E9B7B2"/>
<path d="M400.251 133.082C398.787 134.56 397.492 134.897 396.449 133.62C395.648 134.159 394.637 134.275 393.72 133.979C389.77 132.713 387.842 136.723 387.421 140.702C386.125 141.81 385.757 138.559 385.346 138.222L376.108 130.887C375.328 130.285 375.223 129.177 375.865 128.417C375.981 128.28 376.118 128.164 376.266 128.069C380.553 125.167 382.586 123.795 387.927 120.196L404.265 109.168C408.721 106.16 412.723 109.801 411.175 111.426C404.181 118.729 399.999 124.977 399.093 128.977C398.903 129.694 399.883 131.52 400.262 133.103L400.251 133.082Z" fill="#263238"/>
<path d="M405.361 110.139C401.874 111.49 399.398 116.988 395.543 119.595C391.688 122.201 390.676 120.682 383.619 124.734C376.55 128.776 377.256 131.805 377.256 131.805L376.097 130.887C375.318 130.275 375.213 129.177 375.855 128.417C375.971 128.28 376.108 128.164 376.255 128.069C380.543 125.167 382.576 123.806 387.916 120.196L404.255 109.168C406.635 107.564 408.868 107.859 410.217 108.725C409.574 108.83 407.962 109.157 405.361 110.16V110.139Z" fill="white"/>
<path d="M384.651 129.757C386.652 128.069 389.181 127.077 391.793 126.94C392.299 126.908 392.299 126.116 391.793 126.148C388.959 126.296 386.263 127.372 384.093 129.198C383.703 129.525 384.261 130.085 384.651 129.757Z" fill="white"/>
<path d="M397.628 125.494C398.439 125.758 399.261 126.032 400.072 126.296C400.272 126.359 400.515 126.222 400.557 126.022C400.609 125.8 400.494 125.599 400.283 125.536C399.472 125.272 398.65 124.998 397.839 124.734C397.639 124.671 397.397 124.808 397.354 125.008C397.302 125.23 397.418 125.431 397.628 125.494Z" fill="black"/>
<path d="M398.935 123.014C399.135 123.056 399.325 123.109 399.525 123.172C399.725 123.235 399.946 123.32 400.083 123.373C400.125 123.394 400.262 123.447 400.336 123.489C400.431 123.531 400.515 123.584 400.61 123.626C400.8 123.721 400.979 123.837 401.158 123.953C401.337 124.069 401.6 123.995 401.695 123.816C401.8 123.615 401.737 123.394 401.558 123.278C400.831 122.803 400.01 122.455 399.156 122.265C398.956 122.222 398.724 122.328 398.672 122.539C398.63 122.739 398.735 122.982 398.946 123.024L398.935 123.014Z" fill="black"/>
<path d="M400.473 120.492C400.673 120.534 400.862 120.587 401.063 120.65C401.263 120.713 401.484 120.798 401.621 120.85C401.663 120.872 401.8 120.924 401.874 120.967C401.968 121.009 402.053 121.062 402.148 121.104C402.337 121.199 402.516 121.315 402.695 121.431C402.874 121.547 403.138 121.473 403.233 121.294C403.338 121.093 403.275 120.872 403.096 120.755C402.369 120.281 401.547 119.932 400.694 119.742C400.494 119.7 400.262 119.806 400.209 120.017C400.167 120.217 400.273 120.46 400.483 120.502L400.473 120.492Z" fill="black"/>
<path d="M315.96 198.113C315.96 198.113 307.585 196.699 304.91 191.918C302.223 187.137 296.862 164.046 296.862 164.046L283.578 152.701C283.578 152.701 276.373 156.542 276.184 156.574L256.032 168.721C256.032 168.721 248.479 189.459 259.287 203.959C266.261 213.32 297.251 236.475 302.392 232.57C307.533 228.665 318.878 202.239 315.97 198.113H315.96Z" fill="#1EA8BC"/>
<path d="M308.975 237.171C315.401 239.145 322.09 240.242 328.758 240.992C337.217 241.942 345.781 242.226 354.282 241.709C359.022 241.424 363.752 240.865 368.408 239.968C368.903 239.873 368.692 239.113 368.197 239.208C352.228 242.29 335.247 241.752 319.288 238.828C315.886 238.206 312.494 237.446 309.186 236.422C308.702 236.274 308.491 237.034 308.975 237.182V237.171Z" fill="black"/>
<path d="M168.496 140.712C167.927 140.322 167.411 139.973 166.958 139.699C162.913 137.198 157.14 133.757 153.601 133.166C150.061 132.575 146.111 134.686 148.018 135.668C149.387 136.364 150.957 135.879 152.189 136.164C155.255 136.871 157.109 137.472 157.109 137.472C151.104 136.976 146.754 138.591 146.269 139.393C145.479 140.702 146.68 141.641 146.68 141.641C146.68 141.641 145.764 141.704 146.606 144.026C147.217 145.704 154.454 144.406 154.454 144.406C154.454 144.406 147.933 146.432 148.639 148.205C149.345 149.978 155.033 147.403 158.33 147.308C159.563 147.276 161.554 149.809 164.366 150.031C166.115 150.168 168.612 149.862 170.708 150.865L173.678 143.783L168.485 140.702L168.496 140.712Z" fill="#E9B7B2"/>
<path d="M283.694 152.5C283.694 152.5 291.31 146.548 311.24 142.168C331.181 137.789 367.902 124.386 370.536 125.694C373.169 127.003 374.36 132.554 374.36 132.554C374.36 132.554 352.934 145.609 337.301 150.337C321.669 155.065 300.949 161.513 297.315 168.415C293.68 175.317 283.694 152.49 283.694 152.49V152.5Z" fill="#1EA8BC"/>
<path d="M273.002 108.598C276.626 107.542 280.755 108.492 283.589 111.036C284.927 112.228 286.022 113.78 287.655 114.497C289.414 115.268 291.447 114.909 293.248 114.254C295.05 113.6 296.756 112.661 298.621 112.26C301.791 111.584 305.268 112.608 307.606 114.919C308.733 116.027 309.629 117.6 309.313 119.151C309.07 120.333 308.186 121.273 307.248 122.022C304.825 123.964 301.844 125.156 298.768 125.41C301.296 125.262 303.572 127.679 303.709 130.254C303.846 132.829 302.171 135.277 299.937 136.48C297.694 137.683 295.008 137.778 292.522 137.251C290.036 136.723 287.708 135.604 285.422 134.475C286.559 135.119 286.264 137.05 285.169 137.757C284.073 138.464 282.651 138.274 281.387 137.947C278.332 137.145 275.099 135.087 274.783 131.9L268.262 114.371C267.862 111.648 270.4 109.347 273.002 108.587V108.598Z" fill="#263238"/>
<path d="M235.186 121.42C235.059 121.462 230.287 121.906 231.657 129.842C233.026 137.778 244.403 153.218 244.382 153.366C244.361 153.503 240.105 127.288 240.105 127.288L235.186 121.42Z" fill="#263238"/>
<path d="M257.844 155.761C258.118 156.089 262.637 163.233 261.91 165.344C261.531 166.442 260.372 168.436 260.372 168.436C260.372 168.436 261.763 173.323 266.513 169.956C271.254 166.589 277.648 156.268 277.648 156.268L274.561 157.102C274.561 157.102 267.356 151.445 268.315 141.546C268.662 137.905 257.833 155.761 257.833 155.761H257.844Z" fill="#E9B7B2"/>
<path opacity="0.2" d="M257.75 155.603L267.283 143.161C268.083 144.49 268.389 146.073 268.136 147.614C267.536 152.553 264.417 157.387 260.71 160.933C259.92 159.096 258.94 157.366 257.75 155.603Z" fill="black"/>
<path d="M266.545 126.307C269.326 137.747 270.759 142.517 267.061 149.989C261.51 161.228 247.374 162.051 241.348 151.635C235.923 142.274 232.278 125.146 241.496 117.421C250.723 109.695 263.817 114.856 266.545 126.307Z" fill="#E9B7B2"/>
<path d="M253.209 134.369C253.757 135.499 253.673 136.723 253.009 137.113C252.345 137.504 251.366 136.902 250.818 135.784C250.27 134.654 250.354 133.43 251.018 133.04C251.682 132.649 252.661 133.24 253.209 134.369Z" fill="#263238"/>
<path d="M242.897 138.602C243.423 139.699 243.328 140.892 242.665 141.282C242.001 141.673 241.043 141.103 240.505 140.005C239.979 138.908 240.073 137.705 240.737 137.325C241.401 136.934 242.359 137.504 242.897 138.602Z" fill="#263238"/>
<path d="M252.44 129.135C252.314 129.219 252.166 129.262 252.008 129.219C249.628 128.607 248.142 130.116 248.132 130.138C247.911 130.359 247.563 130.359 247.352 130.116C247.142 129.874 247.152 129.494 247.373 129.272C247.447 129.188 249.312 127.299 252.261 128.058C252.556 128.132 252.735 128.459 252.661 128.776C252.63 128.934 252.535 129.061 252.43 129.145L252.44 129.135Z" fill="#263238"/>
<path d="M237.998 134.116C237.872 134.116 237.756 134.063 237.661 133.958C237.472 133.736 237.493 133.367 237.693 133.145C239.736 130.844 241.97 131.298 242.064 131.319C242.328 131.383 242.496 131.678 242.423 131.995C242.349 132.311 242.086 132.512 241.812 132.459C241.727 132.438 239.989 132.111 238.357 133.947C238.251 134.063 238.114 134.127 237.988 134.127L237.998 134.116Z" fill="#263238"/>
<path d="M246.562 136.047C246.562 136.047 247.1 140.828 246.626 144.269C246.541 144.87 247.079 145.377 247.669 145.282C249.185 145.05 250.418 143.794 250.418 143.794L246.562 136.047Z" fill="#7E5653"/>
<path d="M251.176 132.945L248.532 133.694C248.532 133.694 251.756 134.602 251.176 132.945Z" fill="#263238"/>
<path d="M240.979 137.219L238.335 137.968C238.335 137.968 240.59 139.024 240.979 137.219Z" fill="#263238"/>
<path d="M269.822 150.221C266.893 148.564 266.493 141.852 267.567 137.251C262.005 138.907 239.811 120.914 239.811 120.914C239.811 120.914 238.557 118.402 240.053 121.642L235.081 123.911C230.636 119.605 238.768 113.315 238.768 113.315C260.246 99.1734 272.455 117.727 272.455 117.727C274.162 120.629 276.616 124.016 276.806 129.684C276.89 132.238 276.363 137.546 274.046 142.949L269.811 150.221H269.822Z" fill="#263238"/>
<path d="M272.476 133.557C272.434 136.364 271.212 138.802 269.674 140.269C267.356 142.474 263.543 138.834 262.964 135.562C262.437 132.617 264.186 129.483 267.104 128.554C269.979 127.636 272.518 130.348 272.476 133.557Z" fill="#E9B7B2"/>
<g opacity="0.2">
<path d="M266.303 136.1C265.429 134.158 266.271 131.858 268.167 130.918C268.62 130.697 268.22 130.011 267.767 130.232C266.724 130.75 265.913 131.657 265.481 132.744C265.007 133.958 265.092 135.319 265.618 136.501C265.829 136.966 266.503 136.565 266.303 136.1Z" fill="black"/>
</g>
<path d="M239.388 119.32C240.958 123.552 243.886 127.119 247.689 129.452C247.689 129.452 238.63 128.006 234.29 123.721L239.378 119.32H239.388Z" fill="#263238"/>
<g opacity="0.2">
<path d="M276.584 135.688C278.332 127.763 275.404 119.098 269.105 113.948C268.715 113.632 268.157 114.191 268.546 114.508C274.624 119.468 277.511 127.805 275.815 135.477C275.709 135.973 276.468 136.184 276.573 135.688H276.584Z" fill="black"/>
</g>
<path d="M254.338 146.749C253.499 148.045 252.158 149.12 250.529 148.976C250.025 148.925 249.922 149.717 250.43 149.758C252.331 149.936 253.958 148.775 254.966 147.241C255.087 147.062 255.081 146.831 254.901 146.687C254.746 146.565 254.468 146.575 254.348 146.753L254.338 146.749Z" fill="#7E5653"/>
<path d="M161.322 139.403C159.626 139.256 157.919 139.235 156.223 139.34C154.854 139.425 153.105 139.425 151.82 140.005C150.957 140.395 150.525 141.25 150.957 142.147C151.525 143.329 152.979 143.456 154.127 143.562C154.928 143.635 155.739 143.657 156.54 143.625C157.403 143.593 158.372 143.308 159.226 143.382C160.079 143.456 160.479 144.1 161.006 144.701C161.417 145.176 161.88 145.598 162.396 145.957C164.377 147.329 166.968 147.688 169.243 146.907C169.717 146.738 169.517 145.978 169.033 146.147C166.979 146.854 164.703 146.559 162.902 145.345C162.017 144.754 161.522 143.889 160.743 143.203C159.9 142.453 158.962 142.601 157.919 142.717C156.603 142.865 155.275 142.886 153.959 142.749C153.295 142.686 152.347 142.622 151.862 142.084C150.999 141.124 152.221 140.638 152.937 140.501C155.676 139.984 158.541 139.952 161.311 140.184C161.817 140.227 161.817 139.435 161.311 139.393L161.322 139.403Z" fill="#263238"/>
<path d="M258.487 168.278C258.487 168.278 259.119 161.365 260.077 161.693C261.036 162.009 266.229 163.286 266.756 163.392C267.283 163.497 268.979 152.965 270.896 152.659C272.802 152.342 279.27 154.98 279.27 154.98C279.27 154.98 275.036 171.043 269.948 172.848C264.86 174.652 258.497 168.278 258.497 168.278H258.487Z" fill="#1EA8BC"/>
<path opacity="0.6" d="M258.487 168.278C258.487 168.278 259.119 161.365 260.077 161.693C261.036 162.009 266.229 163.286 266.756 163.392C267.283 163.497 268.979 152.965 270.896 152.659C272.802 152.342 279.27 154.98 279.27 154.98C279.27 154.98 275.036 171.043 269.948 172.848C264.86 174.652 258.497 168.278 258.497 168.278H258.487Z" fill="white"/>
<path d="M284.758 155.16C285.433 160.437 288.825 165.196 293.639 167.455C294.092 167.666 294.502 166.99 294.039 166.769C289.488 164.626 286.181 160.162 285.549 155.149C285.485 154.653 284.695 154.643 284.758 155.149V155.16Z" fill="black"/>
<path d="M253.093 176.774C252.566 180.784 252.682 184.847 253.24 188.857C253.641 191.718 254.199 194.641 255.242 197.343C255.421 197.817 256.19 197.606 256 197.131C254.989 194.535 254.441 191.728 254.041 188.974C253.462 184.942 253.346 180.826 253.873 176.774C253.936 176.267 253.146 176.278 253.082 176.774H253.093Z" fill="black"/>
<path d="M378.994 121.99C382.881 121.547 386.821 121.578 390.697 122.085C391.192 122.148 391.698 122.222 392.119 122.475C392.541 122.729 392.878 123.204 392.815 123.7C392.72 124.481 391.782 124.829 391.013 124.966C389.086 125.325 387.116 125.483 385.156 125.441C384.061 125.42 382.902 125.346 381.944 125.874C381.269 126.243 380.785 126.866 380.216 127.393C378.72 128.797 376.603 129.515 374.57 129.314" fill="#E9B7B2"/>
<path d="M422.154 409.564H179V427.072H422.154V409.564Z" fill="#1EA8BC"/>
<defs>
<clipPath id="clip0_183_1322">
<rect width="200" height="65" fill="white" transform="translate(201 427)"/>
</clipPath>
</defs>
</svg>
