<svg width="136" height="42" viewBox="0 0 136 42" fill="#0477A0" xmlns="http://www.w3.org/2000/svg">
<path d="M50.1051 12.75H48.2441V3.82932H53.3573V5.37915H50.1051V7.67949H53.1315V9.22322H50.1051V12.75ZM63.293 8.27746C63.293 8.96491 63.2076 9.59135 63.0368 10.1568C62.8659 10.7181 62.6056 11.2022 62.2557 11.609C61.91 12.0158 61.4707 12.329 60.9378 12.5486C60.4049 12.7642 59.7744 12.872 59.0463 12.872C58.3181 12.872 57.6876 12.7642 57.1547 12.5486C56.6218 12.329 56.1805 12.0158 55.8307 11.609C55.4849 11.2022 55.2266 10.7161 55.0557 10.1507C54.8849 9.58525 54.7995 8.95678 54.7995 8.26525C54.7995 7.34186 54.95 6.53847 55.251 5.85508C55.5561 5.16762 56.0239 4.63474 56.6544 4.25644C57.2849 3.87813 58.0863 3.68898 59.0585 3.68898C60.0266 3.68898 60.8218 3.87813 61.4442 4.25644C62.0707 4.63474 62.5344 5.16762 62.8354 5.85508C63.1405 6.54254 63.293 7.35 63.293 8.27746ZM56.7825 8.27746C56.7825 8.89983 56.8598 9.43678 57.0144 9.8883C57.173 10.3358 57.4191 10.6815 57.7527 10.9256C58.0863 11.1656 58.5174 11.2856 59.0463 11.2856C59.5832 11.2856 60.0185 11.1656 60.352 10.9256C60.6856 10.6815 60.9276 10.3358 61.0781 9.8883C61.2327 9.43678 61.31 8.89983 61.31 8.27746C61.31 7.34186 61.1351 6.60559 60.7852 6.06864C60.4354 5.53169 59.8598 5.26322 59.0585 5.26322C58.5256 5.26322 58.0903 5.38525 57.7527 5.62932C57.4191 5.86932 57.173 6.21508 57.0144 6.66661C56.8598 7.11407 56.7825 7.65102 56.7825 8.27746ZM67.8349 3.82932C68.6444 3.82932 69.3115 3.92695 69.8362 4.1222C70.3651 4.31745 70.7576 4.61237 71.0139 5.00695C71.2701 5.40152 71.3983 5.89983 71.3983 6.50186C71.3983 6.90864 71.321 7.26457 71.1664 7.56966C71.0118 7.87474 70.8085 8.13305 70.5562 8.34457C70.304 8.5561 70.0315 8.72898 69.7386 8.86322L72.3624 12.75H70.2634L68.1339 9.32695H67.1271V12.75H65.2356V3.82932H67.8349ZM67.7007 5.37915H67.1271V7.78932H67.7373C68.3637 7.78932 68.8112 7.68559 69.0796 7.47813C69.3522 7.26661 69.4885 6.95746 69.4885 6.55068C69.4885 6.12762 69.342 5.82661 69.0491 5.64762C68.7603 5.46864 68.3108 5.37915 67.7007 5.37915ZM80.8398 3.82932V9.60152C80.8398 10.2158 80.7035 10.771 80.431 11.2673C80.1625 11.7595 79.7537 12.15 79.2046 12.4388C78.6595 12.7276 77.972 12.872 77.1422 12.872C75.9625 12.872 75.0635 12.571 74.4452 11.969C73.8269 11.3669 73.5178 10.5697 73.5178 9.57712V3.82932H75.4032V9.29034C75.4032 10.0266 75.5537 10.5432 75.8547 10.8402C76.1557 11.1371 76.6012 11.2856 77.191 11.2856C77.6059 11.2856 77.9415 11.2144 78.1978 11.072C78.4581 10.9297 78.6493 10.71 78.7713 10.413C78.8934 10.1161 78.9544 9.7378 78.9544 9.27813V3.82932H80.8398ZM86.8949 12.75L84.7471 5.75135H84.6922C84.7003 5.91813 84.7125 6.17034 84.7288 6.50796C84.7491 6.84152 84.7674 7.19746 84.7837 7.57576C84.8 7.95407 84.8081 8.29576 84.8081 8.60085V12.75H83.1179V3.82932H85.6928L87.804 10.651H87.8406L90.08 3.82932H92.6549V12.75H90.8915V8.52763C90.8915 8.24695 90.8956 7.92356 90.9037 7.55746C90.9159 7.19135 90.9301 6.84356 90.9464 6.51407C90.9627 6.18051 90.9749 5.93034 90.983 5.76356H90.9281L88.6278 12.75H86.8949ZM100.201 12.75H98.34V3.82932H103.453V5.37915H100.201V7.67949H103.227V9.22322H100.201V12.75ZM113.389 8.27746C113.389 8.96491 113.304 9.59135 113.133 10.1568C112.962 10.7181 112.701 11.2022 112.352 11.609C112.006 12.0158 111.567 12.329 111.034 12.5486C110.501 12.7642 109.87 12.872 109.142 12.872C108.414 12.872 107.784 12.7642 107.251 12.5486C106.718 12.329 106.276 12.0158 105.927 11.609C105.581 11.2022 105.322 10.7161 105.152 10.1507C104.981 9.58525 104.895 8.95678 104.895 8.26525C104.895 7.34186 105.046 6.53847 105.347 5.85508C105.652 5.16762 106.12 4.63474 106.75 4.25644C107.381 3.87813 108.182 3.68898 109.154 3.68898C110.122 3.68898 110.918 3.87813 111.54 4.25644C112.167 4.63474 112.63 5.16762 112.931 5.85508C113.236 6.54254 113.389 7.35 113.389 8.27746ZM106.878 8.27746C106.878 8.89983 106.956 9.43678 107.11 9.8883C107.269 10.3358 107.515 10.6815 107.849 10.9256C108.182 11.1656 108.613 11.2856 109.142 11.2856C109.679 11.2856 110.114 11.1656 110.448 10.9256C110.781 10.6815 111.024 10.3358 111.174 9.8883C111.329 9.43678 111.406 8.89983 111.406 8.27746C111.406 7.34186 111.231 6.60559 110.881 6.06864C110.531 5.53169 109.956 5.26322 109.154 5.26322C108.621 5.26322 108.186 5.38525 107.849 5.62932C107.515 5.86932 107.269 6.21508 107.11 6.66661C106.956 7.11407 106.878 7.65102 106.878 8.27746ZM117.931 3.82932C118.74 3.82932 119.407 3.92695 119.932 4.1222C120.461 4.31745 120.854 4.61237 121.11 5.00695C121.366 5.40152 121.494 5.89983 121.494 6.50186C121.494 6.90864 121.417 7.26457 121.262 7.56966C121.108 7.87474 120.904 8.13305 120.652 8.34457C120.4 8.5561 120.127 8.72898 119.835 8.86322L122.458 12.75H120.359L118.23 9.32695H117.223V12.75H115.331V3.82932H117.931ZM117.797 5.37915H117.223V7.78932H117.833C118.46 7.78932 118.907 7.68559 119.176 7.47813C119.448 7.26661 119.584 6.95746 119.584 6.55068C119.584 6.12762 119.438 5.82661 119.145 5.64762C118.856 5.46864 118.407 5.37915 117.797 5.37915ZM50.8434 16.8293C51.6529 16.8293 52.32 16.9269 52.8447 17.1222C53.3735 17.3175 53.7661 17.6124 54.0224 18.0069C54.2786 18.4015 54.4068 18.8998 54.4068 19.5019C54.4068 19.9086 54.3295 20.2646 54.1749 20.5697C54.0203 20.8747 53.8169 21.133 53.5647 21.3446C53.3125 21.5561 53.04 21.729 52.7471 21.8632L55.3708 25.75H53.2718L51.1424 22.3269H50.1356V25.75H48.2441V16.8293H50.8434ZM50.7091 18.3791H50.1356V20.7893H50.7457C51.3722 20.7893 51.8196 20.6856 52.0881 20.4781C52.3607 20.2666 52.4969 19.9575 52.4969 19.5507C52.4969 19.1276 52.3505 18.8266 52.0576 18.6476C51.7688 18.4686 51.3193 18.3791 50.7091 18.3791ZM61.7249 25.75H56.5873V16.8293H61.7249V18.3791H58.4788V20.3378H61.4991V21.8876H58.4788V24.188H61.7249V25.75ZM68.9515 23.2727C68.9515 23.8015 68.8234 24.2612 68.5671 24.6517C68.3108 25.0422 67.9366 25.3432 67.4444 25.5547C66.9562 25.7663 66.3623 25.872 65.6627 25.872C65.3535 25.872 65.0505 25.8517 64.7535 25.811C64.4607 25.7703 64.1779 25.7114 63.9054 25.6341C63.6369 25.5527 63.3807 25.4531 63.1366 25.3351V23.5778C63.5596 23.7649 63.999 23.9337 64.4546 24.0842C64.9101 24.2347 65.3617 24.31 65.8091 24.31C66.1183 24.31 66.3664 24.2693 66.5535 24.188C66.7447 24.1066 66.883 23.9947 66.9684 23.8524C67.0539 23.71 67.0966 23.5473 67.0966 23.3642C67.0966 23.1405 67.0213 22.9493 66.8708 22.7907C66.7203 22.632 66.5129 22.4836 66.2484 22.3453C65.9881 22.2069 65.6932 22.0585 65.3637 21.8998C65.1562 21.8022 64.9305 21.6842 64.6864 21.5459C64.4423 21.4036 64.2105 21.2307 63.9908 21.0273C63.7712 20.8239 63.5901 20.5778 63.4478 20.289C63.3095 19.9961 63.2403 19.6463 63.2403 19.2395C63.2403 18.7066 63.3623 18.251 63.6064 17.8727C63.8505 17.4944 64.1983 17.2056 64.6498 17.0063C65.1054 16.8029 65.6423 16.7012 66.2607 16.7012C66.7244 16.7012 67.1657 16.7561 67.5847 16.8659C68.0078 16.9717 68.4491 17.1263 68.9088 17.3297L68.2986 18.8002C67.8878 18.6334 67.5196 18.5053 67.1942 18.4158C66.8688 18.3222 66.5373 18.2754 66.1996 18.2754C65.9637 18.2754 65.7623 18.3141 65.5956 18.3914C65.4288 18.4646 65.3027 18.5703 65.2173 18.7086C65.1318 18.8429 65.0891 18.9995 65.0891 19.1785C65.0891 19.39 65.1501 19.569 65.2722 19.7154C65.3983 19.8578 65.5854 19.9961 65.8335 20.1303C66.0857 20.2646 66.399 20.4212 66.7732 20.6002C67.2288 20.8158 67.6173 21.0415 67.9386 21.2775C68.264 21.5093 68.5142 21.7839 68.6891 22.1012C68.864 22.4144 68.9515 22.8049 68.9515 23.2727ZM73.5117 16.8293C74.6629 16.8293 75.5029 17.0775 76.0317 17.5737C76.5605 18.0659 76.8249 18.7453 76.8249 19.6117C76.8249 20.0022 76.7659 20.3764 76.6479 20.7344C76.53 21.0883 76.3368 21.4036 76.0683 21.6802C75.8039 21.9568 75.45 22.1764 75.0066 22.3392C74.5632 22.4978 74.0161 22.5771 73.3652 22.5771H72.5537V25.75H70.6622V16.8293H73.5117ZM73.414 18.3791H72.5537V21.0273H73.1761C73.53 21.0273 73.8371 20.9805 74.0974 20.8869C74.3578 20.7934 74.5591 20.6469 74.7015 20.4476C74.8439 20.2483 74.9151 19.992 74.9151 19.6788C74.9151 19.2395 74.793 18.9141 74.549 18.7025C74.3049 18.4869 73.9266 18.3791 73.414 18.3791ZM86.6996 21.2775C86.6996 21.9649 86.6142 22.5914 86.4434 23.1568C86.2725 23.7181 86.0122 24.2022 85.6623 24.609C85.3166 25.0158 84.8773 25.329 84.3444 25.5486C83.8115 25.7642 83.181 25.872 82.4528 25.872C81.7247 25.872 81.0942 25.7642 80.5613 25.5486C80.0284 25.329 79.5871 25.0158 79.2373 24.609C78.8915 24.2022 78.6332 23.7161 78.4623 23.1507C78.2915 22.5853 78.2061 21.9568 78.2061 21.2653C78.2061 20.3419 78.3566 19.5385 78.6576 18.8551C78.9627 18.1676 79.4305 17.6347 80.061 17.2564C80.6915 16.8781 81.4928 16.689 82.4651 16.689C83.4332 16.689 84.2284 16.8781 84.8508 17.2564C85.4773 17.6347 85.941 18.1676 86.242 18.8551C86.5471 19.5425 86.6996 20.35 86.6996 21.2775ZM80.1891 21.2775C80.1891 21.8998 80.2664 22.4368 80.421 22.8883C80.5796 23.3358 80.8257 23.6815 81.1593 23.9256C81.4928 24.1656 81.924 24.2856 82.4528 24.2856C82.9898 24.2856 83.4251 24.1656 83.7586 23.9256C84.0922 23.6815 84.3342 23.3358 84.4847 22.8883C84.6393 22.4368 84.7166 21.8998 84.7166 21.2775C84.7166 20.3419 84.5417 19.6056 84.1918 19.0686C83.842 18.5317 83.2664 18.2632 82.4651 18.2632C81.9322 18.2632 81.4969 18.3853 81.1593 18.6293C80.8257 18.8693 80.5796 19.2151 80.421 19.6666C80.2664 20.1141 80.1891 20.651 80.1891 21.2775ZM96.5561 25.75H94.152L90.2713 19.0015H90.2164C90.2327 19.2822 90.2469 19.5649 90.2591 19.8497C90.2713 20.1344 90.2835 20.4192 90.2957 20.7039C90.3079 20.9846 90.3201 21.2673 90.3323 21.552V25.75H88.6422V16.8293H91.0279L94.9025 23.5107H94.9452C94.9371 23.2341 94.9269 22.9595 94.9147 22.6869C94.9025 22.4144 94.8903 22.1419 94.8781 21.8693C94.87 21.5968 94.8618 21.3242 94.8537 21.0517V16.8293H96.5561V25.75ZM104.167 23.2727C104.167 23.8015 104.039 24.2612 103.783 24.6517C103.526 25.0422 103.152 25.3432 102.66 25.5547C102.172 25.7663 101.578 25.872 100.878 25.872C100.569 25.872 100.266 25.8517 99.9691 25.811C99.6762 25.7703 99.3935 25.7114 99.121 25.6341C98.8525 25.5527 98.5962 25.4531 98.3522 25.3351V23.5778C98.7752 23.7649 99.2145 23.9337 99.6701 24.0842C100.126 24.2347 100.577 24.31 101.025 24.31C101.334 24.31 101.582 24.2693 101.769 24.188C101.96 24.1066 102.099 23.9947 102.184 23.8524C102.269 23.71 102.312 23.5473 102.312 23.3642C102.312 23.1405 102.237 22.9493 102.086 22.7907C101.936 22.632 101.728 22.4836 101.464 22.3453C101.204 22.2069 100.909 22.0585 100.579 21.8998C100.372 21.8022 100.146 21.6842 99.902 21.5459C99.6579 21.4036 99.4261 21.2307 99.2064 21.0273C98.9867 20.8239 98.8057 20.5778 98.6633 20.289C98.525 19.9961 98.4559 19.6463 98.4559 19.2395C98.4559 18.7066 98.5779 18.251 98.822 17.8727C99.0661 17.4944 99.4139 17.2056 99.8654 17.0063C100.321 16.8029 100.858 16.7012 101.476 16.7012C101.94 16.7012 102.381 16.7561 102.8 16.8659C103.223 16.9717 103.665 17.1263 104.124 17.3297L103.514 18.8002C103.103 18.6334 102.735 18.5053 102.41 18.4158C102.084 18.3222 101.753 18.2754 101.415 18.2754C101.179 18.2754 100.978 18.3141 100.811 18.3914C100.644 18.4646 100.518 18.5703 100.433 18.7086C100.347 18.8429 100.305 18.9995 100.305 19.1785C100.305 19.39 100.366 19.569 100.488 19.7154C100.614 19.8578 100.801 19.9961 101.049 20.1303C101.301 20.2646 101.615 20.4212 101.989 20.6002C102.444 20.8158 102.833 21.0415 103.154 21.2775C103.48 21.5093 103.73 21.7839 103.905 22.1012C104.08 22.4144 104.167 22.8049 104.167 23.2727ZM105.878 25.75V16.8293H107.769V25.75H105.878ZM110.108 16.8293H112.885C114.072 16.8293 114.971 16.9961 115.582 17.3297C116.192 17.6632 116.497 18.249 116.497 19.0869C116.497 19.4246 116.442 19.7297 116.332 20.0022C116.226 20.2747 116.072 20.4985 115.868 20.6734C115.665 20.8483 115.417 20.9622 115.124 21.0151V21.0761C115.421 21.1371 115.689 21.2429 115.929 21.3934C116.169 21.5398 116.361 21.7554 116.503 22.0402C116.649 22.3208 116.723 22.6951 116.723 23.1629C116.723 23.7039 116.59 24.1676 116.326 24.5541C116.062 24.9405 115.683 25.2375 115.191 25.4449C114.703 25.6483 114.121 25.75 113.446 25.75H110.108V16.8293ZM112 20.3622H113.098C113.647 20.3622 114.028 20.2768 114.239 20.1059C114.451 19.931 114.557 19.6747 114.557 19.3371C114.557 18.9954 114.43 18.7514 114.178 18.6049C113.93 18.4544 113.536 18.3791 112.995 18.3791H112V20.3622ZM112 21.8632V24.188H113.232C113.802 24.188 114.199 24.0781 114.422 23.8585C114.646 23.6388 114.758 23.3439 114.758 22.9737C114.758 22.7541 114.709 22.5608 114.611 22.3941C114.514 22.2273 114.349 22.0971 114.117 22.0036C113.889 21.91 113.574 21.8632 113.171 21.8632H112ZM118.598 25.75V16.8293H120.49V24.188H124.108V25.75H118.598ZM130.895 25.75H125.758V16.8293H130.895V18.3791H127.649V20.3378H130.669V21.8876H127.649V24.188H130.895V25.75ZM48.2441 39.75V30.8293H50.1356V38.188H53.7539V39.75H48.2441ZM55.4035 39.75V30.8293H57.2951V39.75H55.4035ZM66.6329 30.8293L63.6003 39.75H61.5379L58.5115 30.8293H60.4213L62.0993 36.1378C62.1278 36.2273 62.1745 36.3961 62.2396 36.6442C62.3047 36.8883 62.3698 37.1486 62.4349 37.4253C62.504 37.6978 62.5508 37.9236 62.5752 38.1025C62.5996 37.9236 62.6423 37.6978 62.7034 37.4253C62.7684 37.1527 62.8315 36.8944 62.8925 36.6503C62.9576 36.4022 63.0044 36.2314 63.0329 36.1378L64.723 30.8293H66.6329ZM67.8554 39.75V30.8293H69.7469V39.75H67.8554ZM80 39.75H77.5959L73.7152 33.0015H73.6603C73.6766 33.2822 73.6908 33.5649 73.703 33.8497C73.7152 34.1344 73.7274 34.4192 73.7396 34.7039C73.7518 34.9846 73.764 35.2673 73.7762 35.552V39.75H72.0861V30.8293H74.4718L78.3464 37.5107H78.3891C78.381 37.2341 78.3708 36.9595 78.3586 36.6869C78.3464 36.4144 78.3342 36.1419 78.322 35.8693C78.3139 35.5968 78.3057 35.3242 78.2976 35.0517V30.8293H80V39.75ZM85.7317 34.7405H89.2706V39.3656C88.8028 39.5202 88.3167 39.6442 87.8123 39.7378C87.3079 39.8273 86.7364 39.872 86.0978 39.872C85.211 39.872 84.4584 39.6971 83.8401 39.3473C83.2218 38.9975 82.752 38.4808 82.4306 37.7975C82.1093 37.1141 81.9486 36.2741 81.9486 35.2775C81.9486 34.3419 82.1276 33.5324 82.4856 32.849C82.8476 32.1656 83.3744 31.6368 84.0659 31.2625C84.7615 30.8883 85.6096 30.7012 86.6103 30.7012C87.0822 30.7012 87.5479 30.752 88.0076 30.8537C88.4673 30.9554 88.8842 31.0876 89.2584 31.2503L88.63 32.7636C88.3574 32.6253 88.0462 32.5093 87.6964 32.4158C87.3466 32.3222 86.9805 32.2754 86.5981 32.2754C86.0489 32.2754 85.571 32.4015 85.1642 32.6537C84.7615 32.9059 84.4483 33.2598 84.2245 33.7154C84.0049 34.1669 83.895 34.6998 83.895 35.3141C83.895 35.8958 83.9744 36.4124 84.133 36.8639C84.2917 37.3114 84.5418 37.6632 84.8835 37.9195C85.2252 38.1717 85.6706 38.2978 86.2198 38.2978C86.4883 38.2978 86.714 38.2856 86.8971 38.2612C87.0842 38.2327 87.2591 38.2042 87.4218 38.1758V36.3147H85.7317V34.7405Z" fill="white"/>
<path fill-rule="evenodd" clip-rule="evenodd" d="M30.6621 9.91981C27.8003 6.99047 23.8103 5.17563 19.3953 5.17563C10.6965 5.17563 3.64475 12.2274 3.64475 20.9261C3.64475 21.9326 2.82884 22.7485 1.82237 22.7485C0.815903 22.7485 -4.39941e-08 21.9326 0 20.9261C4.68224e-07 10.2144 8.68355 1.53088 19.3953 1.53088C24.818 1.53088 29.7216 3.758 33.2394 7.34252L35.6664 4.91544V12.7256L27.8563 12.7256L30.6621 9.91981ZM8.38869 32.193L11.1946 29.3871L3.38442 29.3871L3.38442 37.1973L5.81143 34.7703C9.30882 38.202 14.105 40.3217 19.3953 40.3217C30.107 40.3217 38.7906 31.6381 38.7906 20.9264C38.7906 19.9199 37.9747 19.104 36.9682 19.104C35.9617 19.104 35.1458 19.9199 35.1458 20.9264C35.1458 29.6252 28.0941 36.6769 19.3953 36.6769C15.1126 36.6769 11.2297 34.9692 8.38869 32.193Z" fill="white"/>
</svg>
