<svg width="168" height="168" viewBox="0 0 168 168" fill="none" xmlns="http://www.w3.org/2000/svg">
<g id="open_run">
<mask id="mask0_11_315" style="mask-type:alpha" maskUnits="userSpaceOnUse" x="0" y="0" width="168" height="168">
<rect id="Bounding box" x="0.0184326" y="0.2771" width="167.558" height="167.558" fill="#D9D9D9"/>
</mask>
<g mask="url(#mask0_11_315)">
<path id="open_run_2" d="M83.7974 136.968L98.2301 122.67L103.077 127.611L83.7974 146.89L64.5178 127.611L69.4991 122.67L83.7974 136.968ZM30.8857 84.0562L45.184 98.3544L40.2428 103.336L20.9631 84.0562L40.2428 64.7765L45.184 69.6235L30.8857 84.0562ZM136.844 84.0562L122.545 69.6235L127.352 64.7765L146.632 84.0562L127.352 103.336L122.545 98.3544L136.844 84.0562ZM83.7974 31.0101L69.4991 45.3083L64.5178 40.5015L83.7974 21.2219L103.077 40.5015L98.2301 45.3083L83.7974 31.0101Z" fill="#003B50"/>
</g>
</g>
</svg>
