<svg width="168" height="169" viewBox="0 0 168 169" fill="none" xmlns="http://www.w3.org/2000/svg">
<g id="podcasts">
<mask id="mask0_11_275" style="mask-type:alpha" maskUnits="userSpaceOnUse" x="0" y="0" width="168" height="169">
<rect id="Bounding box" x="0.204102" y="0.502686" width="167.558" height="167.558" fill="#1C1B1F"/>
</mask>
<g mask="url(#mask0_11_275)">
<path id="podcasts_2" d="M80.4924 147.116V90.2824C79.2928 89.54 78.4113 88.6755 77.8481 87.6888C77.2838 86.7032 77.0016 85.5623 77.0016 84.266C77.0016 82.4054 77.6975 80.7793 79.0891 79.3876C80.4808 77.996 82.1122 77.3002 83.9832 77.3002C85.8543 77.3002 87.4856 77.996 88.8773 79.3876C90.269 80.7793 90.9648 82.4002 90.9648 84.2503C90.9648 85.5384 90.6826 86.6869 90.1183 87.6957C89.5551 88.7046 88.6737 89.5668 87.474 90.2824V147.116H80.4924ZM40.7777 129.931C34.6827 124.157 29.8875 117.366 26.3921 109.557C22.8966 101.748 21.1489 93.3363 21.1489 84.3219C21.1489 75.6217 22.7977 67.4468 26.0954 59.7973C29.393 52.149 33.8682 45.4955 39.521 39.8369C45.1737 34.1784 51.8214 29.6991 59.4639 26.3991C67.1052 23.098 75.2708 21.4474 83.9605 21.4474C92.6491 21.4474 100.818 23.0974 108.468 26.3974C116.116 29.6974 122.769 34.1755 128.428 39.8317C134.087 45.4891 138.566 52.1414 141.866 59.7886C145.167 67.4357 146.818 75.6065 146.818 84.3009C146.818 93.3107 145.07 101.732 141.574 109.564C138.079 117.395 133.284 124.184 127.189 129.931L122.382 124.99C127.734 119.887 131.982 113.827 135.123 106.81C138.265 99.7931 139.836 92.2838 139.836 84.2817C139.836 68.6895 134.425 55.4827 123.604 44.6612C112.782 33.8398 99.5754 28.429 83.9832 28.429C68.391 28.429 55.1842 33.8398 44.3627 44.6612C33.5412 55.4827 28.1305 68.6895 28.1305 84.2817C28.1305 92.3106 29.7014 99.8158 32.8431 106.797C35.9848 113.779 40.2901 119.83 45.759 124.949L40.7777 129.931ZM60.5006 110.208C56.9656 106.994 54.1777 103.164 52.1367 98.7179C50.0958 94.273 49.0753 89.4609 49.0753 84.2817C49.0753 74.5855 52.466 66.3431 59.2475 59.5547C66.0289 52.7674 74.2637 49.3738 83.9518 49.3738C93.6399 49.3738 101.885 52.7727 108.688 59.5704C115.49 66.3681 118.891 74.6227 118.891 84.3341C118.891 89.4819 117.871 94.2846 115.83 98.7424C113.789 103.199 111.001 107.021 107.466 110.208L102.484 105.227C105.393 102.55 107.692 99.4085 109.379 95.8014C111.066 92.1942 111.91 88.3543 111.91 84.2817C111.91 76.602 109.175 70.0277 103.706 64.5588C98.2373 59.0898 91.663 56.3554 83.9832 56.3554C76.3035 56.3554 69.7291 59.0898 64.2602 64.5588C58.7913 70.0277 56.0569 76.602 56.0569 84.2817C56.0569 88.4707 56.9005 92.3397 58.5877 95.8886C60.2749 99.4376 62.573 102.55 65.482 105.227L60.5006 110.208Z" fill="#003B50"/>
</g>
</g>
</svg>
