<svg width="168" height="168" viewBox="0 0 168 168" fill="none" xmlns="http://www.w3.org/2000/svg">
<g id="book_4">
<mask id="mask0_11_299" style="mask-type:alpha" maskUnits="userSpaceOnUse" x="0" y="0" width="168" height="168">
<rect id="Bounding box" x="0.265381" y="0.00238037" width="167.558" height="167.558" fill="#D9D9D9"/>
</mask>
<g mask="url(#mask0_11_299)">
<path id="book_4_2" d="M43.7659 146.616C39.4397 146.616 35.7627 145.127 32.735 142.151C29.7062 139.176 28.1918 135.562 28.1918 131.31V36.5213C28.1918 32.1951 29.7062 28.5181 32.735 25.4904C35.7627 22.4616 39.4397 20.9471 43.7659 20.9471H116.268V122.987H43.7659C41.4294 122.987 39.4135 123.782 37.7181 125.372C36.0216 126.963 35.1734 128.934 35.1734 131.286C35.1734 133.638 36.0216 135.617 37.7181 137.224C39.4135 138.831 41.4294 139.634 43.7659 139.634H132.916V34.9103H139.897V146.616H43.7659ZM58.8025 116.005H109.286V27.9287H58.8025V116.005ZM51.821 116.005V27.9287H43.7659C41.3317 27.9287 39.2908 28.777 37.6431 30.4735C35.9966 32.1689 35.1734 34.1848 35.1734 36.5213V118.838C36.4266 118.041 37.7618 117.369 39.179 116.824C40.5963 116.278 42.1253 116.005 43.7659 116.005H51.821Z" fill="#003B50"/>
</g>
</g>
</svg>
