<svg width="749" height="751" viewBox="0 0 749 751"  xmlns="http://www.w3.org/2000/svg">
<path d="M14.7294 304.179L5.94297 299.433L5.97369 299.325L15.9275 298.726L16.4498 296.345L3.9307 289.617L3.36234 292.229L12.6403 296.791L12.625 296.914L2.241 297.328L1.71873 299.694L10.9506 304.425L10.9353 304.548L0.582025 304.794L0.0136719 307.39L14.1918 306.576L14.7294 304.179Z" fill="white"/>
<path d="M7.5855 287.882C8.46107 288.68 9.59778 289.279 11.0263 289.648C12.4395 290.032 13.7299 290.094 14.8819 289.832C16.034 289.571 17.0017 289.064 17.7851 288.281C18.5685 287.513 19.1215 286.545 19.4287 285.393C19.736 284.241 19.7513 283.135 19.4595 282.075C19.1676 281.015 18.5839 280.094 17.7083 279.28C16.8328 278.481 15.696 277.882 14.2675 277.498C12.8389 277.114 11.5486 277.052 10.3965 277.313C9.24448 277.574 8.27674 278.081 7.49334 278.849C6.70993 279.617 6.15694 280.585 5.84972 281.737C5.5425 282.889 5.52714 283.995 5.819 285.055C6.11086 286.115 6.69457 287.037 7.57014 287.851L7.5855 287.882ZM8.01561 282.336C8.2153 281.614 8.55324 281.031 9.06015 280.57C9.56705 280.109 10.1969 279.817 10.9803 279.694C11.7637 279.571 12.6392 279.633 13.6377 279.909C14.6361 280.186 15.4503 280.554 16.0493 281.061C16.6638 281.553 17.0632 282.121 17.2782 282.766C17.4933 283.412 17.4933 284.087 17.3089 284.809C17.1092 285.531 16.7713 286.115 16.2644 286.576C15.7575 287.037 15.1277 287.329 14.3443 287.452C13.5609 287.574 12.6853 287.513 11.6869 287.236C10.6884 286.975 9.87427 286.591 9.2752 286.084C8.67612 285.577 8.26138 285.024 8.04633 284.379C7.84664 283.734 7.83127 283.058 8.03097 282.336H8.01561Z" fill="white"/>
<path d="M22.2555 274.733L17.4629 273.273L18.2003 270.862L23.7763 269.756L24.5904 267.114L18.5228 268.358C18.5228 268.266 18.5228 268.158 18.5228 268.066C18.4 267.267 18.0927 266.607 17.5858 266.069C17.0789 265.532 16.403 265.117 15.5736 264.871C14.7441 264.61 13.9607 264.564 13.2233 264.733C12.486 264.886 11.8409 265.255 11.2879 265.839C10.7349 266.423 10.3048 267.206 9.99755 268.204L8.49219 273.105L21.5643 277.114L22.2863 274.748L22.2555 274.733ZM11.8255 269.172C12.0098 268.573 12.2402 268.128 12.5321 267.805C12.824 267.482 13.1619 267.283 13.5459 267.206C13.9299 267.129 14.36 267.16 14.8209 267.298C15.2817 267.436 15.6504 267.651 15.9115 267.928C16.1726 268.204 16.3262 268.558 16.3723 268.988C16.4184 269.418 16.3723 269.925 16.1726 270.509L15.4967 272.69L11.1496 271.353L11.8101 269.187L11.8255 269.172Z" fill="white"/>
<path d="M25.9123 263.197L22.0567 261.876L20.8586 259.848L27.7249 257.897L28.6926 255.086L19.8294 257.682L15.7434 250.693L14.7603 253.55L18.9692 260.631L18.9231 260.8L12.9785 258.757L12.1797 261.092L25.1135 265.532L25.9123 263.197Z" fill="white"/>
<path d="M33.1912 249.019L19.52 238.988L18.752 240.969L32.4385 250.985L33.1912 249.019Z" fill="white"/>
<path d="M25.6199 233.781C26.3572 234.702 27.4171 235.455 28.7535 236.039C30.1053 236.622 31.3649 236.883 32.5477 236.807C33.7305 236.73 34.7596 236.361 35.6506 235.716C36.5415 235.071 37.2174 234.195 37.6936 233.105C38.0161 232.352 38.2005 231.63 38.2466 230.923C38.2926 230.217 38.2158 229.541 38.0161 228.911C37.8165 228.281 37.5246 227.713 37.1252 227.206C36.7258 226.699 36.2496 226.269 35.6813 225.916L34.6675 228.205C35.0054 228.435 35.2819 228.696 35.4816 229.003C35.6813 229.311 35.8349 229.633 35.9117 229.986C35.9885 230.34 36.0192 230.693 35.9731 231.062C35.9271 231.43 35.8349 231.814 35.6659 232.183C35.3741 232.859 34.944 233.397 34.3756 233.765C33.8073 234.149 33.1467 234.349 32.3633 234.364C31.5799 234.364 30.7044 234.18 29.752 233.765C28.815 233.35 28.0777 232.859 27.5554 232.275C27.0331 231.691 26.7105 231.062 26.603 230.386C26.4955 229.71 26.5876 229.034 26.8795 228.343C27.0485 227.959 27.2482 227.621 27.4939 227.329C27.7397 227.037 28.0316 226.807 28.3388 226.638C28.6614 226.469 28.9993 226.361 29.368 226.3C29.7366 226.254 30.1207 226.284 30.52 226.377L31.5185 224.088C30.7812 223.873 30.0746 223.811 29.3987 223.873C28.7228 223.934 28.093 224.119 27.5093 224.426C26.9256 224.733 26.4033 225.132 25.9579 225.655C25.497 226.162 25.1284 226.776 24.8211 227.467C24.345 228.558 24.176 229.648 24.3142 230.739C24.4525 231.83 24.8826 232.828 25.6353 233.75L25.6199 233.781Z" fill="white"/>
<path d="M41.5018 224.18L38.9519 221.707L41.1792 217.068L44.7122 217.498L45.8643 215.117L31.4558 213.55L30.1348 216.3L40.3805 226.561L41.5172 224.18H41.5018ZM33.3298 216.1L39.1055 216.822L37.4619 220.248L33.2991 216.192L33.3452 216.1H33.3298Z" fill="white"/>
<path d="M47.7698 211.446L43.3306 209.126L44.498 206.899L50.1815 206.838L51.4565 204.395L45.2507 204.503C45.2507 204.411 45.2967 204.303 45.2967 204.211C45.3275 203.412 45.1278 202.69 44.7438 202.06C44.3444 201.431 43.7607 200.908 42.9773 200.509C42.2092 200.11 41.4412 199.91 40.6885 199.925C39.9358 199.941 39.2292 200.186 38.584 200.647C37.9235 201.108 37.3552 201.815 36.879 202.736L34.498 207.283L46.6178 213.627L47.7698 211.43V211.446ZM38.538 204.042C38.8298 203.489 39.137 203.09 39.475 202.828C39.8129 202.567 40.1816 202.429 40.581 202.414C40.9803 202.414 41.3951 202.506 41.8252 202.736C42.2553 202.967 42.5779 203.228 42.7776 203.55C42.9773 203.873 43.0694 204.242 43.0387 204.672C43.008 205.102 42.8544 205.578 42.5625 206.131L41.5026 208.159L37.4781 206.054L38.538 204.042Z" fill="white"/>
<path d="M56.6944 195.102L54.8972 194.088L51.7175 199.71L48.4609 197.882L51.3949 192.69L49.5823 191.676L46.6484 196.853L43.4226 195.025L46.5716 189.449L44.759 188.42L40.3965 196.162L52.3012 202.89L56.6944 195.102Z" fill="white"/>
<path d="M62.5181 185.44L60.7516 184.365L57.3875 189.895L54.2078 187.959L57.2954 182.875L55.5135 181.784L52.426 186.884L49.2463 184.964L52.5796 179.48L50.7977 178.405L46.1895 186.008L57.8791 193.09L62.5181 185.44Z" fill="white"/>
<path d="M65.1452 181.339L60.9517 178.604L62.3342 176.485L68.0023 176.961L69.5077 174.641L63.348 174.165C63.3634 174.073 63.3941 173.981 63.4094 173.889C63.5016 173.09 63.3941 172.368 63.0561 171.707C62.7182 171.047 62.1806 170.478 61.4433 170.002C60.7059 169.526 59.9686 169.265 59.2159 169.219C58.4632 169.173 57.7413 169.342 57.05 169.741C56.3588 170.14 55.7136 170.786 55.1453 171.661L52.3496 175.962L63.8088 183.412L65.1606 181.339H65.1452ZM56.6507 173.105C56.9886 172.583 57.3419 172.214 57.7106 171.984C58.0792 171.753 58.4479 171.661 58.8473 171.677C59.2466 171.707 59.646 171.846 60.0454 172.122C60.4448 172.383 60.7367 172.69 60.921 173.028C61.09 173.366 61.1514 173.75 61.0746 174.165C60.9978 174.595 60.7981 175.056 60.4602 175.578L59.2159 177.498L55.4064 175.025L56.6507 173.12V173.105Z" fill="white"/>
<path d="M146.125 84.78C145.679 84.5803 145.203 84.4728 144.711 84.4574C144.22 84.4574 143.728 84.5189 143.221 84.6571C142.715 84.7954 142.238 84.9797 141.747 85.2101L140.549 85.7631C140.288 85.886 140.026 85.9935 139.75 86.0857C139.473 86.1779 139.197 86.2393 138.936 86.27C138.675 86.3008 138.413 86.27 138.183 86.1932C137.953 86.1164 137.738 85.9628 137.569 85.7324C137.354 85.4559 137.246 85.164 137.231 84.8261C137.231 84.4882 137.308 84.1502 137.492 83.7969C137.676 83.4436 137.983 83.1057 138.383 82.7831C138.951 82.3223 139.519 82.0765 140.088 82.0458C140.656 82.0151 141.132 82.1994 141.547 82.6141L143.406 81.1241C142.914 80.5251 142.315 80.1257 141.624 79.926C140.917 79.7263 140.18 79.7263 139.397 79.926C138.613 80.1257 137.845 80.5251 137.092 81.1241C136.34 81.7232 135.787 82.3837 135.403 83.121C135.019 83.8584 134.85 84.5957 134.88 85.3484C134.911 86.1011 135.188 86.7769 135.695 87.4067C136.309 88.1748 137.046 88.5742 137.922 88.6356C138.798 88.6817 139.765 88.482 140.825 88.0058L142.284 87.3453C142.745 87.1302 143.175 86.9766 143.559 86.8691C143.943 86.7616 144.297 86.7309 144.604 86.7923C144.911 86.8537 145.172 87.0074 145.403 87.2838C145.648 87.5911 145.771 87.929 145.771 88.2977C145.771 88.6663 145.664 89.0503 145.449 89.4344C145.234 89.8184 144.911 90.1717 144.496 90.5096C144.097 90.8322 143.682 91.0626 143.252 91.2009C142.822 91.3391 142.423 91.3698 142.023 91.2777C141.624 91.1855 141.255 90.9705 140.933 90.6172L139.028 92.1379C139.627 92.8291 140.288 93.2746 141.025 93.4896C141.762 93.7047 142.546 93.7047 143.36 93.4896C144.174 93.2592 145.003 92.8138 145.833 92.1532C146.693 91.462 147.307 90.7554 147.707 90.0027C148.091 89.25 148.26 88.5127 148.198 87.7908C148.137 87.0688 147.86 86.3776 147.354 85.7631C146.985 85.3023 146.57 84.9644 146.125 84.7647V84.78Z" fill="white"/>
<path d="M152.086 72.6756C151.38 72.353 150.627 72.2455 149.828 72.353C149.014 72.4606 148.2 72.8446 147.355 73.4744L143.254 76.5466L151.441 87.4989L153.423 86.0089L150.658 82.3069L152.747 80.7401C153.592 80.1103 154.191 79.419 154.529 78.6817C154.867 77.9444 154.99 77.1764 154.882 76.4083C154.775 75.6403 154.452 74.9029 153.93 74.2117C153.407 73.5205 152.793 73.0136 152.102 72.6756H152.086ZM152.271 78.1594C152.086 78.5588 151.748 78.9582 151.257 79.3115L149.429 80.6786L146.464 76.7155L148.277 75.3638C148.768 74.9951 149.245 74.7801 149.675 74.7032C150.105 74.6264 150.52 74.7033 150.888 74.8722C151.257 75.0412 151.595 75.333 151.887 75.7324C152.179 76.1165 152.363 76.5158 152.424 76.9306C152.501 77.3453 152.44 77.7601 152.255 78.1594H152.271Z" fill="white"/>
<path d="M155.174 67.7922L153.16 69.2273L161.093 80.3614L163.107 78.9263L155.174 67.7922Z" fill="white"/>
<path d="M166.588 70.433L171.626 73.0751L173.915 71.5236L168.416 68.6972C168.462 68.6204 168.523 68.5436 168.569 68.4668C168.969 67.7756 169.138 67.0536 169.092 66.3163C169.03 65.5789 168.769 64.8416 168.277 64.1197C167.786 63.3977 167.202 62.8754 166.542 62.5375C165.866 62.1996 165.128 62.0767 164.345 62.1842C163.546 62.2764 162.717 62.6297 161.841 63.2134L157.602 66.0859L165.282 77.4068L167.325 76.009L164.514 71.8615L166.603 70.4483L166.588 70.433ZM162.671 65.1181C163.178 64.7648 163.654 64.5651 164.084 64.4883C164.514 64.4115 164.898 64.473 165.251 64.6573C165.605 64.8416 165.912 65.1181 166.188 65.5329C166.465 65.9322 166.603 66.3316 166.634 66.7003C166.664 67.0843 166.557 67.453 166.342 67.8063C166.111 68.1749 165.743 68.5282 165.236 68.8662L163.347 70.1411L160.797 66.3777L162.671 65.1028V65.1181Z" fill="white"/>
<path d="M170.033 57.8108L167.955 59.1512L175.365 70.6402L177.443 69.2998L170.033 57.8108Z" fill="white"/>
<path d="M176.632 56.0859L182.7 65.9783L184.789 64.688L178.737 54.7956L182.331 52.599L181.256 50.8171L171.947 56.516L173.038 58.2979L176.632 56.0859Z" fill="white"/>
<path d="M189.645 59.2502C190.413 59.665 191.258 59.8647 192.195 59.8186C193.116 59.7725 194.069 59.4653 195.052 58.9276C196.019 58.3747 196.757 57.7141 197.279 56.9461C197.801 56.1781 198.078 55.3486 198.109 54.473C198.139 53.5974 197.924 52.7372 197.433 51.877L193.039 44.1044L190.889 45.3179L195.19 52.9062C195.466 53.3977 195.605 53.9046 195.605 54.4116C195.605 54.9185 195.466 55.3946 195.19 55.8401C194.914 56.2856 194.499 56.6696 193.961 56.9768C193.424 57.284 192.886 57.4376 192.364 57.453C191.841 57.453 191.365 57.3301 190.92 57.069C190.474 56.8078 190.121 56.4238 189.844 55.9323L185.559 48.3286L183.408 49.5422L187.801 57.3148C188.278 58.175 188.907 58.8048 189.675 59.2195L189.645 59.2502Z" fill="white"/>
<path d="M203.575 53.9815L203.022 50.4638L207.585 48.0983L210.15 50.5714L212.5 49.3579L201.932 39.4347L199.213 40.8479L201.241 55.2103L203.591 53.9968L203.575 53.9815ZM201.916 42.5991L206.095 46.639L202.715 48.3901L201.824 42.6451L201.916 42.5991Z" fill="white"/>
<path d="M221.718 44.9646L220.827 43.0906L215.389 45.6866L210.397 35.2258L208.154 36.2857L214.053 48.6205L221.718 44.9646Z" fill="white"/>
<path d="M225.206 33.659C225.605 34.0123 226.066 34.3349 226.588 34.596C226.665 34.6267 226.742 34.6728 226.818 34.7035C226.496 35.2105 226.235 35.6866 226.02 36.1475C225.789 36.639 225.666 37.1152 225.62 37.5914C225.574 38.0676 225.666 38.5591 225.881 39.066C226.173 39.7266 226.588 40.2642 227.141 40.6482C227.694 41.0322 228.355 41.2473 229.107 41.3087C229.86 41.3548 230.659 41.2012 231.519 40.8325C232.087 40.5868 232.625 40.2488 233.147 39.8034C233.639 39.3886 234.007 38.8971 234.268 38.3441L235.482 38.9278L237.894 37.8986L235.113 36.5161C235.129 36.424 235.159 36.3472 235.19 36.255C235.298 35.7327 235.313 35.1336 235.236 34.4731C235.159 33.8126 234.96 33.0753 234.622 32.2919L232.717 33.106C232.994 33.7512 233.132 34.381 233.147 34.9954C233.147 35.1797 233.132 35.3487 233.116 35.5177L229.691 33.8126L230.229 32.891C230.597 32.2919 230.812 31.6928 230.92 31.0937C231.012 30.4947 230.935 29.9109 230.689 29.3119C230.474 28.805 230.136 28.3902 229.691 28.0523C229.245 27.7297 228.739 27.53 228.155 27.4686C227.571 27.4071 226.941 27.5147 226.281 27.8065C225.62 28.083 225.098 28.467 224.714 28.9586C224.33 29.4348 224.115 29.9724 224.038 30.5561C223.961 31.1398 224.038 31.7389 224.299 32.3226C224.53 32.8449 224.837 33.2903 225.252 33.6436L225.206 33.659ZM232.471 37.4839C232.333 37.7143 232.179 37.914 232.01 38.0983C231.657 38.4823 231.258 38.7742 230.812 38.9739C230.398 39.1428 230.014 39.2196 229.645 39.1889C229.276 39.1582 228.938 39.0353 228.662 38.851C228.385 38.6513 228.17 38.3902 228.032 38.0522C227.94 37.8372 227.909 37.5299 227.97 37.1459C228.017 36.7619 228.186 36.3318 228.477 35.8402L228.616 35.6098L232.502 37.4839H232.471ZM226.419 30.126C226.573 29.9109 226.772 29.7573 227.049 29.6345C227.448 29.4655 227.817 29.4501 228.139 29.6037C228.477 29.742 228.692 29.957 228.8 30.2335C228.938 30.5561 228.969 30.8633 228.908 31.1705C228.831 31.4778 228.692 31.8157 228.447 32.169L227.94 32.9524C227.94 32.9524 227.863 32.9063 227.817 32.891C227.433 32.6913 227.11 32.4916 226.834 32.2765C226.557 32.0615 226.373 31.8157 226.25 31.5392C226.158 31.3088 226.127 31.0784 226.143 30.8326C226.173 30.5868 226.265 30.3564 226.404 30.1414L226.419 30.126Z" fill="white"/>
<path d="M251.824 32.5991L251.087 30.6483L245.035 32.9217L243.729 29.4194L249.305 27.3304L248.568 25.3949L242.992 27.484L241.686 23.997L247.707 21.7544L246.97 19.8035L238.645 22.9218L243.437 35.7328L251.824 32.5991Z" fill="white"/>
<path d="M260.474 15.2106L259.736 25.9018L259.583 25.9478L252.609 17.8219L249.736 18.7743L254.037 31.7543L256.295 31.0016L253.331 22.0769L253.454 22.0308L259.997 29.742L261.672 29.189L262.317 19.1122L262.44 19.0662L265.404 27.9908L267.647 27.2382L263.346 14.2582L260.474 15.2106Z" fill="white"/>
<path d="M278.139 13.1676C277.325 12.3074 276.388 11.7391 275.328 11.4626C274.268 11.1861 273.162 11.2168 272.01 11.5394C270.858 11.8619 269.906 12.4303 269.153 13.2291C268.4 14.0278 267.893 14.9956 267.663 16.163C267.417 17.3151 267.509 18.6054 267.909 20.0186C268.308 21.4318 268.923 22.5685 269.737 23.4287C270.551 24.2889 271.488 24.8573 272.548 25.1337C273.608 25.4102 274.714 25.3795 275.866 25.0569C277.018 24.7344 277.97 24.166 278.723 23.3672C279.475 22.5685 279.982 21.6007 280.213 20.4333C280.459 19.2813 280.366 17.9909 279.967 16.5624C279.568 15.1492 278.953 14.0125 278.139 13.1523V13.1676ZM277.832 19.9264C277.724 20.6945 277.448 21.3396 276.987 21.8465C276.542 22.3534 275.958 22.7067 275.251 22.9218C274.529 23.1215 273.853 23.1368 273.208 22.9218C272.563 22.7221 271.979 22.3227 271.472 21.7236C270.966 21.1246 270.566 20.3258 270.29 19.3273C270.013 18.3289 269.921 17.4379 270.028 16.6699C270.151 15.9019 270.428 15.2567 270.873 14.7498C271.319 14.2429 271.903 13.8896 272.609 13.6745C273.316 13.4595 274.007 13.4595 274.652 13.6745C275.297 13.8742 275.881 14.2736 276.388 14.8727C276.895 15.4718 277.294 16.2705 277.571 17.269C277.847 18.2674 277.939 19.1584 277.816 19.9264H277.832Z" fill="white"/>
<path d="M290.765 6.86963L280.166 9.48098L280.673 11.4933L284.774 10.4794L287.555 21.739L289.936 21.1552L287.155 9.89572L291.257 8.8819L290.765 6.86963Z" fill="white"/>
<path d="M295.461 5.82455L293.047 6.35941L296.004 19.707L298.418 19.1722L295.461 5.82455Z" fill="white"/>
<path d="M310.104 6.00942C309.366 5.08777 308.475 4.44261 307.446 4.07395C306.417 3.70529 305.311 3.64384 304.128 3.8589C302.961 4.08931 301.947 4.5655 301.133 5.28746C300.303 6.00942 299.735 6.94643 299.382 8.08314C299.028 9.21984 299.013 10.5102 299.289 11.9541C299.566 13.398 300.073 14.5808 300.826 15.5024C301.563 16.4241 302.454 17.0693 303.483 17.4379C304.512 17.8066 305.618 17.8834 306.801 17.653C307.984 17.4226 308.982 16.9464 309.796 16.2244C310.626 15.5024 311.21 14.5654 311.547 13.4287C311.885 12.292 311.916 11.0017 311.64 9.55778C311.363 8.11386 310.856 6.93107 310.104 5.99406V6.00942ZM309.213 12.7221C309.028 13.4902 308.69 14.1046 308.214 14.5654C307.723 15.0416 307.108 15.3335 306.386 15.4871C305.649 15.6253 304.973 15.5792 304.343 15.3181C303.713 15.0723 303.176 14.6269 302.715 13.9817C302.269 13.3366 301.932 12.5071 301.747 11.4933C301.548 10.4794 301.548 9.5885 301.716 8.82046C301.901 8.05242 302.239 7.43798 302.73 6.97715C303.222 6.51633 303.836 6.20911 304.558 6.0555C305.28 5.91725 305.971 5.96334 306.601 6.22447C307.231 6.48561 307.769 6.93107 308.229 7.56087C308.675 8.20602 309.013 9.03551 309.197 10.0493C309.397 11.0631 309.397 11.9541 309.228 12.7221H309.213Z" fill="white"/>
<path d="M321.748 1.06322L323.176 10.2644L323.053 10.2797L315.265 2.06168L313.084 2.39962L315.158 15.9018L317.615 15.5332L316.187 6.31664L316.31 6.30128L324.098 14.5347L326.264 14.1968L324.19 0.679199L321.748 1.06322Z" fill="white"/>
<path d="M465.831 15.5639L471.975 17.1L470.562 22.7374L472.974 23.3365L476.292 10.0647L473.88 9.46561L472.482 15.0877L466.338 13.5516L467.736 7.92952L465.339 7.33044L462.021 20.5869L464.418 21.2013L465.831 15.5639Z" fill="white"/>
<path d="M485.171 20.7559L485.739 18.759L480.01 17.1307L481.039 13.5516L487.199 15.3181L487.767 13.3212L479.226 10.8788L475.463 24.0278L484.065 26.4855L484.633 24.4886L478.412 22.7067L479.441 19.1123L485.171 20.7559Z" fill="white"/>
<path d="M488 27.699L490.104 24.8419L495.004 26.424L495.051 29.9878L497.57 30.8019L497.186 16.3012L494.283 15.3642L485.496 26.9002L488.015 27.7143L488 27.699ZM494.805 18.4671L494.912 18.4978L494.989 24.3042L491.364 23.1368L494.82 18.4671H494.805Z" fill="white"/>
<path d="M507.858 32.2919L502.19 30.2489L506.123 19.3427L503.788 18.4978L499.164 31.3703L507.167 34.2427L507.858 32.2919Z" fill="white"/>
<path d="M514.74 37.192L518.995 26.3933L522.927 27.9448L523.68 26.0093L513.542 22.0155L512.774 23.9509L516.706 25.5024L512.451 36.2857L514.74 37.192Z" fill="white"/>
<path d="M531.715 35.7788L525.909 33.2443L528.213 27.9448L525.939 26.9463L520.486 39.4808L522.76 40.4793L525.079 35.149L530.886 37.6836L528.566 43.0138L530.84 43.9969L536.308 31.4624L534.019 30.4793L531.715 35.7788Z" fill="white"/>
<path d="M656.997 130.724L658.671 132.614L656.705 137.944L658.533 140.018L660.638 134.211C660.73 134.257 660.807 134.303 660.899 134.334C661.636 134.641 662.373 134.718 663.095 134.58C663.817 134.426 664.509 134.073 665.169 133.489C665.83 132.906 666.275 132.26 666.521 131.554C666.767 130.847 666.797 130.095 666.598 129.327C666.398 128.543 665.953 127.775 665.246 126.976L661.851 123.136L651.605 132.199L653.249 134.058L656.997 130.74V130.724ZM661.943 126.347L663.449 128.052C663.863 128.512 664.125 128.958 664.247 129.373C664.37 129.787 664.37 130.171 664.247 130.555C664.125 130.924 663.863 131.277 663.51 131.6C663.141 131.923 662.773 132.122 662.404 132.199C662.036 132.276 661.651 132.23 661.267 132.045C660.883 131.861 660.484 131.539 660.069 131.093L658.564 129.388L661.959 126.377L661.943 126.347Z" fill="white"/>
<path d="M665.326 148.19L666.923 146.853L662.791 141.876L665.664 139.495L669.458 144.088L671.071 142.752L667.261 138.174L670.118 135.809L674.22 140.74L675.817 139.419L670.134 132.568L659.611 141.293L665.326 148.19Z" fill="white"/>
<path d="M672.006 145.563C670.839 146.454 670.009 147.452 669.518 148.512C669.026 149.588 668.842 150.663 668.98 151.753C669.118 152.844 669.548 153.858 670.286 154.81C670.793 155.455 671.33 155.962 671.945 156.346C672.544 156.73 673.174 156.976 673.819 157.114C674.464 157.237 675.109 157.253 675.754 157.145C676.399 157.038 676.999 156.823 677.567 156.5L676.046 154.518C675.677 154.703 675.324 154.81 674.956 154.841C674.587 154.872 674.234 154.841 673.88 154.749C673.527 154.657 673.204 154.488 672.913 154.273C672.621 154.058 672.329 153.781 672.083 153.459C671.638 152.875 671.376 152.245 671.315 151.569C671.254 150.893 671.407 150.217 671.76 149.511C672.129 148.82 672.713 148.144 673.542 147.498C674.356 146.869 675.14 146.469 675.908 146.285C676.676 146.101 677.383 146.131 678.028 146.346C678.673 146.561 679.226 146.976 679.687 147.56C679.948 147.898 680.132 148.236 680.27 148.589C680.409 148.942 680.47 149.311 680.47 149.664C680.47 150.033 680.393 150.386 680.27 150.724C680.132 151.078 679.932 151.4 679.641 151.707L681.177 153.689C681.714 153.136 682.114 152.552 682.39 151.922C682.651 151.293 682.79 150.663 682.805 150.002C682.805 149.342 682.713 148.697 682.482 148.051C682.252 147.406 681.899 146.777 681.438 146.177C680.7 145.24 679.84 144.565 678.811 144.15C677.797 143.75 676.707 143.643 675.539 143.858C674.372 144.073 673.204 144.626 672.037 145.517L672.006 145.563Z" fill="white"/>
<path d="M676.69 163.028L680.761 160.094L682.236 162.137L679.747 167.237L681.36 169.48L684.033 163.904C684.11 163.95 684.186 164.011 684.279 164.058C684.985 164.442 685.707 164.595 686.444 164.518C687.182 164.442 687.904 164.15 688.626 163.643C689.332 163.136 689.839 162.537 690.162 161.861C690.484 161.185 690.577 160.448 690.454 159.649C690.331 158.85 689.962 158.036 689.348 157.176L686.352 153.013L675.262 161.001L676.706 163.013L676.69 163.028ZM687.443 158.098C687.812 158.604 688.027 159.065 688.103 159.48C688.18 159.895 688.149 160.294 687.981 160.647C687.812 161.001 687.535 161.323 687.136 161.6C686.736 161.876 686.352 162.045 685.984 162.091C685.6 162.137 685.231 162.045 684.862 161.83C684.494 161.615 684.125 161.246 683.772 160.755L682.435 158.896L686.122 156.239L687.443 158.082V158.098Z" fill="white"/>
<path d="M687.305 178.328L689.025 177.176L685.415 171.799L688.503 169.71L691.836 174.657L693.557 173.504L690.239 168.558L693.311 166.485L696.89 171.815L698.61 170.647L693.649 163.274L682.312 170.908L687.305 178.328Z" fill="white"/>
<path d="M689.516 181.769L692.973 180.939L695.692 185.302L693.433 188.051L694.831 190.294L703.863 178.958L702.235 176.362L688.088 179.541L689.486 181.784L689.516 181.769ZM700.715 179.173L697.028 183.658L695.016 180.432L700.668 179.08L700.73 179.173H700.715Z" fill="white"/>
<path d="M697.521 194.871L698.75 197.007L708.781 191.2L710.901 194.856L712.698 193.812L707.23 184.365L705.432 185.409L707.552 189.065L697.521 194.871Z" fill="white"/>
<path d="M713.81 195.903L701.82 202.472L703.009 204.641L714.998 198.071L713.81 195.903Z" fill="white"/>
<path d="M710.195 203.458C708.889 204.134 707.89 204.948 707.215 205.916C706.539 206.884 706.17 207.913 706.093 209.019C706.032 210.109 706.278 211.2 706.815 212.26C707.368 213.32 708.105 214.149 709.027 214.733C709.949 215.317 711.009 215.624 712.191 215.624C713.374 215.624 714.619 215.301 715.94 214.626C717.245 213.95 718.244 213.136 718.935 212.168C719.611 211.2 719.979 210.171 720.056 209.08C720.118 207.99 719.872 206.899 719.334 205.839C718.781 204.779 718.044 203.95 717.122 203.366C716.185 202.782 715.141 202.475 713.958 202.475C712.775 202.475 711.531 202.798 710.21 203.474L710.195 203.458ZM717.337 206.853C717.675 207.513 717.814 208.174 717.752 208.85C717.691 209.526 717.414 210.171 716.923 210.785C716.431 211.4 715.724 211.937 714.803 212.414C713.881 212.89 713.036 213.151 712.238 213.182C711.454 213.228 710.763 213.074 710.179 212.736C709.596 212.398 709.135 211.891 708.781 211.231C708.443 210.57 708.305 209.894 708.367 209.234C708.428 208.558 708.705 207.913 709.196 207.298C709.688 206.684 710.394 206.146 711.316 205.67C712.238 205.194 713.098 204.933 713.881 204.902C714.665 204.856 715.356 205.01 715.94 205.348C716.523 205.686 716.984 206.192 717.322 206.853H717.337Z" fill="white"/>
<path d="M711.869 221.983L720.302 218.036L720.363 218.143L714.649 227.928L715.571 229.925L727.967 224.134L726.922 221.891L718.474 225.839L718.428 225.731L724.142 215.962L723.205 213.95L710.824 219.741L711.869 221.983Z" fill="white"/>
<path d="M726.077 235.424C726.077 235.424 726 235.578 725.954 235.639C725.463 235.317 724.971 235.04 724.526 234.825C724.034 234.595 723.558 234.457 723.082 234.41C722.605 234.364 722.114 234.441 721.607 234.656C720.931 234.933 720.409 235.347 720.009 235.9C719.61 236.453 719.395 237.114 719.334 237.851C719.272 238.604 719.426 239.403 719.779 240.278C720.009 240.847 720.347 241.4 720.777 241.907C721.192 242.398 721.668 242.767 722.221 243.043L721.622 244.241L722.621 246.668L724.034 243.903C724.126 243.934 724.203 243.965 724.295 243.98C724.817 244.088 725.416 244.118 726.077 244.057C726.737 243.996 727.475 243.796 728.274 243.473L727.49 241.553C726.845 241.814 726.215 241.953 725.601 241.953C725.416 241.953 725.247 241.922 725.078 241.907L726.83 238.496L727.736 239.049C728.335 239.418 728.934 239.664 729.518 239.756C730.117 239.864 730.701 239.787 731.3 239.541C731.822 239.326 732.237 239.003 732.575 238.573C732.897 238.128 733.097 237.621 733.174 237.037C733.235 236.453 733.143 235.824 732.866 235.163C732.59 234.503 732.221 233.965 731.745 233.581C731.269 233.197 730.747 232.966 730.163 232.874C729.579 232.798 728.98 232.874 728.396 233.12C727.874 233.335 727.429 233.642 727.06 234.042C726.691 234.441 726.384 234.902 726.108 235.409L726.077 235.424ZM723.112 241.277C722.897 241.138 722.682 240.985 722.498 240.816C722.114 240.463 721.822 240.048 721.638 239.602C721.469 239.188 721.407 238.804 721.438 238.42C721.469 238.051 721.592 237.713 721.791 237.437C721.991 237.16 722.267 236.945 722.59 236.807C722.805 236.715 723.112 236.699 723.496 236.745C723.88 236.807 724.31 236.976 724.787 237.268L725.017 237.406L723.097 241.261L723.112 241.277ZM728.412 235.716C728.627 235.44 728.888 235.255 729.149 235.132C729.38 235.04 729.61 235.009 729.856 235.04C730.102 235.071 730.332 235.163 730.547 235.317C730.762 235.47 730.916 235.685 731.023 235.947C731.192 236.346 731.192 236.715 731.039 237.037C730.885 237.36 730.685 237.59 730.409 237.698C730.086 237.836 729.764 237.867 729.456 237.79C729.149 237.713 728.811 237.559 728.473 237.314L727.69 236.807C727.69 236.807 727.736 236.73 727.751 236.684C727.951 236.315 728.166 235.993 728.381 235.716H728.412Z" fill="white"/>
<path d="M725.587 254.641L731.056 252.674L732.976 258.02L734.926 257.313L733.006 251.968L736.493 250.708L738.628 256.622L740.579 255.916L737.615 247.667L724.742 252.306L725.587 254.641Z" fill="white"/>
<path d="M736.336 271.691L744.831 268.942L744.063 266.591L735.753 269.28C735.215 269.449 734.693 269.495 734.186 269.387C733.679 269.28 733.249 269.065 732.865 268.696C732.481 268.343 732.189 267.851 732.005 267.252C731.82 266.653 731.759 266.1 731.866 265.593C731.958 265.086 732.189 264.641 732.527 264.257C732.88 263.873 733.326 263.611 733.863 263.427L742.173 260.739L741.405 258.389L732.911 261.138C731.974 261.446 731.237 261.922 730.668 262.582C730.1 263.243 729.747 264.042 729.608 264.963C729.47 265.885 729.562 266.883 729.916 267.943C730.253 269.003 730.76 269.863 731.406 270.524C732.051 271.184 732.803 271.63 733.664 271.83C734.508 272.045 735.399 271.998 736.336 271.691Z" fill="white"/>
<path d="M748.119 280.339L739.149 282.874L739.118 282.751L746.338 274.026L745.739 271.891L732.574 275.608L733.25 277.989L742.221 275.47L742.252 275.578L735.032 284.303L735.631 286.422L748.795 282.705L748.119 280.339Z" fill="white"/>
<path d="M8.41807 417.635C8.51023 418.664 8.78673 419.509 9.23219 420.185C9.67766 420.861 10.246 421.337 10.9526 421.629C11.6592 421.921 12.4273 422.028 13.2875 421.951C14.1323 421.875 14.8696 421.613 15.4994 421.199C16.1292 420.769 16.6054 420.2 16.928 419.463C17.2506 418.726 17.3581 417.85 17.2506 416.821L16.7744 411.813L3.42578 413.088L3.65619 415.5L8.17229 415.07L8.41807 417.62V417.635ZM15.2076 416.652C15.269 417.251 15.2076 417.758 15.054 418.157C14.885 418.557 14.6392 418.879 14.2859 419.094C13.948 419.309 13.5332 419.448 13.0571 419.494C12.5809 419.54 12.1508 419.494 11.7667 419.34C11.3827 419.186 11.0755 418.941 10.8297 418.572C10.584 418.203 10.4303 417.727 10.3843 417.128L10.1692 414.901L14.9925 414.44L15.2076 416.652Z" fill="white"/>
<path d="M19.0003 431.613L13.3782 432.351L12.5641 426.191L18.1862 425.454L17.879 423.057L4.5918 424.793L4.89901 427.189L10.5518 426.452L11.3506 432.612L5.71314 433.349L6.02036 435.761L19.3075 434.025L19.0003 431.613Z" fill="white"/>
<path d="M21.4727 447.189L21.0272 444.486L14.6371 442.228L14.6064 442.09L19.9212 437.881L19.4758 435.177L11.9797 441.368L7.04883 442.197L7.44821 444.578L12.3791 443.764L21.4727 447.189Z" fill="white"/>
<path d="M12.0396 459.678C12.7001 459.954 13.4221 460.016 14.1901 459.862C14.7585 459.754 15.2347 459.539 15.6187 459.248C16.0027 458.956 16.2946 458.587 16.525 458.157C16.7554 457.727 16.909 457.266 17.0165 456.774C17.124 456.268 17.1855 455.761 17.2009 455.238L17.2623 453.948C17.2623 453.672 17.293 453.38 17.3391 453.103C17.3852 452.811 17.4466 452.55 17.5388 452.304C17.631 452.059 17.7692 451.859 17.9382 451.69C18.1071 451.521 18.3376 451.414 18.6141 451.352C18.9366 451.291 19.2592 451.321 19.5511 451.46C19.8429 451.598 20.1041 451.828 20.3191 452.151C20.5342 452.473 20.7031 452.888 20.7953 453.38C20.9335 454.086 20.9028 454.685 20.6724 455.192C20.442 455.699 20.058 456.037 19.5203 456.206L19.9812 458.495C20.7185 458.326 21.3329 457.988 21.8245 457.481C22.316 456.959 22.654 456.314 22.8383 455.546C23.0226 454.778 23.0226 453.933 22.8383 452.996C22.654 452.074 22.3314 451.291 21.8552 450.63C21.3944 449.97 20.826 449.478 20.1501 449.186C19.4896 448.879 18.7677 448.802 17.9843 448.971C17.0472 449.155 16.356 449.632 15.9105 450.369C15.4651 451.106 15.2193 452.043 15.1579 453.195L15.0657 454.762C15.035 455.254 14.9889 455.699 14.9121 456.083C14.8353 456.467 14.697 456.774 14.5127 457.02C14.3284 457.266 14.0672 457.42 13.7293 457.496C13.3453 457.573 13.0073 457.527 12.6694 457.358C12.3468 457.189 12.0703 456.928 11.8245 456.575C11.5941 456.221 11.4252 455.776 11.3176 455.254C11.2101 454.762 11.1947 454.301 11.2716 453.856C11.333 453.426 11.502 453.057 11.7477 452.75C12.0089 452.443 12.3468 452.228 12.8076 452.089L12.3315 449.755C11.4712 449.97 10.7646 450.338 10.2424 450.891C9.7201 451.429 9.38216 452.105 9.21319 452.934C9.04422 453.748 9.07495 454.67 9.27464 455.684C9.48969 456.744 9.82763 457.604 10.3038 458.28C10.78 458.956 11.3484 459.432 12.0089 459.708L12.0396 459.678Z" fill="white"/>
<path d="M24.0922 459.714L11.0098 462.66L11.5429 465.027L24.6254 462.081L24.0922 459.714Z" fill="white"/>
<path d="M17.2943 477.435C17.9087 477.588 18.5385 477.635 19.1837 477.573L18.5999 475.192C18.2006 475.223 17.8319 475.177 17.494 475.054C17.156 474.931 16.8488 474.777 16.5723 474.547C16.2958 474.317 16.0654 474.055 15.8811 473.748C15.6967 473.441 15.5431 473.088 15.451 472.688C15.2666 471.982 15.2974 471.321 15.497 470.691C15.6967 470.062 16.1115 469.509 16.7106 469.017C17.3096 468.541 18.1084 468.172 19.1069 467.911C20.09 467.665 20.9502 467.619 21.7028 467.758C22.4555 467.896 23.0853 468.188 23.5769 468.648C24.0684 469.109 24.4064 469.693 24.5753 470.4C24.6829 470.799 24.7136 471.183 24.6982 471.552C24.6829 471.92 24.5907 472.274 24.4524 472.596C24.3142 472.919 24.1145 473.211 23.8534 473.472C23.5922 473.733 23.285 473.948 22.9164 474.102L23.5154 476.482C24.222 476.206 24.8057 475.837 25.2973 475.376C25.7888 474.916 26.1575 474.393 26.434 473.81C26.6951 473.226 26.8641 472.596 26.9102 471.92C26.9563 471.244 26.8948 470.553 26.7105 469.831C26.4186 468.695 25.9117 467.742 25.159 466.989C24.4064 466.221 23.454 465.714 22.3326 465.438C21.1959 465.162 19.9363 465.208 18.5385 465.561C17.1407 465.914 16.004 466.467 15.1437 467.235C14.2682 468.003 13.6845 468.894 13.3926 469.939C13.0854 470.968 13.0854 472.059 13.3619 473.195C13.5616 473.963 13.8534 474.639 14.2375 475.223C14.6215 475.807 15.0823 476.267 15.6199 476.636C16.1576 477.005 16.7259 477.266 17.3404 477.419L17.2943 477.435Z" fill="white"/>
<path d="M29.3849 480.676L15.1914 479.877L15.9134 482.366L19.4003 482.504L20.7981 487.343L17.9256 489.324L18.6476 491.813L30.199 483.533L29.3695 480.661L29.3849 480.676ZM22.5032 486.175L21.4586 482.596L27.1575 482.827L27.1883 482.934L22.5032 486.175Z" fill="white"/>
<path d="M32.6721 491.552L31.9348 489.232L19.1699 493.38L21.7505 501.306L23.686 500.676L21.8581 495.054L32.6721 491.552Z" fill="white"/>
<path d="M26.6656 509.094L30.0911 507.819L32.1341 513.303L34.0388 512.596L32.0112 507.112L35.4213 505.853L37.6026 511.751L39.5227 511.044L36.4812 502.872L23.916 507.527L26.9575 515.745L28.8776 515.038L26.6656 509.094Z" fill="white"/>
<path d="M43.4552 520.814L34.9914 524.27L34.9606 524.163L41.0282 514.869L40.1987 512.857L27.7871 517.926L28.7088 520.184L37.1726 516.728L37.2033 516.836L31.1511 526.129L31.9653 528.126L44.3769 523.057L43.4552 520.814Z" fill="white"/>
<path d="M48.8459 533.072L37.8014 534.224L37.74 534.101L45.9273 526.59L44.8367 524.163L34.5449 533.978L35.7892 536.713L49.9365 535.499L48.8459 533.072Z" fill="white"/>
<path d="M50.5309 536.711L38.4434 542.518L39.4943 544.706L51.5819 538.899L50.5309 536.711Z" fill="white"/>
<path d="M48.9243 551.336C49.5541 551.812 50.23 552.073 50.9519 552.104C51.6739 552.135 52.4266 551.966 53.1946 551.582C53.9627 551.198 54.5464 550.691 54.9611 550.076C55.3759 549.462 55.5756 548.771 55.5756 547.972C55.5756 547.189 55.3452 546.328 54.8843 545.422L52.6109 540.937L40.6602 547.02L41.7661 549.185L46.144 546.958L47.2653 549.155L44.0856 553.732L45.3145 556.144L48.7553 551.121C48.7553 551.121 48.8782 551.275 48.955 551.321L48.9243 551.336ZM51.889 544.024L52.9028 546.006C53.1793 546.543 53.3175 547.035 53.3482 547.45C53.3636 547.88 53.2714 548.248 53.041 548.571C52.826 548.894 52.5034 549.155 52.0887 549.37C51.6586 549.585 51.2592 549.692 50.8905 549.662C50.5218 549.646 50.1685 549.508 49.846 549.232C49.5234 548.97 49.2162 548.571 48.955 548.033L47.9412 546.037L51.9043 544.024H51.889Z" fill="white"/>
<path d="M57.7243 564.854C58.9839 564.147 59.9362 563.318 60.5814 562.35C61.2266 561.382 61.5491 560.353 61.5799 559.278C61.6106 558.202 61.3341 557.158 60.7657 556.129C60.1974 555.099 59.4447 554.316 58.523 553.763C57.6014 553.21 56.5568 552.949 55.3894 552.98C54.222 553.01 53.0238 553.364 51.7489 554.07C50.4893 554.762 49.5369 555.606 48.9071 556.574C48.262 557.542 47.9394 558.571 47.9087 559.646C47.878 560.722 48.1391 561.781 48.7074 562.795C49.2758 563.824 50.0285 564.608 50.9501 565.161C51.8718 565.714 52.9163 565.975 54.0837 565.944C55.2358 565.914 56.4493 565.56 57.7243 564.854ZM52.0254 563.164C51.4417 562.841 50.9655 562.381 50.6122 561.735C50.2589 561.09 50.1053 560.445 50.1514 559.785C50.1974 559.124 50.4432 558.479 50.904 557.864C51.3649 557.25 52.0408 556.697 52.9317 556.205C53.8226 555.714 54.6521 555.437 55.4201 555.376C56.1882 555.315 56.8641 555.437 57.4478 555.76C58.0315 556.083 58.5077 556.559 58.861 557.189C59.2143 557.834 59.3679 558.479 59.3218 559.139C59.2757 559.8 59.0299 560.445 58.5691 561.059C58.1083 561.674 57.4324 562.227 56.5415 562.718C55.6506 563.21 54.8211 563.487 54.053 563.548C53.285 563.609 52.6091 563.487 52.0254 563.164Z" fill="white"/>
<path d="M68.8921 570.46L61.0581 575.176L60.9966 575.069L65.5742 564.946L64.4528 563.087L52.9629 570L54.2225 572.073L62.0412 567.373L62.1026 567.465L57.5404 577.588L58.6464 579.446L70.1364 572.519L68.8921 570.46Z" fill="white"/>
<path d="M77.2632 583.486L66.956 585.499L66.8638 585.36L72.7931 576.697L71.1649 574.224L59.9668 581.582L61.2418 583.533L68.9529 578.463L69.0297 578.571L63.3769 586.712L64.3447 588.171L74.0374 586.221L74.1142 586.328L66.4184 591.382L67.6933 593.333L78.8914 585.96L77.2632 583.486Z" fill="white"/>
<path d="M72.2401 596.205L75.2202 594.085L78.6149 598.832L80.2739 597.665L76.8791 592.903L79.8438 590.783L83.4997 595.913L85.1433 594.731L80.0896 587.634L69.168 595.406L74.2524 602.549L75.9268 601.366L72.2401 596.205Z" fill="white"/>
<path d="M91.5199 603.164L84.2388 608.694L84.1774 608.601L87.6182 598.049L86.2972 596.313L75.6367 604.439L77.1114 606.374L84.3771 600.844L84.4385 600.921L81.013 611.489L82.3187 613.21L92.9792 605.084L91.5199 603.164Z" fill="white"/>
<path d="M92.3486 607.557L94.96 610.767L86.1582 617.956L87.6943 619.83L96.4807 612.626L99.1074 615.836L100.69 614.546L93.9154 606.267L92.3486 607.557Z" fill="white"/>
<path d="M180.244 691.612L175.574 688.57L177.556 685.529L182.732 688.877L183.838 687.172L176.634 682.487L169.322 693.731L171.35 695.053L174.468 690.275L179.138 693.317L180.244 691.612Z" fill="white"/>
<path d="M185.434 688.093L178.354 699.481L180.415 700.763L187.495 689.374L185.434 688.093Z" fill="white"/>
<path d="M196.756 694.976L192.132 702.856L192.025 702.794L191.21 691.719L189.336 690.613L182.547 702.18L184.651 703.409L189.275 695.529L189.367 695.59L190.181 706.665L192.055 707.756L198.845 696.205L196.756 694.976Z" fill="white"/>
<path d="M204.053 699.062L193.531 708.616L195.805 709.845L198.355 707.464L202.794 709.86L202.195 713.301L204.468 714.53L206.68 700.49L204.038 699.062H204.053ZM199.86 706.051L204.023 702.165L204.115 702.211L203.147 707.817L199.86 706.051Z" fill="white"/>
<path d="M219.599 707.065L215.544 715.252L215.452 715.206L213.839 704.208L211.888 703.255L205.943 715.267L208.125 716.343L212.18 708.155L212.272 708.201L213.885 719.184L215.82 720.152L221.765 708.14L219.599 707.065Z" fill="white"/>
<path d="M227.372 721.657C227.064 721.857 226.742 721.995 226.404 722.072C226.066 722.149 225.713 722.164 225.344 722.118C224.975 722.072 224.622 721.965 224.253 721.796C223.593 721.504 223.086 721.074 222.717 720.521C222.349 719.968 222.164 719.307 222.164 718.539C222.164 717.771 222.364 716.911 222.794 715.974C223.209 715.052 223.7 714.346 224.284 713.839C224.868 713.332 225.482 713.025 226.143 712.933C226.803 712.825 227.464 712.933 228.124 713.224C228.493 713.393 228.831 713.608 229.107 713.854C229.384 714.1 229.614 714.376 229.768 714.699C229.937 715.022 230.029 715.344 230.075 715.713C230.121 716.081 230.075 716.45 229.983 716.85L232.21 717.848C232.425 717.126 232.502 716.435 232.441 715.774C232.379 715.114 232.21 714.499 231.918 713.916C231.627 713.332 231.227 712.825 230.736 712.38C230.229 711.934 229.645 711.55 228.969 711.243C227.909 710.767 226.834 710.582 225.774 710.705C224.699 710.828 223.716 711.243 222.809 711.965C221.903 712.687 221.15 713.701 220.551 715.022C219.968 716.343 219.691 717.572 219.753 718.724C219.814 719.876 220.152 720.905 220.782 721.78C221.396 722.656 222.256 723.332 223.316 723.823C224.038 724.146 224.76 724.346 225.451 724.392C226.143 724.438 226.803 724.376 227.418 724.192C228.032 724.008 228.6 723.716 229.107 723.332C229.614 722.948 230.044 722.487 230.382 721.934L228.155 720.92C227.925 721.243 227.663 721.504 227.356 721.704L227.372 721.657Z" fill="white"/>
<path d="M237.11 717.172L242.932 719.553L243.7 717.679L235.635 714.361L230.551 726.757L238.661 730.091L239.429 728.201L233.562 725.805L234.959 722.41L240.351 724.638L241.134 722.748L235.727 720.536L237.11 717.172Z" fill="white"/>
<path d="M252.271 721.258C251.718 720.69 250.996 720.244 250.105 719.922C249.23 719.599 248.385 719.446 247.571 719.507C246.757 719.568 246.05 719.783 245.436 720.183C244.821 720.582 244.376 721.166 244.099 721.903C243.761 722.81 243.792 723.639 244.192 724.407C244.591 725.175 245.251 725.882 246.188 726.542L247.479 727.449C247.878 727.725 248.231 728.002 248.508 728.278C248.8 728.555 248.984 728.831 249.092 729.108C249.199 729.384 249.199 729.707 249.076 730.029C248.938 730.382 248.708 730.659 248.4 730.843C248.093 731.028 247.724 731.135 247.279 731.135C246.849 731.135 246.388 731.058 245.897 730.874C245.42 730.69 245.021 730.459 244.698 730.183C244.376 729.891 244.145 729.568 244.007 729.184C243.884 728.8 243.884 728.386 244.007 727.94L241.764 727.095C241.488 727.94 241.442 728.724 241.626 729.461C241.811 730.198 242.21 730.843 242.809 731.412C243.408 731.98 244.207 732.456 245.175 732.825C246.173 733.209 247.095 733.363 247.924 733.316C248.754 733.27 249.46 733.04 250.044 732.625C250.628 732.21 251.058 731.627 251.334 730.905C251.534 730.367 251.611 729.845 251.565 729.369C251.519 728.892 251.365 728.432 251.119 728.017C250.873 727.602 250.566 727.218 250.198 726.865C249.829 726.512 249.43 726.189 248.999 725.897L247.94 725.16C247.709 725.006 247.479 724.837 247.264 724.653C247.049 724.469 246.849 724.269 246.695 724.054C246.542 723.839 246.434 723.624 246.388 723.378C246.342 723.132 246.357 722.886 246.465 722.625C246.588 722.318 246.787 722.072 247.049 721.888C247.325 721.704 247.648 721.611 248.047 721.596C248.446 721.581 248.877 721.658 249.353 721.842C250.029 722.103 250.52 722.456 250.827 722.902C251.135 723.363 251.227 723.869 251.089 724.422L253.27 725.237C253.531 724.53 253.562 723.823 253.377 723.132C253.193 722.441 252.824 721.811 252.271 721.258Z" fill="white"/>
<path d="M451.193 743.731C451.823 743.255 452.253 742.671 452.483 741.995C452.714 741.304 452.76 740.536 452.591 739.691C452.422 738.846 452.099 738.155 451.623 737.587C451.147 737.018 450.533 736.634 449.78 736.419C449.027 736.204 448.136 736.189 447.138 736.389L442.207 737.356L444.788 750.505L447.169 750.045L446.232 745.221L448.659 744.745L452.192 749.061L454.849 748.539L450.963 743.869C450.963 743.869 451.132 743.793 451.209 743.731H451.193ZM444.972 738.877L447.153 738.447C447.752 738.324 448.244 738.324 448.659 738.416C449.073 738.508 449.396 738.708 449.642 739.015C449.887 739.307 450.056 739.691 450.149 740.167C450.241 740.628 450.225 741.043 450.103 741.396C449.98 741.75 449.749 742.042 449.411 742.287C449.073 742.533 448.597 742.702 448.013 742.825L445.817 743.255L444.957 738.892L444.972 738.877Z" fill="white"/>
<path d="M464.925 735.544C464.172 734.668 463.282 734.069 462.252 733.747C461.223 733.424 460.132 733.393 458.996 733.67C457.844 733.931 456.891 734.438 456.108 735.175C455.325 735.912 454.787 736.849 454.495 737.971C454.203 739.092 454.219 740.352 454.541 741.765C454.864 743.163 455.401 744.315 456.169 745.19C456.922 746.066 457.813 746.665 458.842 746.988C459.871 747.31 460.962 747.341 462.099 747.08C463.251 746.819 464.203 746.312 464.987 745.574C465.77 744.837 466.308 743.9 466.599 742.779C466.891 741.657 466.876 740.398 466.553 738.985C466.231 737.571 465.678 736.435 464.925 735.559V735.544ZM464.28 742.149C464.126 742.902 463.819 743.516 463.358 743.992C462.897 744.468 462.314 744.791 461.607 744.96C460.901 745.129 460.225 745.098 459.61 744.868C458.98 744.637 458.443 744.223 457.967 743.608C457.506 742.994 457.153 742.195 456.922 741.212C456.692 740.213 456.661 739.353 456.799 738.601C456.953 737.848 457.26 737.233 457.721 736.757C458.182 736.281 458.765 735.959 459.472 735.79C460.179 735.621 460.854 735.651 461.469 735.882C462.099 736.112 462.636 736.527 463.113 737.141C463.589 737.756 463.927 738.555 464.157 739.538C464.387 740.521 464.418 741.396 464.28 742.149Z" fill="white"/>
<path d="M477.336 729.108L476.076 739.522L475.938 739.568L469.502 731.258L466.645 732.057L470.208 744.975L472.466 744.361L470.009 735.452L470.116 735.421L476.138 743.301L477.827 742.84L478.949 733.009L479.071 732.979L481.514 741.857L483.772 741.227L480.193 728.309L477.336 729.108Z" fill="white"/>
<path d="M485.755 726.542L485.34 740.751L487.813 739.968L487.859 736.481L492.652 734.945L494.71 737.756L497.183 736.972L488.596 725.636L485.739 726.542H485.755ZM487.89 734.407L487.967 728.708L488.059 728.677L491.438 733.27L487.89 734.407Z" fill="white"/>
<path d="M502.316 720.874L505.419 729.476L505.296 729.522L496.264 723.055L494.221 723.793L498.768 736.404L501.056 735.59L497.953 726.988L498.061 726.957L507.093 733.409L509.136 732.671L504.589 720.06L502.316 720.874Z" fill="white"/>
<path d="M518.26 724.269C518.337 724.653 518.337 725.037 518.275 725.39C518.214 725.743 518.091 726.066 517.891 726.373C517.707 726.68 517.476 726.942 517.184 727.172C516.893 727.402 516.57 727.587 516.201 727.74C515.526 728.017 514.865 728.078 514.22 727.955C513.559 727.833 512.96 727.51 512.407 726.972C511.854 726.435 511.378 725.697 510.994 724.745C510.625 723.808 510.441 722.963 510.487 722.195C510.518 721.427 510.733 720.767 511.117 720.214C511.501 719.661 512.039 719.261 512.714 718.985C513.098 718.831 513.467 718.739 513.836 718.708C514.204 718.677 514.558 718.708 514.911 718.816C515.249 718.908 515.572 719.077 515.863 719.292C516.155 719.507 516.401 719.799 516.616 720.137L518.89 719.23C518.521 718.57 518.075 718.032 517.553 717.618C517.031 717.203 516.463 716.896 515.848 716.711C515.234 716.527 514.588 716.45 513.913 716.496C513.237 716.542 512.561 716.696 511.87 716.972C510.779 717.403 509.919 718.048 509.258 718.908C508.598 719.753 508.214 720.767 508.106 721.919C507.999 723.071 508.198 724.315 508.736 725.667C509.274 727.003 509.98 728.048 510.856 728.8C511.731 729.553 512.699 730.014 513.759 730.183C514.819 730.336 515.894 730.198 516.985 729.768C517.722 729.476 518.352 729.092 518.874 728.631C519.396 728.17 519.796 727.648 520.088 727.065C520.38 726.481 520.564 725.882 520.641 725.252C520.717 724.622 520.671 723.992 520.518 723.363L518.244 724.269H518.26Z" fill="white"/>
<path d="M525.494 723.808L524.02 720.459L529.365 718.109L528.551 716.25L523.206 718.601L521.746 715.267L527.491 712.733L526.677 710.874L518.689 714.376L524.096 726.65L532.13 723.117L531.301 721.258L525.494 723.808Z" fill="white"/>
<path d="M643.387 637.618L641.943 636.19L638.026 640.168L635.446 637.603L639.762 633.225L638.318 631.796L632.281 637.91L641.836 647.311L643.541 645.59L639.486 641.597L643.387 637.618Z" fill="white"/>
<path d="M650.518 630.399C650.748 629.646 650.748 628.924 650.533 628.233C650.318 627.541 649.903 626.896 649.273 626.313C648.644 625.729 647.968 625.36 647.261 625.176C646.539 625.007 645.817 625.053 645.08 625.314C644.343 625.591 643.621 626.098 642.914 626.85L639.504 630.537L649.335 639.646L650.994 637.864L647.399 634.531L649.074 632.718L654.465 634.131L656.309 632.15L650.441 630.66C650.472 630.568 650.518 630.491 650.548 630.399H650.518ZM645.909 633.179L642.638 630.153L644.143 628.525C644.558 628.079 644.957 627.772 645.356 627.618C645.74 627.449 646.124 627.419 646.508 627.511C646.877 627.603 647.246 627.818 647.599 628.141C647.952 628.463 648.183 628.801 648.29 629.154C648.398 629.508 648.398 629.892 648.26 630.291C648.121 630.69 647.845 631.105 647.446 631.551L645.925 633.194L645.909 633.179Z" fill="white"/>
<path d="M648.965 620.118L647.355 621.935L657.393 630.827L659.002 629.011L648.965 620.118Z" fill="white"/>
<path d="M660.732 623.962L657.952 621.597L661.731 617.142L660.179 615.821L656.401 620.276L653.62 617.91L657.691 613.118L656.139 611.796L650.502 618.448L660.717 627.127L666.4 620.429L664.834 619.124L660.732 623.962Z" fill="white"/>
<path d="M662.726 603.578L669.885 609.262L669.808 609.339L658.733 608.617L657.381 610.307L667.888 618.647L669.393 616.743L662.235 611.059L662.312 610.982L673.387 611.704L674.723 610.015L664.232 601.689L662.726 603.578Z" fill="white"/>
<path d="M677.429 595.115C676.308 594.285 675.187 593.794 674.081 593.609C672.975 593.425 671.915 593.563 670.916 594.024C669.918 594.485 669.027 595.238 668.228 596.313L665.479 600.045L676.277 608.002L678.965 604.347C679.779 603.256 680.24 602.15 680.394 601.059C680.548 599.969 680.363 598.909 679.856 597.895C679.349 596.881 678.535 595.959 677.414 595.13L677.429 595.115ZM677.214 603.179L676.031 604.792L668.627 599.339L669.856 597.68C670.394 596.943 670.978 596.436 671.623 596.144C672.268 595.852 672.944 595.775 673.681 595.929C674.419 596.082 675.187 596.451 676.016 597.065C676.846 597.68 677.429 598.31 677.798 598.97C678.167 599.631 678.289 600.307 678.197 601.013C678.105 601.72 677.783 602.442 677.23 603.194L677.214 603.179Z" fill="white"/>
<path d="M686.537 587.081C686.061 586.758 685.584 586.559 685.093 586.497C684.617 586.436 684.14 586.466 683.68 586.605C683.219 586.743 682.773 586.943 682.343 587.219C681.913 587.496 681.498 587.803 681.13 588.156L680.162 589.016C679.962 589.201 679.732 589.385 679.501 589.554C679.271 589.723 679.025 589.861 678.795 589.969C678.549 590.076 678.303 590.122 678.073 590.107C677.827 590.107 677.597 590.015 677.366 589.861C677.09 589.662 676.905 589.416 676.798 589.109C676.69 588.801 676.675 588.463 676.752 588.079C676.829 587.695 677.013 587.296 677.305 586.881C677.72 586.282 678.18 585.898 678.687 585.698C679.21 585.514 679.717 585.545 680.223 585.821L681.544 583.901C680.915 583.486 680.239 583.287 679.532 583.287C678.826 583.287 678.119 583.502 677.443 583.901C676.767 584.301 676.153 584.9 675.615 585.683C675.093 586.451 674.74 587.25 674.601 588.049C674.448 588.847 674.509 589.585 674.755 590.276C675.001 590.967 675.446 591.536 676.107 591.981C676.905 592.519 677.72 592.688 678.549 592.488C679.394 592.288 680.239 591.812 681.099 591.059L682.282 590.03C682.65 589.708 683.004 589.431 683.342 589.231C683.664 589.016 683.987 588.893 684.294 588.863C684.601 588.832 684.893 588.909 685.185 589.109C685.492 589.324 685.707 589.615 685.815 589.969C685.922 590.322 685.922 590.706 685.83 591.121C685.738 591.536 685.538 591.966 685.246 592.396C684.955 592.81 684.632 593.148 684.279 593.394C683.925 593.64 683.541 593.778 683.142 593.824C682.743 593.855 682.343 593.763 681.944 593.517L680.592 595.483C681.345 595.959 682.097 596.19 682.85 596.19C683.603 596.19 684.325 595.959 685.031 595.514C685.738 595.069 686.383 594.408 686.967 593.548C687.581 592.657 687.95 591.812 688.104 590.998C688.257 590.184 688.196 589.446 687.935 588.771C687.673 588.11 687.213 587.542 686.567 587.096L686.537 587.081Z" fill="white"/>
<path d="M695.83 574.746C695.615 574.27 695.308 573.778 694.878 573.287C694.448 572.795 693.864 572.334 693.157 571.874L692.082 573.594C692.666 573.963 693.127 574.377 693.495 574.869C693.603 575.007 693.68 575.161 693.756 575.314L690.039 575.867L689.962 574.823C689.916 574.132 689.763 573.517 689.501 572.995C689.24 572.457 688.841 572.027 688.303 571.705C687.842 571.413 687.336 571.259 686.798 571.259C686.26 571.259 685.738 571.382 685.231 571.659C684.724 571.935 684.294 572.38 683.91 572.98C683.526 573.579 683.326 574.178 683.296 574.777C683.265 575.376 683.388 575.929 683.649 576.436C683.925 576.943 684.325 577.373 684.862 577.711C685.339 578.003 685.83 578.187 686.368 578.233C686.905 578.279 687.443 578.279 687.996 578.218C688.073 578.218 688.165 578.187 688.242 578.187C688.273 578.771 688.319 579.308 688.411 579.8C688.503 580.322 688.672 580.783 688.902 581.182C689.133 581.582 689.486 581.935 689.947 582.211C690.546 582.595 691.191 582.78 691.852 582.764C692.512 582.764 693.173 582.565 693.802 582.181C694.432 581.797 694.985 581.213 695.477 580.445C695.799 579.938 696.045 579.354 696.199 578.709C696.352 578.095 696.368 577.496 696.276 576.912L697.581 576.697L698.933 574.516L695.922 574.961C695.892 574.869 695.876 574.792 695.83 574.7V574.746ZM686.89 576.221C686.552 576.205 686.26 576.113 685.999 575.96C685.799 575.837 685.63 575.668 685.523 575.453C685.4 575.238 685.354 575.007 685.354 574.746C685.354 574.485 685.431 574.239 685.584 574.009C685.815 573.655 686.091 573.44 686.445 573.364C686.798 573.302 687.09 573.333 687.336 573.486C687.627 573.671 687.827 573.901 687.95 574.193C688.073 574.485 688.134 574.838 688.134 575.253L688.165 576.175C688.165 576.175 688.073 576.175 688.027 576.19C687.612 576.251 687.243 576.267 686.89 576.236V576.221ZM694.325 578.003C694.263 578.509 694.11 578.97 693.849 579.385C693.618 579.754 693.342 580.03 693.019 580.215C692.696 580.399 692.374 580.491 692.036 580.491C691.698 580.491 691.375 580.399 691.084 580.215C690.884 580.092 690.7 579.861 690.515 579.523C690.331 579.185 690.223 578.74 690.193 578.187V577.926L694.34 577.25C694.355 577.511 694.34 577.757 694.325 578.003Z" fill="white"/>
<path d="M700.885 559.692L699.119 558.694L696.369 563.548L693.205 561.751L696.231 556.39L694.464 555.391L690.24 562.857L701.899 569.462L703.097 567.342L698.136 564.546L700.885 559.692Z" fill="white"/>
<path d="M697.059 550.491L706.751 560.891L707.949 558.586L705.538 556.067L707.873 551.597L711.313 552.15L712.512 549.846L698.441 547.818L697.059 550.476V550.491ZM700.223 550.399L705.845 551.29L704.109 554.593L700.161 550.491L700.208 550.399H700.223Z" fill="white"/>
<path d="M705.907 532.642L712.973 540.384L712.911 540.537L702.435 539.969L701.16 542.657L713.28 548.402L714.278 546.282L705.937 542.335L705.983 542.227L715.876 542.811L716.613 541.244L709.916 533.963L709.962 533.855L718.288 537.788L719.286 535.683L707.166 529.954L705.907 532.642Z" fill="white"/>
<path d="M708.998 525.74L708.023 527.963L720.305 533.347L721.28 531.124L708.998 525.74Z" fill="white"/>
<path d="M721.331 525.73L710.824 521.382L709.902 523.625L722.283 528.756L725.463 521.044L723.589 520.276L721.331 525.73Z" fill="white"/>
<path d="M717.66 503.886L716.693 506.452L721.086 511.628L721.04 511.751L714.327 512.719L713.359 515.284L722.945 513.687L727.63 515.453L728.49 513.195L723.805 511.428L717.66 503.886Z" fill="white"/>
</svg>
