<svg width="753" height="880" viewBox="0 0 753 880" fill="none" xmlns="http://www.w3.org/2000/svg">
<circle cx="376.5" cy="440" r="299" stroke="#1EA8BC" stroke-width="2"/>
<g clip-path="url(#clip0_182_932)">
<path d="M376.33 631.964C394.097 631.964 408.501 617.534 408.501 599.734C408.501 581.934 394.097 567.503 376.33 567.503C358.563 567.503 344.16 581.934 344.16 599.734C344.16 617.534 358.563 631.964 376.33 631.964Z" fill="#1EA8BC"/>
<path opacity="0.3" d="M408.501 599.734C408.501 600.789 408.448 601.834 408.353 602.858C406.784 619.194 393.047 631.964 376.33 631.964C359.613 631.964 347.099 620.292 344.592 605C344.307 603.29 344.16 601.528 344.16 599.723C344.16 581.93 358.559 567.493 376.33 567.493C394.101 567.493 408.501 581.919 408.501 599.723V599.734Z" fill="black"/>
<path opacity="0.3" d="M408.501 599.734C408.501 600.789 408.448 601.834 408.353 602.858C405.077 594.193 396.776 581.265 376.351 581.265C355.926 581.265 347.562 595.702 344.592 605.011C344.307 603.301 344.16 601.539 344.16 599.734C344.16 581.941 358.559 567.503 376.33 567.503C394.101 567.503 408.501 581.93 408.501 599.734Z" fill="black"/>
<path d="M277 631L477 631" stroke="#1EA8BC" stroke-width="2"/>
</g>
<path d="M514.7 365.246C522.443 359.916 527.046 350.64 526.562 341.236C526.54 340.73 525.75 340.73 525.772 341.236C526.246 350.355 521.821 359.388 514.3 364.56C513.879 364.845 514.279 365.531 514.7 365.246Z" fill="#1EA8BC"/>
<path d="M519.652 368C527.394 362.671 531.997 353.405 531.513 343.991C531.492 343.484 530.702 343.484 530.723 343.991C531.197 353.109 526.772 362.143 519.251 367.314C518.83 367.599 519.23 368.285 519.652 368Z" fill="#1EA8BC"/>
<path d="M350.403 366.386C353.584 370.185 357.44 373.362 361.769 375.768C362.212 376.011 362.612 375.335 362.17 375.082C357.903 372.707 354.101 369.562 350.962 365.816C350.635 365.425 350.077 365.985 350.403 366.375V366.386Z" fill="#1EA8BC"/>
<path d="M347.622 370.027C350.951 374.185 355.122 377.625 359.831 380.095C360.284 380.327 360.684 379.651 360.231 379.409C355.565 376.971 351.467 373.583 348.18 369.467C347.864 369.066 347.306 369.636 347.622 370.027Z" fill="#1EA8BC"/>
<path d="M470.163 264.175C470.163 264.175 471.237 263.331 470.532 262.159C470.1 261.441 466.202 259.996 460.83 260.439C460.83 260.439 462.484 259.901 465.233 259.267C466.328 259.014 467.74 259.447 468.962 258.824C470.679 257.948 467.14 256.059 463.969 256.587C460.798 257.115 455.637 260.186 452.013 262.434C451.613 262.676 451.149 262.993 450.644 263.341L445.998 266.096L448.653 272.428C450.538 271.531 452.761 271.805 454.33 271.678C456.848 271.478 458.628 269.209 459.734 269.241C462.684 269.325 467.772 271.636 468.404 270.043C469.036 268.449 463.2 266.644 463.2 266.644C463.2 266.644 469.678 267.805 470.226 266.307C470.984 264.228 470.163 264.175 470.163 264.175Z" fill="#E9B7B2"/>
<path d="M331.211 308.373C329.525 307.887 298.64 306.273 288.022 302.653C277.403 299.023 249.236 283.646 249.236 283.646C249.236 283.646 245.107 290.2 245.833 290.442C246.56 290.685 275.233 316.911 289.949 321.259C304.665 325.607 340.049 337.205 340.049 337.205L344.231 309.903L331.2 308.373H331.211Z" fill="#1EA8BC"/>
<path d="M465.434 280.723L489.314 330.842C482.088 340.572 440.521 336.266 419.296 335.886C398.07 335.506 392.761 341.332 392.761 341.332L377.076 372.085C391.823 390.195 486.628 381.984 513.005 351.379C515.165 348.878 516.239 345.616 515.955 342.324C515.586 338.113 514.248 331.19 510.161 320.963C502.577 301.978 480.603 279.193 476.052 273.114C474.462 270.982 465.445 280.712 465.445 280.712L465.434 280.723Z" fill="#263238"/>
<path d="M439.657 375.272C438.899 376.791 424.499 442.487 424.499 455.394C424.499 468.301 431.251 502.326 416.093 530.039C416.093 530.039 407.192 533.786 406.581 531.306C405.401 526.483 403.273 468.301 399.112 439.437C394.941 410.573 390.011 372.602 390.011 372.602L439.657 375.261V375.272Z" fill="#263238"/>
<path opacity="0.3" d="M390.748 378.29L392.76 393.519C392.76 393.519 408.403 404.431 433.337 403.545L438.34 380.538C421.254 382.775 405.506 381.741 390.748 378.28V378.29Z" fill="black"/>
<path d="M420.296 533.068C420.296 533.068 423.572 515.951 423.172 515.233C422.771 514.515 404.274 515.233 404.274 515.233C404.274 515.233 406.223 533.67 406.349 534.736C406.465 535.696 412.353 537.902 415.893 537.29C419.432 536.678 420.296 533.079 420.296 533.079V533.068Z" fill="#E9B7B2"/>
<path d="M405.19 532.572C407.244 532.214 408.487 532.688 408.603 534.335C409.572 534.356 410.468 534.852 411.047 535.622C413.543 538.936 417.43 536.783 420.064 533.775C421.76 533.617 420.18 536.488 420.327 537.005L423.645 548.339C423.93 549.289 423.382 550.25 422.424 550.503C422.255 550.545 422.076 550.566 421.897 550.556C416.725 550.44 414.27 550.387 407.834 550.239L388.136 549.796C382.763 549.68 381.594 544.392 383.796 543.96C393.719 542.049 400.724 539.358 403.768 536.614C404.337 536.139 404.59 534.082 405.19 532.572Z" fill="#263238"/>
<path d="M387.809 548.361C391.432 549.279 396.626 546.208 401.271 546.313C405.917 546.408 405.874 548.234 413.975 549.015C422.076 549.796 423.245 546.925 423.245 546.925L423.656 548.35C423.94 549.3 423.392 550.26 422.434 550.513C422.265 550.556 422.086 550.577 421.907 550.566C416.735 550.45 414.28 550.397 407.844 550.25L388.146 549.806C385.281 549.743 383.627 548.213 383.026 546.725C383.616 547.02 385.112 547.675 387.819 548.361H387.809Z" fill="white"/>
<path d="M416.093 544.308C413.438 544.53 410.794 543.886 408.54 542.461C408.108 542.187 407.708 542.873 408.14 543.147C410.499 544.635 413.312 545.332 416.093 545.1C416.598 545.057 416.598 544.266 416.093 544.308Z" fill="white"/>
<path d="M403.01 540.35C402.494 539.664 401.988 538.968 401.472 538.282C401.346 538.113 401.124 538.018 400.935 538.145C400.766 538.25 400.661 538.503 400.798 538.683C401.314 539.369 401.82 540.065 402.336 540.751C402.462 540.92 402.683 541.015 402.873 540.888C403.041 540.783 403.147 540.53 403.01 540.35Z" fill="black"/>
<path d="M400.439 541.522C400.366 541.448 400.302 541.363 400.239 541.29C400.208 541.247 400.176 541.216 400.144 541.173C400.134 541.152 400.113 541.131 400.102 541.121C400.06 541.068 400.134 541.163 400.102 541.121C399.976 540.952 399.86 540.783 399.755 540.604C399.649 540.424 399.544 540.255 399.46 540.076C399.418 539.991 399.375 539.896 399.333 539.812C399.323 539.78 399.312 539.759 399.291 539.728C399.291 539.728 399.26 539.654 399.27 539.696C399.281 539.738 399.26 539.664 399.26 539.654C399.249 539.622 399.239 539.601 399.228 539.569C399.154 539.379 398.965 539.221 398.743 539.295C398.554 539.358 398.385 539.58 398.47 539.78C398.807 540.635 399.281 541.406 399.902 542.081C400.039 542.239 400.324 542.229 400.46 542.081C400.608 541.912 400.608 541.68 400.46 541.522H400.439Z" fill="black"/>
<path d="M397.732 542.704C397.658 542.63 397.595 542.546 397.532 542.472C397.5 542.429 397.469 542.398 397.437 542.356C397.426 542.335 397.405 542.313 397.395 542.303C397.353 542.25 397.426 542.345 397.395 542.303C397.268 542.134 397.153 541.965 397.047 541.786C396.942 541.606 396.836 541.437 396.752 541.258C396.71 541.174 396.668 541.079 396.626 540.994C396.615 540.963 396.605 540.941 396.584 540.91C396.584 540.91 396.552 540.836 396.563 540.868C396.573 540.899 396.552 540.836 396.552 540.825C396.542 540.794 396.531 540.773 396.52 540.741C396.447 540.551 396.257 540.393 396.036 540.467C395.846 540.53 395.678 540.751 395.762 540.952C396.099 541.807 396.573 542.577 397.195 543.253C397.332 543.411 397.616 543.4 397.753 543.253C397.9 543.084 397.9 542.852 397.753 542.693L397.732 542.704Z" fill="black"/>
<path d="M464.706 281.409C464.706 281.409 471.89 297.281 472.638 297.64C473.386 297.999 488.07 286.717 488.07 286.717C488.07 286.717 475.861 272.797 475.135 271.995C474.492 271.277 465.496 270.475 462.957 273.019C460.419 275.562 464.695 281.409 464.695 281.409H464.706Z" fill="#E9B7B2"/>
<path d="M476.251 273.082C474.787 274.56 473.492 274.897 472.449 273.62C471.648 274.159 470.637 274.275 469.72 273.979C465.77 272.713 463.842 276.723 463.421 280.702C462.125 281.81 461.757 278.559 461.346 278.222L452.108 270.887C451.328 270.285 451.223 269.177 451.865 268.417C451.981 268.28 452.118 268.164 452.266 268.069C456.553 265.167 458.586 263.795 463.927 260.196L480.265 249.168C484.721 246.16 488.723 249.801 487.175 251.426C480.181 258.729 475.999 264.977 475.093 268.977C474.903 269.694 475.883 271.52 476.262 273.103L476.251 273.082Z" fill="#263238"/>
<path d="M481.361 250.139C477.874 251.49 475.398 256.988 471.543 259.595C467.688 262.201 466.676 260.682 459.619 264.734C452.55 268.776 453.256 271.805 453.256 271.805L452.097 270.887C451.318 270.275 451.213 269.177 451.855 268.417C451.971 268.28 452.108 268.164 452.255 268.069C456.543 265.167 458.576 263.806 463.916 260.196L480.255 249.168C482.635 247.564 484.868 247.859 486.217 248.725C485.574 248.83 483.962 249.157 481.361 250.16V250.139Z" fill="white"/>
<path d="M460.651 269.757C462.652 268.069 465.181 267.077 467.793 266.94C468.299 266.908 468.299 266.116 467.793 266.148C464.959 266.296 462.263 267.372 460.093 269.198C459.703 269.525 460.261 270.085 460.651 269.757Z" fill="white"/>
<path d="M473.628 265.494C474.439 265.758 475.261 266.032 476.072 266.296C476.272 266.359 476.515 266.222 476.557 266.022C476.609 265.8 476.494 265.599 476.283 265.536C475.472 265.272 474.65 264.998 473.839 264.734C473.639 264.671 473.397 264.808 473.354 265.008C473.302 265.23 473.418 265.431 473.628 265.494Z" fill="black"/>
<path d="M474.935 263.014C475.135 263.056 475.325 263.109 475.525 263.172C475.725 263.235 475.946 263.32 476.083 263.373C476.125 263.394 476.262 263.447 476.336 263.489C476.431 263.531 476.515 263.584 476.61 263.626C476.8 263.721 476.979 263.837 477.158 263.953C477.337 264.069 477.6 263.995 477.695 263.816C477.8 263.615 477.737 263.394 477.558 263.278C476.831 262.803 476.01 262.455 475.156 262.265C474.956 262.222 474.724 262.328 474.672 262.539C474.63 262.739 474.735 262.982 474.946 263.024L474.935 263.014Z" fill="black"/>
<path d="M476.473 260.492C476.673 260.534 476.862 260.587 477.063 260.65C477.263 260.713 477.484 260.798 477.621 260.85C477.663 260.872 477.8 260.924 477.874 260.967C477.968 261.009 478.053 261.062 478.148 261.104C478.337 261.199 478.516 261.315 478.695 261.431C478.874 261.547 479.138 261.473 479.233 261.294C479.338 261.093 479.275 260.872 479.096 260.755C478.369 260.281 477.547 259.932 476.694 259.742C476.494 259.7 476.262 259.806 476.209 260.017C476.167 260.217 476.273 260.46 476.483 260.502L476.473 260.492Z" fill="black"/>
<path d="M391.96 338.113C391.96 338.113 383.585 336.699 380.91 331.918C378.223 327.137 372.862 304.046 372.862 304.046L359.578 292.701C359.578 292.701 352.373 296.542 352.184 296.574L332.032 308.721C332.032 308.721 324.479 329.459 335.287 343.959C342.261 353.32 373.251 376.475 378.392 372.57C383.533 368.665 394.878 342.239 391.97 338.113H391.96Z" fill="#1EA8BC"/>
<path d="M384.975 377.171C391.401 379.145 398.09 380.242 404.758 380.992C413.217 381.942 421.781 382.226 430.282 381.709C435.022 381.424 439.752 380.865 444.408 379.968C444.903 379.873 444.692 379.113 444.197 379.208C428.228 382.29 411.247 381.752 395.288 378.828C391.886 378.206 388.494 377.446 385.186 376.422C384.702 376.274 384.491 377.034 384.975 377.182V377.171Z" fill="black"/>
<path d="M244.496 280.712C243.927 280.322 243.411 279.973 242.958 279.699C238.913 277.198 233.14 273.757 229.601 273.166C226.061 272.575 222.111 274.686 224.018 275.668C225.387 276.364 226.957 275.879 228.189 276.164C231.255 276.871 233.109 277.472 233.109 277.472C227.104 276.976 222.754 278.591 222.269 279.393C221.479 280.702 222.68 281.641 222.68 281.641C222.68 281.641 221.764 281.704 222.606 284.026C223.217 285.704 230.454 284.406 230.454 284.406C230.454 284.406 223.933 286.432 224.639 288.205C225.345 289.978 231.033 287.403 234.33 287.308C235.563 287.276 237.554 289.809 240.366 290.031C242.115 290.168 244.612 289.862 246.708 290.865L249.678 283.783L244.485 280.702L244.496 280.712Z" fill="#E9B7B2"/>
<path d="M359.694 292.5C359.694 292.5 367.31 286.548 387.24 282.168C407.181 277.789 443.902 264.386 446.536 265.694C449.169 267.003 450.36 272.554 450.36 272.554C450.36 272.554 428.934 285.609 413.301 290.337C397.669 295.065 376.949 301.513 373.315 308.415C369.68 315.317 359.694 292.49 359.694 292.49V292.5Z" fill="#1EA8BC"/>
<path d="M349.002 248.598C352.626 247.542 356.755 248.492 359.589 251.036C360.927 252.228 362.022 253.78 363.655 254.497C365.414 255.268 367.447 254.909 369.248 254.254C371.05 253.6 372.756 252.661 374.621 252.26C377.791 251.584 381.268 252.608 383.606 254.919C384.733 256.027 385.629 257.6 385.313 259.151C385.07 260.333 384.186 261.273 383.248 262.022C380.825 263.964 377.844 265.156 374.768 265.41C377.296 265.262 379.572 267.679 379.709 270.254C379.846 272.829 378.171 275.277 375.937 276.48C373.694 277.683 371.008 277.778 368.522 277.251C366.036 276.723 363.708 275.604 361.422 274.475C362.559 275.119 362.264 277.05 361.169 277.757C360.073 278.464 358.651 278.274 357.387 277.947C354.332 277.145 351.099 275.087 350.783 271.9L344.262 254.371C343.862 251.648 346.4 249.347 349.002 248.587V248.598Z" fill="#263238"/>
<path d="M311.186 261.42C311.059 261.462 306.287 261.906 307.657 269.842C309.026 277.778 320.403 293.218 320.382 293.366C320.361 293.503 316.105 267.288 316.105 267.288L311.186 261.42Z" fill="#263238"/>
<path d="M333.844 295.761C334.118 296.089 338.637 303.233 337.91 305.344C337.531 306.442 336.372 308.436 336.372 308.436C336.372 308.436 337.763 313.323 342.513 309.956C347.254 306.589 353.648 296.268 353.648 296.268L350.561 297.102C350.561 297.102 343.356 291.445 344.315 281.546C344.662 277.905 333.833 295.761 333.833 295.761H333.844Z" fill="#E9B7B2"/>
<path opacity="0.2" d="M333.75 295.603L343.283 283.161C344.083 284.49 344.389 286.073 344.136 287.614C343.536 292.553 340.417 297.387 336.71 300.933C335.92 299.096 334.94 297.366 333.75 295.603Z" fill="black"/>
<path d="M342.545 266.307C345.326 277.747 346.759 282.517 343.061 289.989C337.51 301.228 323.374 302.051 317.348 291.635C311.923 282.274 308.278 265.146 317.496 257.421C326.723 249.695 339.817 254.856 342.545 266.307Z" fill="#E9B7B2"/>
<path d="M329.209 274.369C329.757 275.499 329.673 276.723 329.009 277.113C328.345 277.504 327.366 276.902 326.818 275.784C326.27 274.654 326.354 273.43 327.018 273.04C327.682 272.649 328.661 273.24 329.209 274.369Z" fill="#263238"/>
<path d="M318.897 278.602C319.423 279.699 319.328 280.892 318.665 281.282C318.001 281.673 317.043 281.103 316.505 280.005C315.979 278.908 316.073 277.705 316.737 277.325C317.401 276.934 318.359 277.504 318.897 278.602Z" fill="#263238"/>
<path d="M328.44 269.135C328.314 269.219 328.166 269.262 328.008 269.219C325.628 268.607 324.142 270.116 324.132 270.138C323.911 270.359 323.563 270.359 323.352 270.116C323.142 269.874 323.152 269.494 323.373 269.272C323.447 269.188 325.312 267.299 328.261 268.058C328.556 268.132 328.735 268.459 328.661 268.776C328.63 268.934 328.535 269.061 328.43 269.145L328.44 269.135Z" fill="#263238"/>
<path d="M313.998 274.116C313.872 274.116 313.756 274.063 313.661 273.958C313.472 273.736 313.493 273.367 313.693 273.145C315.736 270.844 317.97 271.298 318.064 271.319C318.328 271.383 318.496 271.678 318.423 271.995C318.349 272.311 318.086 272.512 317.812 272.459C317.727 272.438 315.989 272.111 314.357 273.947C314.251 274.063 314.114 274.127 313.988 274.127L313.998 274.116Z" fill="#263238"/>
<path d="M322.562 276.047C322.562 276.047 323.1 280.828 322.626 284.269C322.541 284.87 323.079 285.377 323.669 285.282C325.185 285.05 326.418 283.794 326.418 283.794L322.562 276.047Z" fill="#7E5653"/>
<path d="M327.176 272.945L324.532 273.694C324.532 273.694 327.756 274.602 327.176 272.945Z" fill="#263238"/>
<path d="M316.979 277.219L314.335 277.968C314.335 277.968 316.59 279.024 316.979 277.219Z" fill="#263238"/>
<path d="M345.822 290.221C342.893 288.564 342.493 281.852 343.567 277.251C338.005 278.907 315.811 260.914 315.811 260.914C315.811 260.914 314.557 258.402 316.053 261.642L311.081 263.911C306.636 259.605 314.768 253.315 314.768 253.315C336.246 239.173 348.455 257.727 348.455 257.727C350.162 260.629 352.616 264.016 352.806 269.684C352.89 272.238 352.363 277.546 350.046 282.949L345.811 290.221H345.822Z" fill="#263238"/>
<path d="M348.476 273.557C348.434 276.364 347.212 278.802 345.674 280.269C343.356 282.474 339.543 278.834 338.964 275.562C338.437 272.617 340.186 269.483 343.104 268.554C345.979 267.636 348.518 270.348 348.476 273.557Z" fill="#E9B7B2"/>
<g opacity="0.2">
<path d="M342.303 276.1C341.429 274.158 342.271 271.858 344.167 270.918C344.62 270.697 344.22 270.011 343.767 270.232C342.724 270.75 341.913 271.657 341.481 272.744C341.007 273.958 341.092 275.319 341.618 276.501C341.829 276.966 342.503 276.565 342.303 276.1Z" fill="black"/>
</g>
<path d="M315.388 259.32C316.958 263.552 319.886 267.119 323.689 269.452C323.689 269.452 314.63 268.006 310.29 263.721L315.378 259.32H315.388Z" fill="#263238"/>
<g opacity="0.2">
<path d="M352.584 275.688C354.332 267.763 351.404 259.098 345.105 253.948C344.715 253.632 344.157 254.191 344.546 254.508C350.624 259.468 353.511 267.805 351.815 275.477C351.709 275.973 352.468 276.184 352.573 275.688H352.584Z" fill="black"/>
</g>
<path d="M330.338 286.749C329.499 288.045 328.158 289.12 326.529 288.976C326.025 288.925 325.922 289.717 326.43 289.758C328.331 289.936 329.958 288.775 330.966 287.241C331.087 287.062 331.081 286.831 330.901 286.687C330.746 286.565 330.468 286.575 330.348 286.753L330.338 286.749Z" fill="#7E5653"/>
<path d="M237.322 279.403C235.626 279.256 233.919 279.235 232.223 279.34C230.854 279.425 229.105 279.425 227.82 280.005C226.957 280.395 226.525 281.25 226.957 282.147C227.525 283.329 228.979 283.456 230.127 283.562C230.928 283.635 231.739 283.657 232.54 283.625C233.403 283.593 234.372 283.308 235.226 283.382C236.079 283.456 236.479 284.1 237.006 284.701C237.417 285.176 237.88 285.598 238.396 285.957C240.377 287.329 242.968 287.688 245.243 286.907C245.717 286.738 245.517 285.978 245.033 286.147C242.979 286.854 240.703 286.559 238.902 285.345C238.017 284.754 237.522 283.889 236.743 283.203C235.9 282.453 234.962 282.601 233.919 282.717C232.603 282.865 231.275 282.886 229.959 282.749C229.295 282.686 228.347 282.622 227.862 282.084C226.999 281.124 228.221 280.638 228.937 280.501C231.676 279.984 234.541 279.952 237.311 280.184C237.817 280.227 237.817 279.435 237.311 279.393L237.322 279.403Z" fill="#263238"/>
<path d="M334.487 308.278C334.487 308.278 335.119 301.365 336.077 301.693C337.036 302.009 342.229 303.286 342.756 303.392C343.283 303.497 344.979 292.965 346.896 292.659C348.802 292.342 355.27 294.98 355.27 294.98C355.27 294.98 351.036 311.043 345.948 312.848C340.86 314.652 334.497 308.278 334.497 308.278H334.487Z" fill="#1EA8BC"/>
<path opacity="0.6" d="M334.487 308.278C334.487 308.278 335.119 301.365 336.077 301.693C337.036 302.009 342.229 303.286 342.756 303.392C343.283 303.497 344.979 292.965 346.896 292.659C348.802 292.342 355.27 294.98 355.27 294.98C355.27 294.98 351.036 311.043 345.948 312.848C340.86 314.652 334.497 308.278 334.497 308.278H334.487Z" fill="white"/>
<path d="M360.758 295.16C361.433 300.437 364.825 305.196 369.639 307.455C370.092 307.666 370.502 306.99 370.039 306.769C365.488 304.626 362.181 300.162 361.549 295.149C361.485 294.653 360.695 294.643 360.758 295.149V295.16Z" fill="black"/>
<path d="M329.093 316.774C328.566 320.784 328.682 324.847 329.24 328.857C329.641 331.718 330.199 334.641 331.242 337.343C331.421 337.817 332.19 337.606 332 337.131C330.989 334.535 330.441 331.728 330.041 328.974C329.462 324.942 329.346 320.826 329.873 316.774C329.936 316.267 329.146 316.278 329.082 316.774H329.093Z" fill="black"/>
<path d="M454.994 261.99C458.881 261.547 462.821 261.578 466.697 262.085C467.192 262.148 467.698 262.222 468.119 262.475C468.541 262.729 468.878 263.204 468.815 263.7C468.72 264.481 467.782 264.829 467.013 264.966C465.086 265.325 463.116 265.483 461.156 265.441C460.061 265.42 458.902 265.346 457.944 265.874C457.269 266.243 456.785 266.866 456.216 267.393C454.72 268.797 452.603 269.515 450.57 269.314" fill="#E9B7B2"/>
<path d="M498.154 549.564H255V567.072H498.154V549.564Z" fill="#1EA8BC"/>
<defs>
<clipPath id="clip0_182_932">
<rect width="200" height="65" fill="white" transform="translate(277 567)"/>
</clipPath>
</defs>
</svg>
