<svg width="386" height="387" viewBox="0 0 386 387" fill="none" xmlns="http://www.w3.org/2000/svg">
<path d="M31.3602 102.772L26.7365 97.3832L26.7843 97.3197L33.5446 99.4575L34.4978 98.01L27.901 90.3547L26.8586 91.9434L31.8555 97.3353L31.814 97.413L24.8151 95.0432L23.8658 96.4805L28.7891 101.973L28.7476 102.051L21.8122 99.5764L20.7736 101.155L30.3929 104.226L31.3602 102.772Z" fill="#196579"/>
<path d="M30.7708 90.1332C31.1486 90.8865 31.7505 91.5737 32.605 92.1824C33.4453 92.7973 34.2862 93.1668 35.1175 93.2869C35.9488 93.407 36.7203 93.317 37.4399 92.9965C38.1556 92.6862 38.7692 92.1846 39.2666 91.4981C39.764 90.8116 40.0559 90.0813 40.1322 89.3034C40.2084 88.5254 40.0557 87.7649 39.6819 87.0014C39.3041 86.2482 38.7021 85.5609 37.8516 84.9421C37.0011 84.3233 36.1602 83.9538 35.3289 83.8337C34.4976 83.7136 33.7261 83.8036 33.0104 84.1139C32.2947 84.4242 31.6811 84.9257 31.1837 85.6123C30.6863 86.2988 30.3943 87.0291 30.3181 87.807C30.2419 88.5849 30.3946 89.3454 30.7684 90.1089L30.7708 90.1332ZM32.4689 86.5617C32.7853 86.1333 33.1583 85.8319 33.6122 85.6551C34.0661 85.4783 34.5585 85.445 35.1099 85.5629C35.6613 85.6809 36.2268 85.9447 36.8192 86.3826C37.4116 86.8205 37.8581 87.2726 38.1267 87.7617C38.4094 88.2445 38.5297 88.7236 38.5081 89.2066C38.4865 89.6897 38.3144 90.1384 38.0081 90.5707C37.6916 90.9991 37.3186 91.3005 36.8647 91.4772C36.4108 91.654 35.9184 91.6873 35.3671 91.5694C34.8157 91.4514 34.2501 91.1876 33.6578 90.7497C33.0615 90.322 32.6188 89.8597 32.3503 89.3706C32.0817 88.8815 31.9473 88.4087 31.9688 87.9257C32.0006 87.4465 32.1626 86.994 32.4791 86.5656L32.4689 86.5617Z" fill="#196579"/>
<path d="M43.855 85.1417L41.0452 82.9522L42.149 81.539L46.1322 82.2252L47.3457 80.6787L43.0009 79.9591C43.0244 79.8979 43.0518 79.8265 43.0752 79.7654C43.1971 79.2038 43.1614 78.6871 42.9619 78.2011C42.7623 77.715 42.4193 77.2676 41.9313 76.8931C41.4472 76.5085 40.9389 76.2783 40.4064 76.2027C39.8778 76.1168 39.3556 76.1972 38.8398 76.4438C38.324 76.6904 37.8389 77.1009 37.3807 77.6855L35.1331 80.5549L42.7896 86.5462L43.8714 85.1597L43.855 85.1417ZM38.3476 78.7935C38.6226 78.4428 38.889 78.2058 39.1649 78.066C39.4408 77.9262 39.716 77.8797 39.9905 77.9265C40.265 77.9734 40.5427 78.1034 40.8134 78.3125C41.0841 78.5217 41.274 78.7583 41.377 79.0084C41.4799 79.2585 41.4919 79.5321 41.4129 79.8294C41.3339 80.1266 41.1742 80.4514 40.893 80.788L39.8887 82.0638L37.3433 80.0694L38.3335 78.7998L38.3476 78.7935Z" fill="#196579"/>
<path d="M49.2241 78.4149L47.0011 76.5559L46.7222 74.9047L51.7773 75.3587L53.1357 73.7391L46.5908 73.2047L45.6587 67.5242L44.2783 69.1705L45.2685 74.9434L45.1948 75.0439L41.769 72.1734L40.644 73.5199L48.0991 79.7614L49.2241 78.4149Z" fill="#196579"/>
<path d="M57.6678 70.8573L51.1475 60.7162L50.1329 61.8359L56.6673 71.9708L57.6678 70.8573Z" fill="#196579"/>
<path d="M56.5225 58.8133C56.7772 59.6129 57.289 60.3826 58.0275 61.1105C58.7761 61.8423 59.5458 62.3365 60.3505 62.5868C61.1553 62.8371 61.9324 62.8545 62.6881 62.6532C63.4439 62.4519 64.1156 62.0428 64.7095 61.4401C65.1154 61.0226 65.4217 60.5903 65.6323 60.133C65.8428 59.6757 65.964 59.2074 65.9919 58.7385C66.0198 58.2695 65.9708 57.8179 65.8348 57.3797C65.6988 56.9414 65.4922 56.5346 65.2049 56.1553L63.9489 57.4164C64.1146 57.6555 64.2316 57.8992 64.2859 58.154C64.3402 58.4089 64.36 58.6621 64.321 58.9162C64.282 59.1703 64.2124 59.4127 64.0879 59.6457C63.9634 59.8786 63.8044 60.1101 63.5983 60.3118C63.2324 60.6861 62.8099 60.9335 62.3387 61.0334C61.8636 61.1436 61.3743 61.1079 60.8503 60.9185C60.3303 60.719 59.796 60.3736 59.2694 59.8556C58.753 59.3416 58.3888 58.8275 58.1908 58.307C57.9928 57.7865 57.939 57.2862 58.0398 56.8101C58.1406 56.3341 58.374 55.9089 58.7438 55.5244C58.9538 55.3125 59.1724 55.139 59.4099 55.0079C59.6474 54.8767 59.8999 54.7981 60.1468 54.7642C60.404 54.7342 60.6557 54.7489 60.9161 54.8021C61.1726 54.8654 61.4197 54.9836 61.6613 55.1465L62.9072 53.8815C62.4725 53.5509 62.0191 53.3301 61.5547 53.1987C61.0904 53.0674 60.6254 53.0293 60.1596 53.0846C59.6939 53.1398 59.2455 53.2719 58.8167 53.5051C58.3817 53.7242 57.9804 54.0382 57.6004 54.4188C57.0065 55.0215 56.6165 55.7025 56.4305 56.4617C56.2444 57.2209 56.2756 57.9932 56.5405 58.7968L56.5225 58.8133Z" fill="#196579"/>
<path d="M69.51 56.4856L68.4473 54.1943L71.1075 51.6822L73.3433 52.8676L74.7146 51.5806L65.5488 46.8702L63.9715 48.359L68.1591 57.7805L69.5202 56.4895L69.51 56.4856ZM66.1433 49.0403L69.7935 50.9908L67.8299 52.846L66.0995 49.0936L66.1535 49.0442L66.1433 49.0403Z" fill="#196579"/>
<path d="M76.9155 49.6287L74.5593 46.9581L75.9017 45.7769L79.6902 47.1839L81.1588 45.8873L77.0117 44.3779C77.0352 44.3167 77.0932 44.257 77.1167 44.1959C77.3405 43.6734 77.3919 43.1433 77.2974 42.6274C77.1927 42.1076 76.9382 41.6122 76.5199 41.1475C76.1118 40.6868 75.6528 40.3586 75.1492 40.177C74.6457 39.9955 74.114 39.9787 73.5684 40.1202C73.0125 40.2579 72.4552 40.5822 71.9043 41.0727L69.1656 43.4845L75.5951 50.7832L76.9194 49.6184L76.9155 49.6287ZM72.673 42.362C73.0076 42.0693 73.3133 41.8824 73.6041 41.7952C73.895 41.7079 74.175 41.71 74.444 41.8016C74.7091 41.9033 74.961 42.0701 75.1878 42.3326C75.4146 42.5952 75.5622 42.8507 75.6126 43.1157C75.663 43.3807 75.6303 43.6489 75.5003 43.9266C75.3704 44.2043 75.1471 44.4813 74.8125 44.774L73.5924 45.85L71.4568 43.4279L72.673 42.362Z" fill="#196579"/>
<path d="M87.0037 41.0528L86.0689 39.922L82.526 42.8442L80.8299 40.8012L84.1 38.102L83.155 36.9672L79.8888 39.6563L78.213 37.6211L81.7238 34.7217L80.7827 33.5768L75.9146 37.6049L82.1035 45.1037L87.0037 41.0528Z" fill="#196579"/>
<path d="M93.3326 36.1231L92.4338 34.9593L88.792 37.7733L87.1742 35.6785L90.519 33.0898L89.6139 31.9119L86.2653 34.5109L84.6436 32.4263L88.2532 29.635L87.3443 28.4673L82.3483 32.341L88.3044 40.0195L93.3326 36.1231Z" fill="#196579"/>
<path d="M96.1199 34.0683L94.0326 31.185L95.4903 30.13L99.1317 31.89L100.722 30.7337L96.7541 28.8485C96.7878 28.7912 96.8317 28.7379 96.8653 28.6806C97.13 28.1738 97.2425 27.6672 97.1864 27.1426C97.1304 26.6181 96.9182 26.1038 96.5501 25.5999C96.1819 25.096 95.759 24.7348 95.2711 24.5125C94.7831 24.2902 94.2608 24.2184 93.7002 24.3075C93.1396 24.3965 92.547 24.6605 91.9467 25.0969L88.9952 27.24L94.7045 35.1045L96.1301 34.0722L96.1199 34.0683ZM92.5782 26.4389C92.9356 26.1783 93.264 26.0235 93.5674 25.9645C93.8709 25.9055 94.1391 25.9382 94.4003 26.0501C94.6576 26.1722 94.8875 26.3658 95.0822 26.651C95.2808 26.9261 95.3963 27.2044 95.4325 27.4757C95.4586 27.7431 95.4016 28.0136 95.245 28.2694C95.0844 28.5354 94.8345 28.7904 94.4771 29.051L93.162 30.0087L91.2631 27.3966L92.5743 26.4491L92.5782 26.4389Z" fill="#196579"/>
<path d="M130.566 16.4949C130.341 16.2464 130.071 16.0475 129.765 15.9024C129.456 15.767 129.13 15.6703 128.772 15.6177C128.415 15.565 128.064 15.5499 127.692 15.5595L126.785 15.5776C126.587 15.583 126.392 15.5788 126.193 15.5606C125.994 15.5425 125.803 15.505 125.63 15.4524C125.457 15.3998 125.301 15.3085 125.177 15.1967C125.053 15.0848 124.96 14.9289 124.917 14.7373C124.858 14.5039 124.871 14.2905 124.954 14.0735C125.047 13.8608 125.189 13.6692 125.402 13.4975C125.615 13.3258 125.902 13.1977 126.242 13.1047C126.727 12.9711 127.153 12.9729 127.519 13.1102C127.885 13.2474 128.134 13.4947 128.281 13.8701L129.862 13.444C129.717 12.9314 129.45 12.5149 129.07 12.1987C128.68 11.8783 128.216 11.6752 127.668 11.5851C127.119 11.495 126.526 11.5348 125.887 11.7047C125.248 11.8745 124.718 12.138 124.273 12.4964C123.828 12.8548 123.518 13.2725 123.33 13.7549C123.142 14.2372 123.13 14.7389 123.276 15.2751C123.451 15.928 123.805 16.3826 124.34 16.6625C124.878 16.9327 125.542 17.0736 126.341 17.0658L127.442 17.052C127.791 17.0435 128.104 17.0653 128.376 17.1034C128.647 17.1415 128.878 17.2195 129.054 17.3429C129.231 17.4662 129.353 17.6348 129.422 17.8724C129.492 18.1335 129.476 18.3802 129.375 18.6123C129.273 18.8444 129.1 19.0566 128.858 19.2391C128.617 19.4216 128.317 19.5552 127.963 19.6537C127.622 19.7468 127.298 19.7776 126.989 19.7461C126.68 19.7147 126.42 19.624 126.194 19.4559C125.968 19.2878 125.795 19.0509 125.689 18.7396L124.071 19.1723C124.258 19.7725 124.551 20.235 124.956 20.5735C125.361 20.912 125.854 21.1279 126.426 21.2168C127.002 21.296 127.647 21.2441 128.351 21.0567C129.083 20.8585 129.665 20.5829 130.124 20.219C130.573 19.851 130.882 19.4333 131.043 18.9618C131.203 18.4903 131.219 17.9789 131.069 17.4524C130.964 17.0607 130.796 16.7337 130.571 16.4852L130.566 16.4949Z" fill="#196579"/>
<path d="M137.654 10.5167C137.298 10.1189 136.854 9.84381 136.322 9.69144C135.779 9.53484 135.161 9.55233 134.456 9.71609L131.027 10.5204L133.164 19.6718L134.822 19.2796L134.101 16.187L135.848 15.7761C136.554 15.6123 137.122 15.3422 137.537 14.971C137.953 14.5999 138.242 14.1502 138.386 13.637C138.53 13.1238 138.53 12.5707 138.392 11.9916C138.253 11.4125 138.006 10.9241 137.664 10.5209L137.654 10.5167ZM136.26 14.0201C136.034 14.2208 135.711 14.3791 135.304 14.4661L133.776 14.8233L133.002 11.5113L134.515 11.1596C134.926 11.0629 135.285 11.0587 135.577 11.1288C135.869 11.199 136.109 11.3616 136.295 11.5696C136.48 11.7775 136.613 12.0544 136.687 12.3862C136.764 12.7084 136.77 13.0107 136.695 13.2887C136.629 13.571 136.476 13.8152 136.25 14.0159L136.26 14.0201Z" fill="#196579"/>
<path d="M140.945 8.29322L139.281 8.64185L141.208 17.8376L142.872 17.489L140.945 8.29322Z" fill="#196579"/>
<path d="M147.402 13.0993L149.846 16.1509L151.715 15.8047L149.031 12.5101C149.081 12.4744 149.141 12.443 149.191 12.4073C149.633 12.0822 149.939 11.6742 150.113 11.1972C150.277 10.7161 150.316 10.1799 150.205 9.58994C150.095 8.99996 149.871 8.51032 149.548 8.11557C149.216 7.71659 148.786 7.43608 148.263 7.28794C147.734 7.12591 147.115 7.11981 146.403 7.2461L142.942 7.88659L144.659 17.1304L146.33 16.8132L145.703 13.4274L147.407 13.1132L147.402 13.0993ZM146.4 8.67388C146.817 8.59109 147.171 8.59656 147.463 8.6667C147.755 8.73684 147.98 8.88133 148.152 9.09472C148.324 9.30811 148.441 9.56684 148.501 9.90414C148.565 10.2318 148.542 10.5213 148.459 10.7619C148.373 11.0121 148.204 11.2146 147.971 11.3778C147.724 11.5465 147.395 11.6673 146.983 11.7404L145.442 12.0226L144.873 8.95061L146.404 8.6642L146.4 8.67388Z" fill="#196579"/>
<path d="M153.051 6.10244L151.373 6.37378L152.873 15.6488L154.551 15.3775L153.051 6.10244Z" fill="#196579"/>
<path d="M157.677 6.83364L158.772 14.7336L160.442 14.4968L159.357 6.60103L162.226 6.20833L162.04 4.79021L154.609 5.81366L154.804 7.23601L157.677 6.83364Z" fill="#196579"/>
<path d="M165.001 12.4119C165.37 12.8846 165.847 13.2431 166.45 13.4722C167.043 13.6971 167.727 13.7661 168.494 13.6985C169.256 13.6169 169.902 13.4042 170.442 13.0645C170.983 12.7248 171.385 12.2788 171.646 11.736C171.907 11.1932 172.008 10.5923 171.936 9.91529L171.311 3.81121L169.623 3.98276L170.24 9.94538C170.279 10.331 170.226 10.6883 170.086 11.0074C169.947 11.3266 169.729 11.5883 169.432 11.7926C169.135 11.9969 168.768 12.1244 168.345 12.1697C167.922 12.215 167.541 12.1636 167.208 12.0294C166.879 11.8855 166.613 11.6769 166.405 11.3898C166.196 11.1027 166.079 10.7635 166.041 10.3779L165.437 4.40982L163.749 4.58137L164.374 10.6854C164.436 11.3582 164.659 11.9283 165.029 12.401L165.001 12.4119Z" fill="#196579"/>
<path d="M175.224 12.9325L175.845 10.5654L179.369 10.3329L180.303 12.5967L182.117 12.4802L178.197 3.32085L176.096 3.46154L173.416 13.0629L175.23 12.9464L175.224 12.9325ZM177.316 5.30892L178.833 9.0036L176.223 9.17509L177.245 5.31254L177.316 5.30892Z" fill="#196579"/>
<path d="M189.13 12.2535L189.085 10.8282L184.947 10.9645L184.685 3.00289L182.981 3.05233L183.297 12.4435L189.13 12.2535Z" fill="#196579"/>
<path d="M194.438 6.09614C194.592 6.42861 194.794 6.75867 195.051 7.06697C195.09 7.10747 195.126 7.15765 195.166 7.19815C194.823 7.42843 194.528 7.6563 194.265 7.88719C193.985 8.1332 193.776 8.39915 193.616 8.68626C193.456 8.97338 193.378 9.30825 193.374 9.68666C193.376 10.1829 193.489 10.6357 193.731 11.0298C193.974 11.424 194.33 11.7414 194.787 11.9874C195.248 12.2238 195.794 12.3471 196.437 12.352C196.862 12.3539 197.294 12.2892 197.746 12.1526C198.169 12.0269 198.537 11.819 198.854 11.5428L199.457 12.2446L201.259 12.2611L199.889 10.6247C199.924 10.5709 199.965 10.531 200.009 10.4814C200.221 10.1822 200.396 9.80928 200.529 9.37225C200.663 8.93522 200.74 8.41598 200.743 7.82963L199.32 7.81744C199.316 8.29982 199.23 8.73443 199.07 9.12552C199.019 9.24157 198.963 9.34372 198.907 9.44588L197.22 7.42861L197.812 6.99645C198.21 6.72083 198.51 6.4029 198.743 6.05535C198.966 5.70356 199.078 5.31488 199.089 4.86998C199.093 4.49158 198.994 4.13735 198.807 3.80185C198.615 3.47603 198.351 3.21064 198.001 3.01114C197.65 2.81163 197.224 2.70582 196.728 2.7076C196.236 2.6997 195.801 2.79759 195.424 3.00128C195.051 3.19529 194.767 3.47453 194.558 3.82088C194.349 4.16724 194.232 4.56558 194.236 5.00503C194.237 5.39734 194.308 5.76245 194.472 6.09916L194.438 6.09614ZM197.959 10.5061C197.809 10.613 197.657 10.6965 197.5 10.766C197.171 10.9104 196.84 10.9841 196.504 10.9871C196.196 10.9792 195.933 10.9218 195.71 10.8009C195.486 10.68 195.307 10.5095 195.184 10.3173C195.065 10.1154 195.001 9.8917 195.007 9.64084C195.009 9.48005 195.074 9.27815 195.218 9.0533C195.353 8.82421 195.578 8.59996 195.897 8.37089L196.048 8.26391L197.978 10.5145L197.959 10.5061ZM196.176 4.20606C196.332 4.11298 196.5 4.07128 196.708 4.07009C197.006 4.07374 197.242 4.16563 197.403 4.35122C197.577 4.53137 197.654 4.72602 197.645 4.92972C197.643 5.17091 197.578 5.3728 197.455 5.5493C197.322 5.72157 197.142 5.89625 196.889 6.05098L196.354 6.40456C196.354 6.40456 196.319 6.35438 196.294 6.33202C196.107 6.10049 195.959 5.88589 195.844 5.67431C195.729 5.46274 195.681 5.25721 195.68 5.04927C195.685 4.8788 195.73 4.72527 195.807 4.57476C195.894 4.42849 196.015 4.30881 196.162 4.2115L196.176 4.20606Z" fill="#196579"/>
<path d="M211.493 12.7625L211.567 11.3311L207.13 11.0951L207.273 8.53027L211.359 8.7512L211.428 7.32947L207.342 7.10854L207.48 4.55342L211.889 4.80037L211.963 3.36897L205.862 3.03848L205.35 12.4248L211.493 12.7625Z" fill="#196579"/>
<path d="M221.728 4.19821L218.319 10.7263L218.209 10.713L216.057 3.67553L213.986 3.48376L213.118 12.841L214.747 12.9892L215.339 6.5534L215.43 6.55824L217.425 13.2161L218.632 13.3292L221.814 7.16257L221.904 7.16742L221.312 13.6033L222.931 13.7472L223.799 4.38997L221.728 4.19821Z" fill="#196579"/>
<path d="M233.414 7.77911C233.138 7.01321 232.705 6.39722 232.113 5.93112C231.522 5.46503 230.818 5.17967 230.003 5.06536C229.189 4.95105 228.433 5.04651 227.739 5.34205C227.045 5.63759 226.459 6.10722 225.992 6.77876C225.52 7.4364 225.223 8.27418 225.085 9.27398C224.947 10.2738 225.021 11.1587 225.296 11.9246C225.572 12.6905 226.005 13.3065 226.596 13.7726C227.188 14.2387 227.892 14.5241 228.707 14.6384C229.521 14.7527 230.277 14.6572 230.971 14.3617C231.665 14.0662 232.251 13.5965 232.717 12.925C233.19 12.2673 233.487 11.4296 233.629 10.4201C233.767 9.42029 233.693 8.53533 233.418 7.76944L233.414 7.77911ZM231.358 11.9499C231.079 12.4038 230.727 12.7338 230.297 12.926C229.877 13.1224 229.412 13.1841 228.908 13.1248C228.398 13.0516 227.969 12.8751 227.622 12.5619C227.271 12.2585 227.013 11.8462 226.859 11.3293C226.705 10.8125 226.673 10.1996 226.774 9.49474C226.875 8.78992 227.063 8.20359 227.342 7.74965C227.631 7.29994 227.983 6.96992 228.403 6.7735C228.823 6.57707 229.288 6.51545 229.792 6.57473C230.296 6.634 230.732 6.82444 231.078 7.13758C231.43 7.44106 231.687 7.85333 231.841 8.37017C231.995 8.88701 232.027 9.49996 231.926 10.2048C231.825 10.9096 231.637 11.4959 231.348 11.9456L231.358 11.9499Z" fill="#196579"/>
<path d="M243.097 7.29267L235.704 6.01669L235.469 7.42329L238.331 7.91494L236.979 15.77L238.639 16.0585L239.991 8.20339L242.852 8.69505L243.097 7.29267Z" fill="#196579"/>
<path d="M246.342 7.92858L244.675 7.6001L242.859 16.8185L244.527 17.147L246.342 7.92858Z" fill="#196579"/>
<path d="M255.513 12.0791C255.302 11.2957 254.919 10.644 254.373 10.1283C253.826 9.61268 253.147 9.26928 252.343 9.07881C251.545 8.90225 250.775 8.92274 250.064 9.153C249.342 9.37902 248.726 9.81239 248.191 10.4307C247.655 11.0491 247.29 11.8572 247.066 12.8425C246.843 13.8278 246.836 14.7122 247.056 15.4998C247.266 16.2832 247.649 16.9349 248.196 17.4505C248.742 17.9662 249.417 18.3193 250.226 18.5001C251.034 18.6809 251.794 18.6561 252.505 18.4259C253.226 18.1999 253.852 17.7707 254.378 17.1481C254.904 16.5256 255.279 15.7216 255.502 14.7364C255.726 13.7511 255.733 12.8667 255.517 12.0694L255.513 12.0791ZM253.102 16.06C252.775 16.4928 252.393 16.7865 251.966 16.9455C251.525 17.1099 251.058 17.1243 250.561 17.0221C250.059 16.906 249.646 16.6908 249.321 16.3529C248.993 16.0246 248.777 15.596 248.664 15.0629C248.562 14.534 248.577 13.9186 248.741 13.2295C248.894 12.5362 249.14 11.9752 249.458 11.5382C249.785 11.1054 250.167 10.8117 250.604 10.657C251.04 10.5023 251.512 10.4781 252.009 10.5803C252.501 10.6922 252.924 10.9116 253.248 11.2496C253.573 11.5875 253.789 12.0161 253.905 12.5396C254.008 13.0685 253.992 13.6839 253.829 14.3729C253.676 15.0663 253.43 15.6272 253.112 16.0642L253.102 16.06Z" fill="#196579"/>
<path d="M264.205 12.1721L262.57 18.3588L262.488 18.3347L259.849 11.0148L258.382 10.6266L255.968 19.6991L257.617 20.1441L259.257 13.9477L259.339 13.9719L261.973 21.3014L263.43 21.6853L265.849 12.6032L264.205 12.1721Z" fill="#196579"/>
<path d="M310.92 50.1319L313.644 52.5972L311.38 55.0956L312.45 56.0613L317.775 50.1771L316.705 49.2114L314.453 51.7061L311.729 49.2407L313.981 46.746L312.918 45.7845L307.598 51.6609L308.656 52.6302L310.92 50.1319Z" fill="#196579"/>
<path d="M319.397 58.0751L320.234 57.2086L317.747 54.8094L319.252 53.2593L321.921 55.8468L322.757 54.9803L319.055 51.3963L313.535 57.0959L317.265 60.7046L318.102 59.8381L315.405 57.226L316.914 55.668L319.397 58.0751Z" fill="#196579"/>
<path d="M318.949 62.4012L320.807 61.5144L322.882 63.6633L321.931 65.4994L322.998 66.6046L326.764 59.0797L325.535 57.8067L317.886 61.3082L318.953 62.4133L318.949 62.4012ZM324.954 59.5372L325.001 59.5823L323.453 62.5744L321.917 60.9862L324.962 59.5414L324.954 59.5372Z" fill="#196579"/>
<path d="M327.853 70.1787L325.511 67.5842L330.504 63.0783L329.541 62.0078L323.657 67.3309L326.967 70.988L327.853 70.1787Z" fill="#196579"/>
<path d="M330.036 74.5668L335.165 70.2042L336.753 72.0728L337.667 71.2882L333.571 66.4736L332.649 67.2541L334.237 69.1227L329.112 73.4775L330.036 74.5668Z" fill="#196579"/>
<path d="M339.107 78.4833L336.829 75.5994L339.456 73.5175L338.566 72.3852L332.35 77.3086L333.24 78.4408L335.884 76.3474L338.162 79.2313L335.518 81.3247L336.413 82.4491L342.637 77.53L341.734 76.4014L339.107 78.4833Z" fill="#196579"/>
<path d="M371.54 139.097L371.886 140.627L369.218 142.94L369.592 144.616L372.477 142.086C372.514 142.139 372.542 142.187 372.582 142.231C372.892 142.619 373.27 142.882 373.705 143.023C374.144 143.156 374.626 143.171 375.16 143.051C375.695 142.931 376.13 142.713 376.476 142.402C376.821 142.091 377.064 141.691 377.185 141.213C377.311 140.727 377.299 140.175 377.153 139.529L376.456 136.421L368.164 138.285L368.501 139.789L371.536 139.106L371.54 139.097ZM375.544 138.196L375.853 139.575C375.941 139.951 375.949 140.271 375.892 140.534C375.835 140.796 375.719 141.005 375.538 141.178C375.36 141.342 375.112 141.456 374.823 141.525C374.526 141.591 374.265 141.589 374.042 141.52C373.818 141.451 373.623 141.311 373.469 141.096C373.315 140.881 373.194 140.585 373.102 140.219L372.794 138.839L375.543 138.218L375.544 138.196Z" fill="#196579"/>
<path d="M370.842 151.1L372.112 150.851L371.354 146.904L373.631 146.468L374.32 150.105L375.598 149.861L374.896 146.228L377.16 145.796L377.915 149.709L379.181 149.469L378.14 144.037L369.798 145.633L370.842 151.1Z" fill="#196579"/>
<path d="M375.265 151.672C374.362 151.807 373.612 152.102 373.027 152.532C372.437 152.97 372.014 153.5 371.763 154.135C371.511 154.77 371.442 155.451 371.558 156.19C371.64 156.693 371.781 157.13 372 157.524C372.212 157.912 372.481 158.235 372.79 158.503C373.105 158.763 373.451 158.965 373.835 159.1C374.218 159.235 374.609 159.297 375.015 159.292L374.781 157.757C374.525 157.747 374.3 157.7 374.09 157.606C373.88 157.513 373.697 157.39 373.533 157.234C373.368 157.078 373.243 156.889 373.149 156.685C373.054 156.48 372.978 156.242 372.941 155.993C372.873 155.542 372.92 155.121 373.089 154.734C373.258 154.348 373.544 154.026 373.948 153.747C374.356 153.482 374.876 153.289 375.521 153.186C376.153 153.087 376.699 153.104 377.172 153.234C377.646 153.364 378.021 153.592 378.308 153.903C378.595 154.213 378.771 154.605 378.847 155.06C378.888 155.323 378.887 155.562 378.857 155.796C378.826 156.029 378.749 156.248 378.643 156.441C378.533 156.641 378.385 156.811 378.217 156.958C378.036 157.109 377.83 157.224 377.58 157.304L377.822 158.843C378.28 158.703 378.673 158.505 379.012 158.245C379.343 157.981 379.607 157.679 379.813 157.324C380.011 156.965 380.154 156.586 380.222 156.166C380.29 155.745 380.286 155.297 380.215 154.833C380.094 154.102 379.828 153.476 379.392 152.942C378.96 152.421 378.399 152.035 377.699 151.803C376.999 151.57 376.198 151.521 375.295 151.656L375.265 151.672Z" fill="#196579"/>
<path d="M372.584 162.583L375.678 162.205L375.869 163.759L372.986 165.79L373.192 167.494L376.318 165.259C376.346 165.308 376.369 165.364 376.406 165.417C376.675 165.837 377.022 166.137 377.447 166.316C377.871 166.496 378.351 166.553 378.896 166.493C379.433 166.429 379.888 166.255 380.266 165.984C380.644 165.712 380.916 165.339 381.088 164.867C381.26 164.395 381.304 163.842 381.227 163.189L380.844 160.026L372.413 161.051L372.596 162.579L372.584 162.583ZM379.914 163.12C379.963 163.507 379.942 163.822 379.859 164.071C379.777 164.32 379.64 164.528 379.443 164.67C379.245 164.811 378.998 164.904 378.697 164.935C378.397 164.966 378.137 164.943 377.923 164.857C377.7 164.767 377.527 164.607 377.391 164.379C377.255 164.152 377.164 163.84 377.119 163.467L376.949 162.055L379.752 161.713L379.919 163.112L379.914 163.12Z" fill="#196579"/>
<path d="M373.777 174.091L375.058 173.979L374.704 169.971L377.011 169.759L377.343 173.45L378.625 173.339L378.301 169.652L380.594 169.444L380.946 173.418L382.232 173.298L381.74 167.797L373.282 168.557L373.777 174.091Z" fill="#196579"/>
<path d="M373.95 176.626L376.079 177.21L376.252 180.399L374.199 181.22L374.288 182.859L382.601 179.395L382.493 177.494L373.839 174.986L373.928 176.625L373.95 176.626ZM380.823 178.568L377.472 179.905L377.343 177.546L380.825 178.504L380.831 178.573L380.823 178.568Z" fill="#196579"/>
<path d="M374.38 186.157L374.41 187.688L381.609 187.532L381.668 190.158L382.959 190.127L382.813 183.347L381.522 183.377L381.58 186.002L374.38 186.157Z" fill="#196579"/>
<path d="M382.938 191.599L374.443 191.583L374.44 193.119L382.935 193.135L382.938 191.599Z" fill="#196579"/>
<path d="M378.706 194.628C377.792 194.605 377.005 194.749 376.347 195.073C375.689 195.397 375.18 195.847 374.807 196.426C374.447 197.001 374.254 197.668 374.229 198.406C374.212 199.149 374.365 199.822 374.692 200.415C375.019 201.009 375.504 201.494 376.148 201.848C376.791 202.203 377.565 202.4 378.487 202.428C379.4 202.451 380.188 202.307 380.854 201.988C381.512 201.663 382.021 201.214 382.389 200.643C382.75 200.068 382.943 199.4 382.967 198.662C382.984 197.92 382.831 197.247 382.504 196.653C382.169 196.055 381.693 195.575 381.049 195.22C380.405 194.866 379.631 194.669 378.709 194.641L378.706 194.628ZM381.577 198.616C381.563 199.077 381.44 199.478 381.204 199.827C380.968 200.177 380.624 200.445 380.173 200.632C379.721 200.819 379.175 200.9 378.531 200.883C377.887 200.866 377.348 200.755 376.904 200.533C376.464 200.323 376.134 200.032 375.918 199.674C375.701 199.315 375.602 198.901 375.608 198.435C375.622 197.975 375.749 197.565 375.98 197.224C376.216 196.875 376.56 196.606 377.012 196.419C377.463 196.232 378.009 196.151 378.653 196.168C379.298 196.185 379.844 196.3 380.28 196.518C380.72 196.728 381.05 197.019 381.267 197.378C381.483 197.736 381.582 198.15 381.568 198.611L381.577 198.616Z" fill="#196579"/>
<path d="M374.067 205.214L379.84 205.592L379.841 205.669L373.799 209.283L373.703 210.646L382.185 211.208L382.289 209.674L376.507 209.292L376.514 209.219L382.552 205.613L382.645 204.237L374.17 203.68L374.067 205.214Z" fill="#196579"/>
<path d="M377.775 216.788C377.775 216.788 377.688 216.848 377.644 216.868C377.473 216.545 377.289 216.247 377.11 215.997C376.912 215.724 376.694 215.506 376.449 215.338C376.203 215.171 375.913 215.065 375.572 215.03C375.122 214.978 374.713 215.048 374.33 215.229C373.947 215.41 373.632 215.705 373.378 216.088C373.119 216.48 372.963 216.96 372.893 217.543C372.848 217.921 372.866 218.324 372.949 218.728C373.027 219.12 373.176 219.464 373.394 219.78L372.709 220.252L372.525 221.873L374.123 220.791C374.164 220.835 374.196 220.875 374.242 220.911C374.494 221.126 374.811 221.322 375.189 221.487C375.567 221.651 376.028 221.763 376.56 221.827L376.708 220.547C376.279 220.496 375.895 220.383 375.56 220.199C375.46 220.143 375.377 220.076 375.29 220.017L377.265 218.685L377.592 219.258C377.808 219.638 378.06 219.951 378.351 220.176C378.644 220.414 378.985 220.548 379.385 220.593C379.734 220.633 380.056 220.581 380.369 220.448C380.678 220.303 380.939 220.087 381.155 219.792C381.364 219.493 381.502 219.122 381.55 218.68C381.597 218.237 381.557 217.834 381.413 217.482C381.269 217.131 381.054 216.849 380.764 216.624C380.469 216.407 380.12 216.269 379.728 216.228C379.38 216.189 379.045 216.223 378.725 216.33C378.404 216.437 378.099 216.595 377.797 216.788L377.775 216.788ZM374.408 219.085C374.333 218.945 374.262 218.797 374.212 218.65C374.109 218.343 374.074 218.03 374.107 217.732C374.139 217.455 374.221 217.228 374.353 217.028C374.48 216.837 374.648 216.69 374.84 216.599C375.031 216.508 375.246 216.474 375.463 216.495C375.608 216.51 375.78 216.593 375.975 216.733C376.166 216.882 376.349 217.103 376.521 217.404L376.605 217.549L374.404 219.072L374.408 219.085ZM378.959 217.646C379.159 217.56 379.356 217.538 379.535 217.549C379.688 217.568 379.823 217.62 379.947 217.711C380.072 217.801 380.17 217.92 380.241 218.068C380.312 218.216 380.331 218.379 380.311 218.554C380.284 218.822 380.173 219.023 379.993 219.152C379.813 219.282 379.635 219.347 379.452 219.323C379.235 219.302 379.05 219.222 378.906 219.088C378.762 218.954 378.624 218.769 378.514 218.534L378.239 218.023C378.239 218.023 378.287 217.995 378.309 217.975C378.529 217.834 378.742 217.723 378.942 217.637L378.959 217.646Z" fill="#196579"/>
<path d="M371.749 227.101L375.315 227.669L374.759 231.154L376.032 231.354L376.589 227.869L378.864 228.228L378.255 232.087L379.528 232.287L380.386 226.908L371.989 225.577L371.749 227.101Z" fill="#196579"/>
<path d="M372.491 239.602L377.939 240.651L378.225 239.141L372.896 238.115C372.553 238.046 372.255 237.914 372.011 237.704C371.767 237.493 371.598 237.248 371.499 236.932C371.396 236.624 371.384 236.269 371.464 235.888C371.543 235.507 371.675 235.187 371.885 234.944C372.087 234.695 372.346 234.522 372.645 234.414C372.953 234.311 373.273 234.302 373.621 234.363L378.95 235.39L379.236 233.88L373.789 232.832C373.186 232.718 372.642 232.757 372.135 232.946C371.628 233.135 371.196 233.464 370.845 233.924C370.493 234.385 370.244 234.956 370.119 235.638C369.986 236.317 370.004 236.937 370.157 237.49C370.31 238.042 370.587 238.51 370.995 238.877C371.39 239.247 371.889 239.489 372.491 239.602Z" fill="#196579"/>
<path d="M376.316 247.84L370.674 246.532L370.694 246.456L377.238 243.87L377.552 242.528L369.272 240.607L368.927 242.106L374.564 243.423L374.549 243.49L368.005 246.076L367.696 247.41L375.975 249.331L376.316 247.84Z" fill="#196579"/>
<path d="M16.0254 126.677C15.7903 127.357 15.725 127.972 15.8152 128.529C15.9054 129.085 16.1306 129.55 16.4962 129.937C16.8618 130.324 17.3191 130.611 17.8874 130.808C18.446 131 18.9889 131.044 19.5073 130.961C20.03 130.867 20.4947 130.642 20.9099 130.265C21.3252 129.889 21.6432 129.364 21.8685 128.679L22.9944 125.362L14.151 122.364L13.6094 123.962L16.601 124.977L16.0297 126.667L16.0254 126.677ZM20.6189 127.989C20.487 128.387 20.3034 128.692 20.0919 128.901C19.8706 129.107 19.6225 129.242 19.3367 129.278C19.0607 129.318 18.7578 129.287 18.4421 129.181C18.1265 129.074 17.8664 128.922 17.6663 128.715C17.4661 128.508 17.3411 128.264 17.2901 127.96C17.2391 127.656 17.2774 127.309 17.419 126.916L17.9177 125.439L21.1132 126.522L20.6189 127.989Z" fill="#196579"/>
<path d="M19.2037 138.697L15.4219 137.562L16.6618 133.417L20.4436 134.552L20.9319 132.942L11.9961 130.255L11.5077 131.865L15.309 133.009L14.0594 137.15L10.2678 136.01L9.77506 137.63L18.7109 140.317L19.2037 138.697Z" fill="#196579"/>
<path d="M16.7598 149.385L17.248 147.54L13.8327 144.283L13.8527 144.186L18.4295 143.029L18.9177 141.184L12.3899 142.978L9.021 142.099L8.59554 143.725L11.9601 144.615L16.7598 149.385Z" fill="#196579"/>
<path d="M7.67574 154.753C8.01647 155.117 8.45757 155.362 8.98929 155.484C9.38101 155.577 9.74486 155.577 10.0721 155.501C10.3993 155.425 10.6898 155.274 10.9589 155.066C11.2279 154.859 11.457 154.61 11.6655 154.328C11.8784 154.037 12.062 153.733 12.2208 153.405L12.6279 152.603C12.7067 152.427 12.8095 152.251 12.9176 152.088C13.0302 151.916 13.1437 151.768 13.2723 151.638C13.401 151.508 13.5458 151.42 13.7013 151.361C13.8569 151.302 14.0339 151.3 14.2271 151.339C14.4495 151.392 14.6457 151.504 14.7916 151.675C14.9376 151.846 15.0378 152.067 15.0824 152.333C15.127 152.6 15.116 152.911 15.0343 153.25C14.9206 153.738 14.7302 154.11 14.4392 154.366C14.1483 154.622 13.8079 154.728 13.4182 154.682L13.0581 156.267C13.5746 156.37 14.0614 156.331 14.5182 156.149C14.9795 155.957 15.3782 155.644 15.7143 155.208C16.0505 154.773 16.2915 154.236 16.4417 153.589C16.5875 152.95 16.606 152.361 16.492 151.805C16.3876 151.254 16.1668 150.78 15.8207 150.402C15.4887 150.018 15.052 149.763 14.5062 149.647C13.8583 149.497 13.2834 149.602 12.7901 149.944C12.2968 150.285 11.8734 150.81 11.5057 151.525L11.0002 152.494C10.8405 152.797 10.6841 153.067 10.5258 153.289C10.3675 153.511 10.192 153.667 10.0048 153.77C9.81762 153.874 9.60791 153.897 9.37132 153.849C9.10546 153.789 8.90394 153.663 8.73746 153.459C8.58074 153.26 8.47957 153.015 8.42422 152.721C8.37863 152.43 8.39837 152.099 8.47904 151.737C8.55095 151.394 8.67264 151.097 8.8485 150.836C9.01022 150.58 9.22272 150.394 9.46648 150.269C9.72 150.148 9.99602 150.108 10.3282 150.152L10.6917 148.533C10.0839 148.424 9.52989 148.456 9.04037 148.659C8.55524 148.851 8.14776 149.184 7.80381 149.663C7.46424 150.132 7.22086 150.726 7.05853 151.427C6.8928 152.162 6.86211 152.805 6.97181 153.37C7.08152 153.935 7.30674 154.4 7.64747 154.764L7.67574 154.753Z" fill="#196579"/>
<path d="M15.6139 158.266L6.46289 156.406L6.12619 158.062L15.2772 159.922L15.6139 158.266Z" fill="#196579"/>
<path d="M6.57619 167.638C6.92269 167.911 7.30963 168.12 7.737 168.265L8.04535 166.586C7.78287 166.492 7.56182 166.357 7.3822 166.183C7.20257 166.008 7.05124 165.823 6.94132 165.598C6.8314 165.372 6.75951 165.141 6.73005 164.893C6.70058 164.645 6.70378 164.377 6.75916 164.097C6.84362 163.596 7.05154 163.185 7.35805 162.842C7.66455 162.499 8.08576 162.266 8.60654 162.124C9.12293 161.993 9.73552 161.986 10.4443 162.105C11.1389 162.23 11.6985 162.446 12.1372 162.748C12.5759 163.051 12.8928 163.416 13.0736 163.849C13.2544 164.282 13.3025 164.749 13.2083 165.246C13.1627 165.53 13.0727 165.783 12.9578 166.013C12.8428 166.243 12.6835 166.441 12.5037 166.606C12.3238 166.772 12.1137 166.9 11.8734 166.992C11.633 167.083 11.3765 167.132 11.0985 167.124L10.7999 168.808C11.3276 168.834 11.8036 168.766 12.2473 168.613C12.691 168.461 13.0742 168.234 13.4163 167.942C13.7487 167.646 14.0357 167.294 14.2578 166.878C14.4798 166.462 14.638 166.005 14.7268 165.494C14.8657 164.689 14.8153 163.939 14.5519 163.246C14.2928 162.544 13.8324 161.95 13.1989 161.454C12.5557 160.954 11.7424 160.624 10.7536 160.45C9.76486 160.276 8.88503 160.303 8.11949 160.545C7.3442 160.784 6.71926 161.183 6.2359 161.763C5.74717 162.329 5.43607 163.022 5.28747 163.823C5.19524 164.368 5.18785 164.881 5.26529 165.361C5.34274 165.841 5.50403 166.266 5.7404 166.653C5.97677 167.041 6.26334 167.369 6.60985 167.642L6.57619 167.638Z" fill="#196579"/>
<path d="M13.854 173.259L5.06543 168.703L4.81423 170.489L6.98986 171.572L6.49762 175.044L4.10763 175.484L3.85642 177.271L13.5562 175.306L13.8487 173.245L13.854 173.259ZM7.91378 174.789L8.27116 172.218L11.8257 173.99L11.8145 174.067L7.91378 174.789Z" fill="#196579"/>
<path d="M13.1718 180.849L13.2767 179.157L3.94473 178.639L3.62602 184.434L5.04121 184.513L5.2689 180.402L13.1718 180.849Z" fill="#196579"/>
<path d="M4.85771 190.729L7.40272 190.763L7.34946 194.837L8.76402 194.858L8.82726 190.787L11.3584 190.827L11.2906 195.206L12.7151 195.23L12.7964 189.159L3.4666 189.019L3.37368 195.121L4.79822 195.145L4.85771 190.729Z" fill="#196579"/>
<path d="M12.8101 202.563L6.44479 202.677L6.45189 202.6L12.73 198.092L12.6977 196.577L3.36321 196.745L3.3935 198.443L9.75881 198.329L9.75171 198.406L3.48362 202.918L3.50979 204.419L12.8442 204.251L12.8101 202.563Z" fill="#196579"/>
<path d="M13.2277 211.879L5.76652 209.848L5.75753 209.752L12.9637 206.935L12.8662 205.085L3.71386 208.869L3.83379 210.957L13.3252 213.729L13.2277 211.879Z" fill="#196579"/>
<path d="M13.4054 214.666L4.0957 215.395L4.22767 217.08L13.5374 216.351L13.4054 214.666Z" fill="#196579"/>
<path d="M8.68105 223.757C8.97017 224.225 9.34332 224.565 9.80437 224.766C10.2654 224.968 10.7967 225.047 11.392 224.991C11.9873 224.935 12.4939 224.753 12.9178 224.458C13.3417 224.164 13.6453 223.765 13.8462 223.247C14.0434 222.738 14.1102 222.121 14.039 221.417L13.6914 217.933L4.40109 218.875L4.57427 220.56L7.97728 220.215L8.15269 221.924L4.9363 224.096L5.12742 225.971L8.62545 223.575C8.62545 223.575 8.66659 223.706 8.70487 223.755L8.68105 223.757ZM12.4458 219.756L12.6055 221.297C12.6497 221.716 12.6158 222.07 12.5314 222.347C12.4332 222.63 12.2806 222.846 12.0498 222.998C11.829 223.153 11.5538 223.242 11.2304 223.277C10.897 223.308 10.6107 223.278 10.379 223.165C10.1435 223.062 9.94889 222.883 9.80901 222.623C9.66526 222.372 9.56627 222.035 9.53198 221.621L9.37615 220.069L12.4558 219.76L12.4458 219.756Z" fill="#196579"/>
<path d="M10.9941 234.749C11.9898 234.607 12.8169 234.308 13.4793 233.842C14.1417 233.376 14.6101 232.789 14.9006 232.099C15.1911 231.408 15.2744 230.661 15.1643 229.849C15.0542 229.038 14.7626 228.34 14.3033 227.749C13.844 227.158 13.2315 226.726 12.4657 226.452C11.7 226.178 10.8331 226.106 9.82747 226.244C8.83567 226.376 8.00471 226.685 7.35228 227.155C6.68987 227.621 6.22146 228.208 5.93096 228.898C5.64047 229.589 5.54334 230.343 5.65729 231.144C5.76738 231.955 6.05898 232.653 6.51829 233.244C6.97759 233.835 7.59012 234.268 8.35588 234.541C9.11166 234.811 9.9885 234.887 10.9941 234.749ZM7.71892 232.218C7.42108 231.862 7.22783 231.443 7.16076 230.935C7.09368 230.427 7.15627 229.97 7.35239 229.552C7.5485 229.135 7.87042 228.778 8.32424 228.495C8.77806 228.212 9.35606 228.023 10.0582 227.928C10.7604 227.833 11.3686 227.862 11.8827 228.015C12.3969 228.169 12.8048 228.419 13.1027 228.775C13.4005 229.131 13.5899 229.56 13.6608 230.058C13.7279 230.566 13.6653 231.024 13.4692 231.441C13.2731 231.858 12.9512 232.215 12.4974 232.498C12.0435 232.781 11.4655 232.97 10.7634 233.065C10.0612 233.16 9.45303 233.131 8.93887 232.978C8.42471 232.824 8.01677 232.574 7.71892 232.218Z" fill="#196579"/>
<path d="M16.8375 241.199L10.5642 242.29L10.5513 242.205L16.0706 236.784L15.8102 235.295L6.61036 236.892L6.90645 238.556L13.1659 237.471L13.1826 237.546L7.6733 242.971L7.92377 244.456L17.1275 242.849L16.8375 241.199Z" fill="#196579"/>
<path d="M18.9939 251.764L11.795 250.477L11.77 250.364L17.7998 246.231L17.3648 244.215L8.24241 246.175L8.57941 247.763L14.8618 246.412L14.8846 246.501L9.16574 250.365L9.42693 251.556L16.2114 252.728L16.2342 252.817L9.96564 254.162L10.3026 255.749L19.4289 253.78L18.9939 251.764Z" fill="#196579"/>
<path d="M12.5315 258.757L14.9998 258.131L16.0098 262.067L17.3807 261.726L16.3746 257.78L18.833 257.15L19.9159 261.401L21.2807 261.047L19.7849 255.167L10.7377 257.466L12.2418 263.383L13.6266 263.036L12.5315 258.757Z" fill="#196579"/>
<path d="M23.2993 268.127L17.1802 269.886L17.1635 269.811L22.0529 263.824L21.6319 262.365L12.6654 264.959L13.1359 266.587L19.245 264.824L19.2656 264.889L14.3822 270.89L14.7972 272.335L23.7637 269.741L23.2993 268.127Z" fill="#196579"/>
<path d="M22.732 271.189L23.6198 273.931L16.0958 276.384L16.6217 277.987L24.1395 275.52L25.0373 278.265L26.3893 277.826L24.074 270.745L22.732 271.189Z" fill="#196579"/>
<path d="M44.4907 305.754L42.1057 302.597L44.1624 301.044L46.8118 304.528L47.9615 303.656L44.2803 298.79L36.6861 304.536L37.7216 305.907L40.956 303.469L43.341 306.626L44.4907 305.754Z" fill="#196579"/>
<path d="M48.8055 304.656L41.3311 310.554L42.3985 311.907L49.8729 306.009L48.8055 304.656Z" fill="#196579"/>
<path d="M54.7053 311.983L49.7175 316.13L49.6605 316.064L51.7874 308.471L50.8026 307.281L43.4794 313.368L44.5885 314.696L49.5763 310.548L49.623 310.612L47.4961 318.204L48.4846 319.384L55.804 313.307L54.7053 311.983Z" fill="#196579"/>
<path d="M58.5941 316.471L49.2635 320.315L50.4853 321.683L52.7623 320.708L55.149 323.379L53.9193 325.532L55.1412 326.901L60.0038 318.059L58.5839 316.468L58.5941 316.471ZM54.1084 320.128L57.8254 318.536L57.8758 318.589L55.8776 322.1L54.1084 320.128Z" fill="#196579"/>
<path d="M67.0455 325.564L62.3632 330.054L62.3127 330.001L63.8877 322.267L62.8146 321.161L55.9482 327.749L57.1456 328.993L61.8279 324.504L61.8783 324.557L60.3071 332.28L61.3662 333.393L68.2326 326.805L67.0455 325.564Z" fill="#196579"/>
<path d="M68.7181 337.182C68.4648 337.242 68.2161 337.256 67.9719 337.226C67.7277 337.196 67.488 337.121 67.2529 337.001C67.0179 336.881 66.8078 336.724 66.6024 336.523C66.2317 336.169 65.9969 335.759 65.884 335.301C65.7712 334.843 65.8074 334.357 65.9926 333.844C66.1778 333.331 66.5185 332.805 67.0317 332.283C67.5309 331.768 68.0296 331.414 68.5416 331.216C69.0536 331.019 69.538 330.962 70.0014 331.059C70.4684 331.147 70.8835 331.378 71.2543 331.732C71.4597 331.934 71.6335 332.159 71.7589 332.39C71.8843 332.621 71.9715 332.861 71.9963 333.113C72.0314 333.369 72.0151 333.607 71.957 333.864C71.8989 334.122 71.7792 334.357 71.6213 334.601L72.868 335.805C73.1857 335.375 73.4037 334.932 73.5219 334.476C73.6401 334.02 73.6755 333.569 73.6213 333.109C73.5672 332.648 73.4227 332.214 73.2018 331.798C72.9707 331.378 72.6736 330.981 72.2963 330.613C71.7033 330.039 71.0297 329.657 70.2922 329.483C69.5446 329.306 68.788 329.346 68.0087 329.609C67.2294 329.873 66.4823 330.368 65.7637 331.106C65.0554 331.848 64.5744 332.602 64.3376 333.386C64.1008 334.17 64.0784 334.939 64.2878 335.675C64.487 336.408 64.8985 337.067 65.4877 337.651C65.8921 338.04 66.326 338.348 66.7765 338.545C67.227 338.743 67.683 338.861 68.1377 338.886C68.5925 338.911 69.0424 338.853 69.4735 338.719C69.9047 338.585 70.303 338.381 70.662 338.093L69.4191 336.879C69.1874 337.039 68.9501 337.15 68.6967 337.209L68.7181 337.182Z" fill="#196579"/>
<path d="M76.3029 336.536L79.6166 339.53L80.5814 338.464L75.996 334.303L69.6114 341.355L74.2239 345.537L75.1924 344.461L71.8517 341.445L73.6037 339.515L76.6672 342.303L77.646 341.23L74.5685 338.449L76.3029 336.536Z" fill="#196579"/>
<path d="M85.4408 342.921C85.2085 342.408 84.8338 341.936 84.3167 341.506C83.8097 341.079 83.2826 340.773 82.7241 340.618C82.1656 340.462 81.6419 340.436 81.1353 340.554C80.6286 340.673 80.1904 340.955 79.828 341.381C79.3837 341.905 79.2043 342.466 79.2858 343.075C79.3673 343.684 79.638 344.315 80.1044 344.983L80.7476 345.899C80.9476 346.18 81.1169 346.45 81.2348 346.701C81.3631 346.956 81.4195 347.185 81.4246 347.396C81.4298 347.606 81.352 347.822 81.1921 348.007C81.0146 348.21 80.7941 348.339 80.5445 348.388C80.2949 348.437 80.0227 348.42 79.7253 348.313C79.438 348.209 79.1488 348.046 78.865 347.805C78.5915 347.567 78.3803 347.317 78.2316 347.054C78.0865 346.782 78.0104 346.511 78.0107 346.221C78.0212 345.935 78.1212 345.658 78.3107 345.39L77.0168 344.285C76.6284 344.783 76.4087 345.295 76.354 345.831C76.2993 346.368 76.4105 346.895 76.6735 347.419C76.9365 347.943 77.3551 348.454 77.9125 348.934C78.4866 349.431 79.0651 349.756 79.6301 349.925C80.1952 350.094 80.7226 350.111 81.2124 349.974C81.7022 349.838 82.1302 349.552 82.4889 349.137C82.7519 348.826 82.9291 348.495 83.0132 348.166C83.0972 347.837 83.1058 347.492 83.0417 347.156C82.9776 346.82 82.865 346.489 82.704 346.165C82.543 345.84 82.3541 345.528 82.1372 345.229L81.6072 344.482C81.4904 344.323 81.3773 344.155 81.2781 343.98C81.1789 343.805 81.0937 343.624 81.043 343.443C80.9923 343.262 80.9723 343.093 81.0008 342.918C81.0293 342.742 81.0988 342.582 81.2336 342.433C81.3898 342.258 81.5824 342.142 81.8012 342.082C82.0303 342.025 82.2679 342.042 82.5383 342.128C82.8088 342.214 83.0775 342.369 83.351 342.607C83.7394 342.944 83.9825 343.298 84.0802 343.67C84.1742 344.052 84.1136 344.413 83.8879 344.748L85.1482 345.818C85.493 345.409 85.6839 344.945 85.7275 344.439C85.7711 343.933 85.6767 343.423 85.4408 342.921Z" fill="#196579"/>
<path d="M168.832 377.953C169.392 377.75 169.831 377.425 170.147 376.989C170.467 376.542 170.671 375.999 170.737 375.353C170.803 374.707 170.724 374.137 170.507 373.622C170.29 373.107 169.933 372.694 169.439 372.372C168.944 372.049 168.306 371.84 167.542 371.762L163.775 371.364L162.712 381.409L164.53 381.606L164.927 377.924L166.781 378.12L168.367 382.014L170.397 382.229L168.635 378.001C168.635 378.001 168.774 377.983 168.843 377.956L168.832 377.953ZM165.429 373.074L167.096 373.249C167.555 373.293 167.909 373.402 168.187 373.561C168.466 373.719 168.654 373.935 168.762 374.211C168.874 374.476 168.911 374.79 168.871 375.154C168.835 375.506 168.732 375.801 168.565 376.028C168.398 376.256 168.167 376.415 167.869 376.517C167.571 376.619 167.191 376.635 166.743 376.593L165.065 376.415L165.415 373.081L165.429 373.074Z" fill="#196579"/>
<path d="M180.544 375.105C180.196 374.307 179.688 373.678 179.018 373.217C178.348 372.756 177.569 372.491 176.689 372.438C175.801 372.37 175.002 372.524 174.274 372.881C173.546 373.238 172.951 373.793 172.491 374.536C172.032 375.279 171.763 376.19 171.681 377.28C171.603 378.358 171.734 379.308 172.093 380.109C172.441 380.907 172.949 381.536 173.619 381.998C174.289 382.459 175.068 382.723 175.945 382.788C176.833 382.855 177.631 382.702 178.359 382.345C179.088 381.988 179.683 381.432 180.143 380.689C180.602 379.946 180.871 379.036 180.952 377.946C181.034 376.856 180.888 375.914 180.541 375.116L180.544 375.105ZM178.612 379.72C178.334 380.228 177.976 380.603 177.538 380.843C177.1 381.084 176.608 381.187 176.062 381.151C175.515 381.116 175.035 380.944 174.643 380.641C174.241 380.335 173.946 379.917 173.739 379.369C173.544 378.824 173.467 378.17 173.519 377.41C173.575 376.64 173.744 376.013 174.011 375.502C174.289 374.994 174.647 374.619 175.085 374.379C175.522 374.138 176.015 374.035 176.561 374.071C177.108 374.106 177.588 374.278 177.979 374.581C178.382 374.887 178.677 375.305 178.883 375.853C179.09 376.402 179.156 377.052 179.103 377.812C179.051 378.571 178.878 379.209 178.612 379.72Z" fill="#196579"/>
<path d="M190.915 373.227L187.693 380.449L187.583 380.452L184.794 373.035L182.558 372.976L182.255 383.074L184.018 383.133L184.227 376.169L184.311 376.17L186.898 383.185L188.217 383.228L191.21 376.396L191.305 376.401L191.092 383.339L192.858 383.387L193.15 373.286L190.915 373.227Z" fill="#196579"/>
<path d="M197.551 373.25L194.095 383.393L196.05 383.378L196.858 380.877L200.652 380.835L201.51 383.317L203.466 383.303L199.799 373.228L197.539 373.246L197.551 373.25ZM197.341 379.39L198.663 375.301L198.736 375.3L200.15 379.359L197.341 379.39Z" fill="#196579"/>
<path d="M210.739 372.847L211.063 379.733L210.965 379.739L205.895 373.073L204.259 373.151L204.733 383.246L206.562 383.168L206.238 376.282L206.323 376.283L211.396 382.938L213.031 382.861L212.558 372.766L210.739 372.847Z" fill="#196579"/>
<path d="M221.472 378.835C221.442 379.129 221.356 379.405 221.234 379.646C221.111 379.887 220.951 380.092 220.739 380.269C220.538 380.449 220.313 380.586 220.052 380.687C219.791 380.788 219.517 380.85 219.218 380.878C218.669 380.927 218.18 380.825 217.742 380.593C217.294 380.358 216.934 379.992 216.655 379.482C216.376 378.972 216.197 378.335 216.132 377.563C216.075 376.806 216.13 376.157 216.333 375.614C216.526 375.067 216.828 374.639 217.227 374.326C217.627 374.013 218.103 373.845 218.651 373.796C218.962 373.771 219.248 373.786 219.52 373.846C219.793 373.906 220.041 374.007 220.271 374.162C220.494 374.304 220.689 374.497 220.851 374.717C221.014 374.937 221.126 375.202 221.206 375.493L223.045 375.345C222.926 374.788 222.725 374.301 222.441 373.886C222.157 373.472 221.815 373.124 221.414 372.855C221.012 372.585 220.564 372.387 220.067 372.27C219.57 372.153 219.049 372.113 218.49 372.159C217.609 372.226 216.845 372.5 216.179 372.973C215.515 373.435 215.013 374.08 214.68 374.886C214.346 375.692 214.214 376.632 214.301 377.726C214.391 378.808 214.668 379.717 215.131 380.454C215.595 381.191 216.189 381.738 216.915 382.095C217.645 382.441 218.45 382.58 219.331 382.513C219.927 382.467 220.466 382.33 220.945 382.114C221.424 381.898 221.827 381.611 222.167 381.255C222.507 380.899 222.773 380.509 222.968 380.072C223.164 379.635 223.27 379.172 223.3 378.684L221.461 378.831L221.472 378.835Z" fill="#196579"/>
<path d="M226.785 380.11L226.467 377.371L230.84 376.865L230.666 375.345L226.293 375.851L225.983 373.125L230.684 372.576L230.511 371.056L223.979 371.804L225.147 381.847L231.719 381.087L231.534 379.564L226.785 380.11Z" fill="#196579"/>
<path d="M289.483 356.196L288.696 355.102L285.693 357.274L284.287 355.311L287.595 352.921L286.808 351.827L282.182 355.163L287.399 362.369L288.705 361.431L286.491 358.37L289.483 356.196Z" fill="#196579"/>
<path d="M294.946 352.256C295.18 351.789 295.259 351.317 295.195 350.84C295.13 350.364 294.93 349.896 294.582 349.445C294.234 348.993 293.833 348.677 293.39 348.479C292.936 348.289 292.459 348.239 291.948 348.329C291.434 348.429 290.906 348.681 290.361 349.095L287.722 351.132L293.152 358.178L294.434 357.195L292.449 354.617L293.745 353.615L297.118 355.135L298.543 354.041L294.867 352.419C294.897 352.362 294.936 352.317 294.966 352.26L294.946 352.256ZM291.623 353.568L289.815 351.227L290.98 350.327C291.301 350.081 291.596 349.924 291.874 349.867C292.144 349.799 292.399 349.821 292.64 349.924C292.871 350.025 293.089 350.207 293.285 350.457C293.48 350.707 293.594 350.953 293.625 351.196C293.657 351.439 293.614 351.691 293.48 351.937C293.345 352.183 293.119 352.424 292.808 352.672L291.631 353.58L291.623 353.568Z" fill="#196579"/>
<path d="M295.064 345.357L293.811 346.369L299.399 353.296L300.653 352.284L295.064 345.357Z" fill="#196579"/>
<path d="M302.342 349.171L300.783 347.316L303.747 344.817L302.877 343.781L299.913 346.28L298.354 344.425L301.547 341.737L300.677 340.702L296.254 344.433L301.983 351.24L306.441 347.483L305.559 346.456L302.342 349.171Z" fill="#196579"/>
<path d="M305.895 336.049L309.953 340.558L309.894 340.6L302.725 338.906L301.654 339.863L307.611 346.481L308.806 345.4L304.748 340.891L304.807 340.849L311.976 342.543L313.037 341.584L307.088 334.978L305.895 336.049Z" fill="#196579"/>
<path d="M316.454 332.131C315.811 331.464 315.132 331.019 314.428 330.776C313.724 330.534 313.016 330.507 312.311 330.699C311.607 330.89 310.941 331.285 310.299 331.901L308.088 334.04L314.279 340.439L316.441 338.343C317.094 337.719 317.518 337.046 317.739 336.349C317.959 335.652 317.956 334.938 317.736 334.218C317.516 333.499 317.084 332.806 316.442 332.139L316.454 332.131ZM315.424 337.385L314.472 338.311L310.227 333.925L311.214 332.975C311.648 332.552 312.085 332.284 312.54 332.164C312.994 332.044 313.445 332.069 313.911 332.251C314.376 332.432 314.839 332.758 315.314 333.252C315.789 333.746 316.101 334.222 316.27 334.695C316.438 335.168 316.444 335.624 316.306 336.076C316.168 336.529 315.877 336.966 315.432 337.397L315.424 337.385Z" fill="#196579"/>
<path d="M323.297 327.878C323.021 327.614 322.731 327.431 322.416 327.336C322.111 327.244 321.796 327.211 321.479 327.251C321.162 327.29 320.849 327.372 320.537 327.506C320.225 327.639 319.92 327.794 319.639 327.985L318.911 328.441C318.76 328.54 318.589 328.635 318.419 328.72C318.25 328.806 318.074 328.869 317.911 328.914C317.739 328.957 317.573 328.96 317.424 328.925C317.263 328.898 317.122 328.812 316.988 328.686C316.829 328.525 316.736 328.344 316.699 328.131C316.663 327.918 316.69 327.695 316.782 327.452C316.875 327.209 317.04 326.968 317.277 326.729C317.614 326.382 317.958 326.182 318.312 326.107C318.674 326.044 319.002 326.12 319.304 326.357L320.38 325.246C320.014 324.905 319.593 324.7 319.131 324.622C318.668 324.544 318.182 324.607 317.696 324.794C317.209 324.98 316.741 325.305 316.303 325.758C315.876 326.203 315.557 326.687 315.378 327.195C315.19 327.701 315.149 328.19 315.233 328.669C315.318 329.149 315.547 329.57 315.93 329.935C316.393 330.374 316.908 330.575 317.473 330.536C318.048 330.498 318.653 330.28 319.299 329.882L320.187 329.339C320.464 329.168 320.725 329.026 320.968 328.933C321.203 328.828 321.428 328.783 321.632 328.796C321.837 328.81 322.019 328.893 322.188 329.056C322.366 329.23 322.474 329.445 322.506 329.688C322.537 329.931 322.495 330.182 322.389 330.444C322.283 330.705 322.105 330.964 321.866 331.214C321.629 331.453 321.381 331.639 321.123 331.761C320.864 331.882 320.598 331.931 320.331 331.917C320.067 331.893 319.815 331.788 319.581 331.584L318.479 332.721C318.92 333.116 319.387 333.35 319.879 333.433C320.372 333.516 320.87 333.445 321.382 333.231C321.893 333.017 322.388 332.656 322.865 332.158C323.366 331.642 323.7 331.13 323.89 330.614C324.081 330.098 324.122 329.609 324.025 329.138C323.927 328.676 323.688 328.254 323.315 327.891L323.297 327.878Z" fill="#196579"/>
<path d="M330.74 320.829C330.652 320.493 330.505 320.138 330.278 319.769C330.051 319.399 329.719 319.033 329.308 318.654L328.414 319.661C328.756 319.967 329.012 320.289 329.199 320.652C329.254 320.754 329.287 320.863 329.32 320.972L326.826 320.924L326.891 320.232C326.937 319.774 326.905 319.355 326.791 318.985C326.68 318.604 326.466 318.278 326.149 318.008C325.88 317.766 325.565 317.61 325.213 317.551C324.861 317.491 324.506 317.514 324.144 317.639C323.781 317.764 323.451 318.008 323.133 318.358C322.816 318.708 322.619 319.078 322.533 319.467C322.447 319.855 322.466 320.231 322.581 320.591C322.706 320.954 322.92 321.279 323.235 321.56C323.515 321.803 323.816 321.978 324.163 322.067C324.51 322.157 324.861 322.216 325.23 322.237C325.28 322.245 325.344 322.236 325.394 322.244C325.35 322.629 325.321 322.986 325.327 323.318C325.33 323.67 325.39 323.991 325.496 324.277C325.603 324.564 325.795 324.834 326.067 325.066C326.416 325.383 326.818 325.575 327.252 325.638C327.685 325.711 328.139 325.653 328.593 325.471C329.048 325.289 329.474 324.968 329.881 324.52C330.148 324.224 330.373 323.869 330.545 323.463C330.713 323.078 330.789 322.688 330.793 322.295L331.671 322.299L332.797 321.02L330.777 320.98C330.767 320.916 330.765 320.864 330.745 320.799L330.74 320.829ZM324.726 320.808C324.507 320.761 324.326 320.668 324.172 320.539C324.055 320.436 323.963 320.307 323.916 320.155C323.86 320 323.855 319.844 323.884 319.673C323.912 319.503 323.99 319.35 324.116 319.216C324.306 319.01 324.51 318.9 324.75 318.889C324.988 318.888 325.176 318.94 325.32 319.068C325.49 319.22 325.596 319.393 325.644 319.598C325.692 319.802 325.693 320.04 325.648 320.312L325.566 320.918C325.566 320.918 325.506 320.908 325.474 320.913C325.196 320.908 324.953 320.877 324.725 320.818L324.726 320.808ZM329.396 322.794C329.3 323.119 329.148 323.404 328.932 323.646C328.74 323.862 328.529 324.013 328.297 324.098C328.066 324.183 327.845 324.208 327.624 324.17C327.402 324.133 327.201 324.037 327.031 323.884C326.914 323.782 326.818 323.611 326.735 323.369C326.652 323.128 326.63 322.824 326.671 322.459L326.7 322.288L329.489 322.303C329.47 322.476 329.433 322.635 329.396 322.794Z" fill="#196579"/>
<path d="M335.71 311.534L334.664 310.686L332.329 313.56L330.456 312.034L333.028 308.859L331.982 308.011L328.394 312.431L335.296 318.04L336.314 316.785L333.375 314.408L335.71 311.534Z" fill="#196579"/>
<path d="M334.22 305.09L339.417 312.965L340.455 311.589L339.155 309.674L341.176 307.006L343.367 307.747L344.405 306.372L335.419 303.493L334.222 305.08L334.22 305.09ZM336.301 305.378L339.883 306.581L338.382 308.552L336.251 305.432L336.291 305.377L336.301 305.378Z" fill="#196579"/>
<path d="M341.978 294.383L345.749 300.229L345.692 300.323L338.898 298.796L337.767 300.415L345.066 305.511L345.953 304.234L340.929 300.73L340.971 300.665L347.382 302.138L348.037 301.194L344.456 295.69L344.498 295.624L349.514 299.116L350.4 297.849L343.099 292.762L341.978 294.383Z" fill="#196579"/>
<path d="M344.764 290.207L343.881 291.554L351.326 296.432L352.209 295.085L344.764 290.207Z" fill="#196579"/>
<path d="M352.837 291.559L346.439 287.555L345.589 288.922L353.126 293.645L356.058 288.949L354.916 288.239L352.837 291.559Z" fill="#196579"/>
<path d="M352.843 276.858L351.927 278.43L354.232 282.303L354.188 282.378L349.688 282.271L348.771 283.844L355.221 283.855L358.093 285.528L358.905 284.145L356.033 282.472L352.843 276.858Z" fill="#196579"/>
</svg>
